; NON-PLATED HOLES START AT T1
; THROUGH (PLATED) HOLES START AT T100
M48
INCH
T100C0.090945
T101C0.040000
T102C0.090972
%
T100
X013058Y004911
T101
X014024Y020328
X002899Y014327
X015024Y020328
X013024Y020328
X009620Y001964
X005902Y020328
X015999Y014328
X019079Y020338
X012020Y020332
X021067Y020339
X003914Y020327
X010620Y001964
X013010Y014328
X011620Y001964
X014010Y014328
X012010Y014328
X015010Y014328
X017075Y020343
X018078Y020338
X006978Y020345
X010957Y014341
X019065Y014338
X017065Y014338
X003900Y014327
X001900Y014327
X001910Y020331
X004913Y020327
X002913Y020327
X010971Y020341
X004900Y014327
X020078Y020338
X005888Y014328
X021053Y014339
X016013Y020328
X007968Y014341
X008968Y014341
X006968Y014341
X020065Y014338
X009982Y020341
X007982Y020341
X018064Y014338
X009968Y014341
X008982Y020341
T102
X008157Y004929
T00
M30
