G04 MADE WITH FRITZING*
G04 WWW.FRITZING.ORG*
G04 DOUBLE SIDED*
G04 HOLES PLATED*
G04 CONTOUR ON CENTER OF CONTOUR VECTOR*
%ASAXBY*%
%FSLAX23Y23*%
%MOIN*%
%OFA0B0*%
%SFA1.0B1.0*%
%ADD10C,0.084000*%
%ADD11C,0.074000*%
%ADD12C,0.134278*%
%ADD13C,0.134305*%
%ADD14R,0.084000X0.084000*%
%LNMASK1*%
G90*
G70*
G54D10*
X190Y1433D03*
X290Y1433D03*
X390Y1433D03*
X490Y1433D03*
X589Y1433D03*
X291Y2033D03*
X391Y2033D03*
X491Y2033D03*
X590Y2033D03*
X191Y2033D03*
X697Y1434D03*
X797Y1434D03*
X897Y1434D03*
X997Y1434D03*
X1096Y1434D03*
X798Y2034D03*
X898Y2034D03*
X998Y2034D03*
X1097Y2034D03*
X698Y2035D03*
X1201Y1433D03*
X1301Y1433D03*
X1401Y1433D03*
X1501Y1433D03*
X1600Y1433D03*
X1302Y2033D03*
X1402Y2033D03*
X1502Y2033D03*
X1601Y2033D03*
X1202Y2033D03*
X1707Y1434D03*
X1806Y1434D03*
X1907Y1434D03*
X2007Y1434D03*
X2105Y1434D03*
X1808Y2034D03*
X1908Y2034D03*
X2008Y2034D03*
X2107Y2034D03*
X1708Y2034D03*
G54D11*
X1162Y196D03*
X1062Y196D03*
X962Y196D03*
G54D12*
X1306Y491D03*
G54D13*
X816Y493D03*
G54D14*
X190Y1433D03*
X697Y1434D03*
X1201Y1433D03*
X1706Y1434D03*
G04 End of Mask1*
M02*