G04 MADE WITH FRITZING*
G04 WWW.FRITZING.ORG*
G04 DOUBLE SIDED*
G04 HOLES PLATED*
G04 CONTOUR ON CENTER OF CONTOUR VECTOR*
%ASAXBY*%
%FSLAX23Y23*%
%MOIN*%
%OFA0B0*%
%SFA1.0B1.0*%
%ADD10C,0.039370*%
%ADD11C,0.074000*%
%ADD12C,0.024000*%
%ADD13C,0.012000*%
%ADD14R,0.001000X0.001000*%
%LNCOPPER1*%
G90*
G70*
G54D10*
X402Y1322D03*
X270Y1406D03*
X1230Y302D03*
X594Y1106D03*
G54D11*
X1371Y1641D03*
X1271Y1641D03*
X1171Y1641D03*
X1071Y1641D03*
X971Y1641D03*
X871Y1641D03*
X1306Y1096D03*
X1306Y1196D03*
X1306Y686D03*
X1306Y786D03*
X1421Y1541D03*
X1421Y1441D03*
X1421Y1341D03*
X1421Y1241D03*
X1421Y1141D03*
X1421Y1041D03*
X1421Y941D03*
X1421Y841D03*
X1421Y741D03*
X1421Y641D03*
X1421Y541D03*
X1421Y441D03*
X821Y441D03*
X821Y541D03*
X821Y641D03*
X821Y741D03*
X821Y841D03*
X821Y941D03*
X821Y1041D03*
X821Y1141D03*
X821Y1241D03*
X821Y1341D03*
X821Y1441D03*
X821Y1541D03*
X121Y1276D03*
X113Y1176D03*
X121Y1076D03*
X113Y976D03*
X121Y876D03*
X113Y776D03*
X121Y676D03*
X113Y576D03*
X121Y476D03*
X113Y376D03*
X121Y276D03*
X113Y176D03*
X121Y1276D03*
X113Y1176D03*
X121Y1076D03*
X113Y976D03*
X121Y876D03*
X113Y776D03*
X121Y676D03*
X113Y576D03*
X121Y476D03*
X113Y376D03*
X121Y276D03*
X113Y176D03*
X692Y139D03*
X792Y129D03*
X892Y139D03*
X992Y129D03*
X692Y139D03*
X792Y129D03*
X892Y139D03*
X992Y129D03*
X1164Y138D03*
X1264Y128D03*
X1364Y138D03*
X1464Y128D03*
X1164Y138D03*
X1264Y128D03*
X1364Y138D03*
X1464Y128D03*
G54D12*
X723Y139D02*
X861Y139D01*
D02*
X823Y129D02*
X961Y129D01*
G54D13*
D02*
X389Y1320D02*
X150Y1298D01*
X150Y1298D02*
X140Y1290D01*
D02*
X141Y1089D02*
X438Y1286D01*
D02*
X438Y1286D02*
X438Y1370D01*
X438Y1370D02*
X283Y1403D01*
D02*
X1436Y1020D02*
X1482Y962D01*
X1482Y962D02*
X1464Y153D01*
D02*
X1395Y841D02*
X1254Y842D01*
X1254Y842D02*
X1167Y163D01*
D02*
X1405Y721D02*
X1338Y638D01*
X1338Y638D02*
X1234Y314D01*
D02*
X1396Y1247D02*
X1386Y1250D01*
X1386Y1250D02*
X1254Y1250D01*
X1254Y1250D02*
X918Y170D01*
X918Y170D02*
X908Y158D01*
D02*
X606Y1113D02*
X799Y1228D01*
D02*
X788Y154D02*
X786Y170D01*
X786Y170D02*
X597Y1092D01*
G54D14*
X655Y177D02*
X728Y177D01*
X655Y176D02*
X728Y176D01*
X1127Y176D02*
X1199Y176D01*
X655Y175D02*
X728Y175D01*
X1126Y175D02*
X1199Y175D01*
X655Y174D02*
X728Y174D01*
X1126Y174D02*
X1199Y174D01*
X655Y173D02*
X728Y173D01*
X1126Y173D02*
X1199Y173D01*
X655Y172D02*
X728Y172D01*
X1126Y172D02*
X1199Y172D01*
X655Y171D02*
X728Y171D01*
X1126Y171D02*
X1199Y171D01*
X655Y170D02*
X728Y170D01*
X1126Y170D02*
X1199Y170D01*
X655Y169D02*
X728Y169D01*
X1126Y169D02*
X1199Y169D01*
X655Y168D02*
X728Y168D01*
X1126Y168D02*
X1199Y168D01*
X655Y167D02*
X728Y167D01*
X1126Y167D02*
X1199Y167D01*
X655Y166D02*
X728Y166D01*
X1126Y166D02*
X1199Y166D01*
X655Y165D02*
X728Y165D01*
X1126Y165D02*
X1199Y165D01*
X655Y164D02*
X728Y164D01*
X1126Y164D02*
X1199Y164D01*
X655Y163D02*
X728Y163D01*
X1126Y163D02*
X1199Y163D01*
X655Y162D02*
X728Y162D01*
X1126Y162D02*
X1199Y162D01*
X655Y161D02*
X728Y161D01*
X1126Y161D02*
X1199Y161D01*
X655Y160D02*
X687Y160D01*
X695Y160D02*
X728Y160D01*
X1126Y160D02*
X1199Y160D01*
X655Y159D02*
X683Y159D01*
X699Y159D02*
X728Y159D01*
X1126Y159D02*
X1161Y159D01*
X1165Y159D02*
X1199Y159D01*
X655Y158D02*
X681Y158D01*
X701Y158D02*
X728Y158D01*
X1126Y158D02*
X1156Y158D01*
X1170Y158D02*
X1199Y158D01*
X655Y157D02*
X679Y157D01*
X703Y157D02*
X728Y157D01*
X1126Y157D02*
X1153Y157D01*
X1172Y157D02*
X1199Y157D01*
X655Y156D02*
X678Y156D01*
X704Y156D02*
X728Y156D01*
X1126Y156D02*
X1152Y156D01*
X1174Y156D02*
X1199Y156D01*
X655Y155D02*
X677Y155D01*
X705Y155D02*
X728Y155D01*
X1126Y155D02*
X1150Y155D01*
X1175Y155D02*
X1199Y155D01*
X655Y154D02*
X676Y154D01*
X706Y154D02*
X728Y154D01*
X1126Y154D02*
X1149Y154D01*
X1177Y154D02*
X1199Y154D01*
X655Y153D02*
X675Y153D01*
X707Y153D02*
X728Y153D01*
X1126Y153D02*
X1148Y153D01*
X1178Y153D02*
X1199Y153D01*
X655Y152D02*
X674Y152D01*
X708Y152D02*
X728Y152D01*
X1126Y152D02*
X1147Y152D01*
X1179Y152D02*
X1199Y152D01*
X655Y151D02*
X674Y151D01*
X708Y151D02*
X728Y151D01*
X1126Y151D02*
X1146Y151D01*
X1179Y151D02*
X1199Y151D01*
X655Y150D02*
X673Y150D01*
X709Y150D02*
X728Y150D01*
X1126Y150D02*
X1146Y150D01*
X1180Y150D02*
X1199Y150D01*
X655Y149D02*
X673Y149D01*
X710Y149D02*
X728Y149D01*
X1126Y149D02*
X1145Y149D01*
X1181Y149D02*
X1199Y149D01*
X655Y148D02*
X672Y148D01*
X710Y148D02*
X728Y148D01*
X1126Y148D02*
X1144Y148D01*
X1181Y148D02*
X1199Y148D01*
X655Y147D02*
X672Y147D01*
X710Y147D02*
X728Y147D01*
X1126Y147D02*
X1144Y147D01*
X1182Y147D02*
X1199Y147D01*
X655Y146D02*
X671Y146D01*
X711Y146D02*
X728Y146D01*
X1126Y146D02*
X1144Y146D01*
X1182Y146D02*
X1199Y146D01*
X655Y145D02*
X671Y145D01*
X711Y145D02*
X728Y145D01*
X1126Y145D02*
X1143Y145D01*
X1182Y145D02*
X1199Y145D01*
X655Y144D02*
X671Y144D01*
X711Y144D02*
X728Y144D01*
X1126Y144D02*
X1143Y144D01*
X1183Y144D02*
X1199Y144D01*
X655Y143D02*
X671Y143D01*
X711Y143D02*
X728Y143D01*
X1126Y143D02*
X1143Y143D01*
X1183Y143D02*
X1199Y143D01*
X655Y142D02*
X671Y142D01*
X711Y142D02*
X728Y142D01*
X1126Y142D02*
X1143Y142D01*
X1183Y142D02*
X1199Y142D01*
X655Y141D02*
X671Y141D01*
X712Y141D02*
X728Y141D01*
X1126Y141D02*
X1143Y141D01*
X1183Y141D02*
X1199Y141D01*
X655Y140D02*
X671Y140D01*
X712Y140D02*
X728Y140D01*
X1126Y140D02*
X1142Y140D01*
X1183Y140D02*
X1199Y140D01*
X655Y139D02*
X671Y139D01*
X711Y139D02*
X728Y139D01*
X1126Y139D02*
X1142Y139D01*
X1183Y139D02*
X1199Y139D01*
X655Y138D02*
X671Y138D01*
X711Y138D02*
X728Y138D01*
X1126Y138D02*
X1142Y138D01*
X1183Y138D02*
X1199Y138D01*
X655Y137D02*
X671Y137D01*
X711Y137D02*
X728Y137D01*
X1126Y137D02*
X1143Y137D01*
X1183Y137D02*
X1199Y137D01*
X655Y136D02*
X671Y136D01*
X711Y136D02*
X728Y136D01*
X1126Y136D02*
X1143Y136D01*
X1183Y136D02*
X1199Y136D01*
X655Y135D02*
X671Y135D01*
X711Y135D02*
X728Y135D01*
X1126Y135D02*
X1143Y135D01*
X1183Y135D02*
X1199Y135D01*
X655Y134D02*
X672Y134D01*
X710Y134D02*
X728Y134D01*
X1126Y134D02*
X1143Y134D01*
X1183Y134D02*
X1199Y134D01*
X655Y133D02*
X672Y133D01*
X710Y133D02*
X728Y133D01*
X1126Y133D02*
X1143Y133D01*
X1182Y133D02*
X1199Y133D01*
X655Y132D02*
X673Y132D01*
X710Y132D02*
X728Y132D01*
X1126Y132D02*
X1144Y132D01*
X1182Y132D02*
X1199Y132D01*
X655Y131D02*
X673Y131D01*
X709Y131D02*
X728Y131D01*
X1126Y131D02*
X1144Y131D01*
X1182Y131D02*
X1199Y131D01*
X655Y130D02*
X674Y130D01*
X709Y130D02*
X728Y130D01*
X1126Y130D02*
X1145Y130D01*
X1181Y130D02*
X1199Y130D01*
X655Y129D02*
X674Y129D01*
X708Y129D02*
X728Y129D01*
X1126Y129D02*
X1145Y129D01*
X1180Y129D02*
X1199Y129D01*
X655Y128D02*
X675Y128D01*
X707Y128D02*
X728Y128D01*
X1126Y128D02*
X1146Y128D01*
X1180Y128D02*
X1199Y128D01*
X655Y127D02*
X676Y127D01*
X706Y127D02*
X728Y127D01*
X1126Y127D02*
X1147Y127D01*
X1179Y127D02*
X1199Y127D01*
X655Y126D02*
X677Y126D01*
X705Y126D02*
X728Y126D01*
X1126Y126D02*
X1147Y126D01*
X1178Y126D02*
X1199Y126D01*
X655Y125D02*
X678Y125D01*
X704Y125D02*
X728Y125D01*
X1126Y125D02*
X1148Y125D01*
X1177Y125D02*
X1199Y125D01*
X655Y124D02*
X679Y124D01*
X703Y124D02*
X728Y124D01*
X1126Y124D02*
X1149Y124D01*
X1176Y124D02*
X1199Y124D01*
X655Y123D02*
X681Y123D01*
X701Y123D02*
X728Y123D01*
X1126Y123D02*
X1151Y123D01*
X1175Y123D02*
X1199Y123D01*
X655Y122D02*
X683Y122D01*
X699Y122D02*
X728Y122D01*
X1126Y122D02*
X1152Y122D01*
X1173Y122D02*
X1199Y122D01*
X655Y121D02*
X686Y121D01*
X696Y121D02*
X728Y121D01*
X1126Y121D02*
X1154Y121D01*
X1172Y121D02*
X1199Y121D01*
X655Y120D02*
X728Y120D01*
X1126Y120D02*
X1157Y120D01*
X1169Y120D02*
X1199Y120D01*
X655Y119D02*
X728Y119D01*
X1126Y119D02*
X1199Y119D01*
X655Y118D02*
X728Y118D01*
X1126Y118D02*
X1199Y118D01*
X655Y117D02*
X728Y117D01*
X1126Y117D02*
X1199Y117D01*
X655Y116D02*
X728Y116D01*
X1126Y116D02*
X1199Y116D01*
X655Y115D02*
X728Y115D01*
X1126Y115D02*
X1199Y115D01*
X655Y114D02*
X728Y114D01*
X1126Y114D02*
X1199Y114D01*
X655Y113D02*
X728Y113D01*
X1126Y113D02*
X1199Y113D01*
X655Y112D02*
X728Y112D01*
X1126Y112D02*
X1199Y112D01*
X655Y111D02*
X728Y111D01*
X1126Y111D02*
X1199Y111D01*
X655Y110D02*
X728Y110D01*
X1126Y110D02*
X1199Y110D01*
X655Y109D02*
X728Y109D01*
X1126Y109D02*
X1199Y109D01*
X655Y108D02*
X728Y108D01*
X1126Y108D02*
X1199Y108D01*
X655Y107D02*
X728Y107D01*
X1126Y107D02*
X1199Y107D01*
X655Y106D02*
X728Y106D01*
X1126Y106D02*
X1199Y106D01*
X655Y105D02*
X728Y105D01*
X1126Y105D02*
X1199Y105D01*
X655Y104D02*
X728Y104D01*
X1126Y104D02*
X1199Y104D01*
X1126Y103D02*
X1199Y103D01*
D02*
G04 End of Copper1*
M02*