; NON-PLATED HOLES START AT T1
; THROUGH (PLATED) HOLES START AT T100
M48
INCH
T100C0.015748
T101C0.040000
T102C0.035000
%
T100
X004019Y013216
X002699Y014056
X005939Y011056
X012300Y003016
T101
X014205Y008406
X008205Y012406
X009919Y001289
X007919Y001289
X013055Y006856
X008205Y004406
X013055Y011956
X014205Y014406
X008205Y009406
X014205Y006406
X008205Y010406
X008705Y016406
X008205Y015406
X009705Y016406
X014205Y012406
X008205Y007406
X008919Y001389
X006919Y001389
X014205Y004406
X014205Y009406
X011705Y016406
X013705Y016406
X008205Y013406
X013055Y007856
X014205Y010406
X008205Y005406
X010705Y016406
X012705Y016406
X014205Y015406
X014639Y001277
X012639Y001277
X014205Y007406
X008205Y011406
X013055Y010956
X014205Y013406
X008205Y008406
X014205Y005406
X008205Y014406
X014205Y011406
X008205Y006406
X013639Y001377
X011639Y001377
T102
X001214Y004762
X001134Y007762
X001134Y001762
X001134Y011762
X001214Y006762
X001134Y009762
X001214Y010762
X001134Y003762
X001214Y008762
X001214Y002762
X001214Y012762
X001134Y005762
T00
M30
