G04 MADE WITH FRITZING*
G04 WWW.FRITZING.ORG*
G04 DOUBLE SIDED*
G04 HOLES PLATED*
G04 CONTOUR ON CENTER OF CONTOUR VECTOR*
%ASAXBY*%
%FSLAX23Y23*%
%MOIN*%
%OFA0B0*%
%SFA1.0B1.0*%
%ADD10C,0.039370*%
%ADD11C,0.074000*%
%ADD12C,0.024000*%
%ADD13R,0.001000X0.001000*%
%LNCOPPER1*%
G90*
G70*
G54D10*
X708Y469D03*
G54D11*
X941Y1527D03*
X841Y1527D03*
X741Y1527D03*
X641Y1527D03*
X541Y1527D03*
X441Y1527D03*
X876Y982D03*
X876Y1082D03*
X876Y572D03*
X876Y672D03*
X991Y1427D03*
X991Y1327D03*
X991Y1227D03*
X991Y1127D03*
X991Y1027D03*
X991Y927D03*
X991Y827D03*
X991Y727D03*
X991Y627D03*
X991Y527D03*
X991Y427D03*
X991Y327D03*
X391Y327D03*
X391Y427D03*
X391Y527D03*
X391Y627D03*
X391Y727D03*
X391Y827D03*
X391Y927D03*
X391Y1027D03*
X391Y1127D03*
X391Y1227D03*
X391Y1327D03*
X391Y1427D03*
X141Y1227D03*
X133Y1127D03*
X141Y1027D03*
X133Y927D03*
X141Y827D03*
X133Y727D03*
X141Y627D03*
X133Y527D03*
X141Y427D03*
X133Y327D03*
X141Y227D03*
X133Y127D03*
X141Y1227D03*
X133Y1127D03*
X141Y1027D03*
X133Y927D03*
X141Y827D03*
X133Y727D03*
X141Y627D03*
X133Y527D03*
X141Y427D03*
X133Y327D03*
X141Y227D03*
X133Y127D03*
X495Y124D03*
X595Y114D03*
X695Y124D03*
X795Y114D03*
X495Y124D03*
X595Y114D03*
X695Y124D03*
X795Y114D03*
G54D12*
X366Y446D02*
X163Y609D01*
D02*
X366Y646D02*
X163Y809D01*
D02*
X974Y401D02*
X972Y397D01*
X972Y397D02*
X468Y397D01*
X468Y397D02*
X444Y253D01*
X444Y253D02*
X160Y320D01*
D02*
X366Y846D02*
X163Y1009D01*
D02*
X963Y341D02*
X948Y349D01*
X948Y349D02*
X420Y181D01*
X420Y181D02*
X276Y61D01*
X276Y61D02*
X84Y61D01*
X84Y61D02*
X60Y85D01*
X60Y85D02*
X60Y397D01*
X60Y397D02*
X114Y417D01*
D02*
X716Y487D02*
X828Y733D01*
X828Y733D02*
X960Y728D01*
D02*
X1017Y910D02*
X1068Y877D01*
X1068Y877D02*
X1068Y301D01*
X1068Y301D02*
X821Y132D01*
G54D13*
X458Y161D02*
X531Y161D01*
X458Y160D02*
X531Y160D01*
X458Y159D02*
X531Y159D01*
X458Y158D02*
X531Y158D01*
X458Y157D02*
X531Y157D01*
X458Y156D02*
X531Y156D01*
X458Y155D02*
X531Y155D01*
X458Y154D02*
X531Y154D01*
X458Y153D02*
X531Y153D01*
X458Y152D02*
X531Y152D01*
X458Y151D02*
X531Y151D01*
X458Y150D02*
X531Y150D01*
X458Y149D02*
X531Y149D01*
X458Y148D02*
X531Y148D01*
X458Y147D02*
X531Y147D01*
X458Y146D02*
X531Y146D01*
X458Y145D02*
X531Y145D01*
X458Y144D02*
X489Y144D01*
X499Y144D02*
X531Y144D01*
X458Y143D02*
X486Y143D01*
X503Y143D02*
X531Y143D01*
X458Y142D02*
X484Y142D01*
X504Y142D02*
X531Y142D01*
X458Y141D02*
X483Y141D01*
X506Y141D02*
X531Y141D01*
X458Y140D02*
X481Y140D01*
X507Y140D02*
X531Y140D01*
X458Y139D02*
X480Y139D01*
X509Y139D02*
X531Y139D01*
X458Y138D02*
X479Y138D01*
X510Y138D02*
X531Y138D01*
X458Y137D02*
X478Y137D01*
X510Y137D02*
X531Y137D01*
X458Y136D02*
X478Y136D01*
X511Y136D02*
X531Y136D01*
X458Y135D02*
X477Y135D01*
X512Y135D02*
X531Y135D01*
X458Y134D02*
X476Y134D01*
X512Y134D02*
X531Y134D01*
X458Y133D02*
X476Y133D01*
X513Y133D02*
X531Y133D01*
X458Y132D02*
X475Y132D01*
X513Y132D02*
X531Y132D01*
X458Y131D02*
X475Y131D01*
X514Y131D02*
X531Y131D01*
X458Y130D02*
X475Y130D01*
X514Y130D02*
X531Y130D01*
X458Y129D02*
X474Y129D01*
X514Y129D02*
X531Y129D01*
X458Y128D02*
X474Y128D01*
X515Y128D02*
X531Y128D01*
X458Y127D02*
X474Y127D01*
X515Y127D02*
X531Y127D01*
X458Y126D02*
X474Y126D01*
X515Y126D02*
X531Y126D01*
X458Y125D02*
X474Y125D01*
X515Y125D02*
X531Y125D01*
X458Y124D02*
X474Y124D01*
X515Y124D02*
X531Y124D01*
X458Y123D02*
X474Y123D01*
X515Y123D02*
X531Y123D01*
X458Y122D02*
X474Y122D01*
X515Y122D02*
X531Y122D01*
X458Y121D02*
X474Y121D01*
X514Y121D02*
X531Y121D01*
X458Y120D02*
X474Y120D01*
X514Y120D02*
X531Y120D01*
X458Y119D02*
X475Y119D01*
X514Y119D02*
X531Y119D01*
X458Y118D02*
X475Y118D01*
X514Y118D02*
X531Y118D01*
X458Y117D02*
X475Y117D01*
X513Y117D02*
X531Y117D01*
X458Y116D02*
X476Y116D01*
X513Y116D02*
X531Y116D01*
X458Y115D02*
X476Y115D01*
X512Y115D02*
X531Y115D01*
X458Y114D02*
X477Y114D01*
X512Y114D02*
X531Y114D01*
X458Y113D02*
X478Y113D01*
X511Y113D02*
X531Y113D01*
X458Y112D02*
X478Y112D01*
X510Y112D02*
X531Y112D01*
X458Y111D02*
X479Y111D01*
X509Y111D02*
X531Y111D01*
X458Y110D02*
X480Y110D01*
X508Y110D02*
X531Y110D01*
X458Y109D02*
X481Y109D01*
X507Y109D02*
X531Y109D01*
X458Y108D02*
X483Y108D01*
X506Y108D02*
X531Y108D01*
X458Y107D02*
X485Y107D01*
X504Y107D02*
X531Y107D01*
X458Y106D02*
X487Y106D01*
X502Y106D02*
X531Y106D01*
X458Y105D02*
X490Y105D01*
X499Y105D02*
X531Y105D01*
X458Y104D02*
X531Y104D01*
X458Y103D02*
X531Y103D01*
X458Y102D02*
X531Y102D01*
X458Y101D02*
X531Y101D01*
X458Y100D02*
X531Y100D01*
X458Y99D02*
X531Y99D01*
X458Y98D02*
X531Y98D01*
X458Y97D02*
X531Y97D01*
X458Y96D02*
X531Y96D01*
X458Y95D02*
X531Y95D01*
X458Y94D02*
X531Y94D01*
X458Y93D02*
X531Y93D01*
X458Y92D02*
X531Y92D01*
X458Y91D02*
X531Y91D01*
X458Y90D02*
X531Y90D01*
X458Y89D02*
X531Y89D01*
X458Y88D02*
X531Y88D01*
D02*
G04 End of Copper1*
M02*