; NON-PLATED HOLES START AT T1
; THROUGH (PLATED) HOLES START AT T100
M48
INCH
T100C0.040000
T101C0.015748
T102C0.035000
%
T100
X003906Y012269
X009906Y012269
X003906Y004269
X009906Y004269
X003906Y009269
X009906Y009269
X003906Y010269
X009906Y010269
X003906Y007269
X009906Y007269
X008756Y009819
X003906Y013269
X009906Y013269
X008756Y005719
X003906Y005269
X009906Y005269
X008756Y010819
X007951Y001140
X005951Y001140
X003906Y011269
X009906Y011269
X003906Y003269
X009906Y003269
X003906Y008269
X009906Y008269
X005406Y015269
X007406Y015269
X004406Y015269
X006406Y015269
X008406Y015269
X006951Y001240
X004951Y001240
X009406Y015269
X003906Y014269
X009906Y014269
X008756Y006719
X003906Y006269
X009906Y006269
T101
X007079Y004694
T102
X001326Y009269
X001326Y003269
X001406Y008269
X001406Y002269
X001406Y012269
X001326Y005269
X001406Y004269
X001326Y007269
X001326Y001269
X001326Y011269
X001406Y006269
X001406Y010269
T00
M30
