G04 MADE WITH FRITZING*
G04 WWW.FRITZING.ORG*
G04 DOUBLE SIDED*
G04 HOLES PLATED*
G04 CONTOUR ON CENTER OF CONTOUR VECTOR*
%ASAXBY*%
%FSLAX23Y23*%
%MOIN*%
%OFA0B0*%
%SFA1.0B1.0*%
%ADD10R,1.145670X1.657480X1.129670X1.641480*%
%ADD11C,0.008000*%
%ADD12R,0.001000X0.001000*%
%LNSILK0*%
G90*
G70*
G54D11*
X4Y1653D02*
X1142Y1653D01*
X1142Y4D01*
X4Y4D01*
X4Y1653D01*
D02*
G54D12*
X938Y1631D02*
X943Y1631D01*
X937Y1630D02*
X944Y1630D01*
X136Y1629D02*
X157Y1629D01*
X354Y1629D02*
X362Y1629D01*
X454Y1629D02*
X462Y1629D01*
X669Y1629D02*
X689Y1629D01*
X804Y1629D02*
X809Y1629D01*
X937Y1629D02*
X945Y1629D01*
X977Y1629D02*
X997Y1629D01*
X133Y1628D02*
X159Y1628D01*
X352Y1628D02*
X366Y1628D01*
X452Y1628D02*
X465Y1628D01*
X665Y1628D02*
X689Y1628D01*
X802Y1628D02*
X811Y1628D01*
X861Y1628D02*
X865Y1628D01*
X936Y1628D02*
X945Y1628D01*
X974Y1628D02*
X998Y1628D01*
X132Y1627D02*
X159Y1627D01*
X351Y1627D02*
X368Y1627D01*
X451Y1627D02*
X465Y1627D01*
X663Y1627D02*
X689Y1627D01*
X801Y1627D02*
X812Y1627D01*
X861Y1627D02*
X865Y1627D01*
X936Y1627D02*
X945Y1627D01*
X972Y1627D02*
X998Y1627D01*
X131Y1626D02*
X159Y1626D01*
X351Y1626D02*
X369Y1626D01*
X451Y1626D02*
X465Y1626D01*
X547Y1626D02*
X549Y1626D01*
X662Y1626D02*
X689Y1626D01*
X801Y1626D02*
X812Y1626D01*
X860Y1626D02*
X865Y1626D01*
X937Y1626D02*
X945Y1626D01*
X971Y1626D02*
X998Y1626D01*
X131Y1625D02*
X159Y1625D01*
X351Y1625D02*
X370Y1625D01*
X451Y1625D02*
X465Y1625D01*
X546Y1625D02*
X550Y1625D01*
X661Y1625D02*
X689Y1625D01*
X801Y1625D02*
X812Y1625D01*
X860Y1625D02*
X866Y1625D01*
X937Y1625D02*
X945Y1625D01*
X970Y1625D02*
X998Y1625D01*
X130Y1624D02*
X159Y1624D01*
X352Y1624D02*
X370Y1624D01*
X451Y1624D02*
X465Y1624D01*
X546Y1624D02*
X550Y1624D01*
X661Y1624D02*
X689Y1624D01*
X802Y1624D02*
X812Y1624D01*
X860Y1624D02*
X866Y1624D01*
X937Y1624D02*
X944Y1624D01*
X970Y1624D02*
X998Y1624D01*
X130Y1623D02*
X157Y1623D01*
X353Y1623D02*
X371Y1623D01*
X451Y1623D02*
X463Y1623D01*
X545Y1623D02*
X551Y1623D01*
X660Y1623D02*
X689Y1623D01*
X802Y1623D02*
X812Y1623D01*
X860Y1623D02*
X866Y1623D01*
X939Y1623D02*
X942Y1623D01*
X969Y1623D02*
X998Y1623D01*
X130Y1622D02*
X135Y1622D01*
X365Y1622D02*
X372Y1622D01*
X451Y1622D02*
X456Y1622D01*
X545Y1622D02*
X551Y1622D01*
X660Y1622D02*
X666Y1622D01*
X684Y1622D02*
X689Y1622D01*
X802Y1622D02*
X812Y1622D01*
X860Y1622D02*
X866Y1622D01*
X969Y1622D02*
X975Y1622D01*
X993Y1622D02*
X998Y1622D01*
X130Y1621D02*
X135Y1621D01*
X366Y1621D02*
X373Y1621D01*
X451Y1621D02*
X456Y1621D01*
X545Y1621D02*
X551Y1621D01*
X660Y1621D02*
X665Y1621D01*
X684Y1621D02*
X689Y1621D01*
X802Y1621D02*
X812Y1621D01*
X860Y1621D02*
X866Y1621D01*
X969Y1621D02*
X974Y1621D01*
X993Y1621D02*
X998Y1621D01*
X130Y1620D02*
X135Y1620D01*
X367Y1620D02*
X374Y1620D01*
X451Y1620D02*
X456Y1620D01*
X545Y1620D02*
X551Y1620D01*
X660Y1620D02*
X665Y1620D01*
X684Y1620D02*
X689Y1620D01*
X803Y1620D02*
X812Y1620D01*
X860Y1620D02*
X866Y1620D01*
X969Y1620D02*
X974Y1620D01*
X993Y1620D02*
X998Y1620D01*
X130Y1619D02*
X135Y1619D01*
X367Y1619D02*
X374Y1619D01*
X451Y1619D02*
X456Y1619D01*
X545Y1619D02*
X551Y1619D01*
X660Y1619D02*
X665Y1619D01*
X684Y1619D02*
X689Y1619D01*
X803Y1619D02*
X812Y1619D01*
X860Y1619D02*
X866Y1619D01*
X968Y1619D02*
X974Y1619D01*
X993Y1619D02*
X998Y1619D01*
X130Y1618D02*
X135Y1618D01*
X368Y1618D02*
X375Y1618D01*
X451Y1618D02*
X456Y1618D01*
X545Y1618D02*
X551Y1618D01*
X660Y1618D02*
X665Y1618D01*
X684Y1618D02*
X689Y1618D01*
X803Y1618D02*
X812Y1618D01*
X860Y1618D02*
X866Y1618D01*
X968Y1618D02*
X974Y1618D01*
X993Y1618D02*
X998Y1618D01*
X130Y1617D02*
X135Y1617D01*
X369Y1617D02*
X376Y1617D01*
X451Y1617D02*
X456Y1617D01*
X545Y1617D02*
X551Y1617D01*
X660Y1617D02*
X665Y1617D01*
X684Y1617D02*
X689Y1617D01*
X804Y1617D02*
X812Y1617D01*
X860Y1617D02*
X866Y1617D01*
X968Y1617D02*
X974Y1617D01*
X993Y1617D02*
X998Y1617D01*
X130Y1616D02*
X135Y1616D01*
X177Y1616D02*
X177Y1616D01*
X201Y1616D02*
X201Y1616D01*
X272Y1616D02*
X276Y1616D01*
X289Y1616D02*
X289Y1616D01*
X309Y1616D02*
X309Y1616D01*
X370Y1616D02*
X377Y1616D01*
X451Y1616D02*
X456Y1616D01*
X492Y1616D02*
X504Y1616D01*
X533Y1616D02*
X554Y1616D01*
X580Y1616D02*
X586Y1616D01*
X598Y1616D02*
X598Y1616D01*
X626Y1616D02*
X635Y1616D01*
X660Y1616D02*
X665Y1616D01*
X684Y1616D02*
X689Y1616D01*
X756Y1616D02*
X770Y1616D01*
X804Y1616D02*
X812Y1616D01*
X842Y1616D02*
X842Y1616D01*
X860Y1616D02*
X866Y1616D01*
X883Y1616D02*
X896Y1616D01*
X939Y1616D02*
X948Y1616D01*
X969Y1616D02*
X974Y1616D01*
X993Y1616D02*
X998Y1616D01*
X130Y1615D02*
X135Y1615D01*
X175Y1615D02*
X179Y1615D01*
X199Y1615D02*
X203Y1615D01*
X268Y1615D02*
X279Y1615D01*
X288Y1615D02*
X291Y1615D01*
X307Y1615D02*
X311Y1615D01*
X332Y1615D02*
X335Y1615D01*
X371Y1615D02*
X377Y1615D01*
X451Y1615D02*
X456Y1615D01*
X489Y1615D02*
X506Y1615D01*
X531Y1615D02*
X556Y1615D01*
X576Y1615D02*
X588Y1615D01*
X596Y1615D02*
X600Y1615D01*
X623Y1615D02*
X638Y1615D01*
X660Y1615D02*
X665Y1615D01*
X684Y1615D02*
X689Y1615D01*
X752Y1615D02*
X773Y1615D01*
X804Y1615D02*
X812Y1615D01*
X840Y1615D02*
X844Y1615D01*
X860Y1615D02*
X866Y1615D01*
X881Y1615D02*
X899Y1615D01*
X937Y1615D02*
X950Y1615D01*
X969Y1615D02*
X974Y1615D01*
X993Y1615D02*
X998Y1615D01*
X130Y1614D02*
X135Y1614D01*
X175Y1614D02*
X179Y1614D01*
X199Y1614D02*
X203Y1614D01*
X267Y1614D02*
X281Y1614D01*
X287Y1614D02*
X292Y1614D01*
X307Y1614D02*
X312Y1614D01*
X331Y1614D02*
X336Y1614D01*
X371Y1614D02*
X378Y1614D01*
X451Y1614D02*
X456Y1614D01*
X487Y1614D02*
X506Y1614D01*
X531Y1614D02*
X556Y1614D01*
X575Y1614D02*
X589Y1614D01*
X596Y1614D02*
X601Y1614D01*
X621Y1614D02*
X639Y1614D01*
X660Y1614D02*
X665Y1614D01*
X684Y1614D02*
X689Y1614D01*
X751Y1614D02*
X774Y1614D01*
X804Y1614D02*
X812Y1614D01*
X839Y1614D02*
X845Y1614D01*
X860Y1614D02*
X866Y1614D01*
X880Y1614D02*
X901Y1614D01*
X937Y1614D02*
X951Y1614D01*
X969Y1614D02*
X975Y1614D01*
X993Y1614D02*
X998Y1614D01*
X130Y1613D02*
X135Y1613D01*
X174Y1613D02*
X179Y1613D01*
X199Y1613D02*
X204Y1613D01*
X266Y1613D02*
X282Y1613D01*
X287Y1613D02*
X292Y1613D01*
X307Y1613D02*
X312Y1613D01*
X331Y1613D02*
X336Y1613D01*
X372Y1613D02*
X379Y1613D01*
X451Y1613D02*
X456Y1613D01*
X486Y1613D02*
X506Y1613D01*
X530Y1613D02*
X557Y1613D01*
X574Y1613D02*
X590Y1613D01*
X596Y1613D02*
X601Y1613D01*
X620Y1613D02*
X640Y1613D01*
X660Y1613D02*
X665Y1613D01*
X684Y1613D02*
X689Y1613D01*
X750Y1613D02*
X775Y1613D01*
X805Y1613D02*
X812Y1613D01*
X839Y1613D02*
X846Y1613D01*
X860Y1613D02*
X866Y1613D01*
X880Y1613D02*
X902Y1613D01*
X937Y1613D02*
X951Y1613D01*
X969Y1613D02*
X998Y1613D01*
X130Y1612D02*
X135Y1612D01*
X174Y1612D02*
X179Y1612D01*
X199Y1612D02*
X204Y1612D01*
X265Y1612D02*
X284Y1612D01*
X287Y1612D02*
X292Y1612D01*
X307Y1612D02*
X312Y1612D01*
X331Y1612D02*
X336Y1612D01*
X373Y1612D02*
X379Y1612D01*
X451Y1612D02*
X456Y1612D01*
X485Y1612D02*
X506Y1612D01*
X531Y1612D02*
X556Y1612D01*
X573Y1612D02*
X592Y1612D01*
X596Y1612D02*
X601Y1612D01*
X619Y1612D02*
X642Y1612D01*
X660Y1612D02*
X665Y1612D01*
X684Y1612D02*
X689Y1612D01*
X749Y1612D02*
X776Y1612D01*
X805Y1612D02*
X812Y1612D01*
X839Y1612D02*
X847Y1612D01*
X860Y1612D02*
X866Y1612D01*
X880Y1612D02*
X904Y1612D01*
X936Y1612D02*
X951Y1612D01*
X970Y1612D02*
X998Y1612D01*
X130Y1611D02*
X135Y1611D01*
X174Y1611D02*
X179Y1611D01*
X199Y1611D02*
X204Y1611D01*
X264Y1611D02*
X292Y1611D01*
X307Y1611D02*
X312Y1611D01*
X331Y1611D02*
X336Y1611D01*
X374Y1611D02*
X380Y1611D01*
X451Y1611D02*
X456Y1611D01*
X485Y1611D02*
X506Y1611D01*
X531Y1611D02*
X556Y1611D01*
X572Y1611D02*
X593Y1611D01*
X596Y1611D02*
X601Y1611D01*
X618Y1611D02*
X643Y1611D01*
X660Y1611D02*
X665Y1611D01*
X684Y1611D02*
X689Y1611D01*
X749Y1611D02*
X776Y1611D01*
X805Y1611D02*
X812Y1611D01*
X840Y1611D02*
X848Y1611D01*
X860Y1611D02*
X866Y1611D01*
X881Y1611D02*
X905Y1611D01*
X936Y1611D02*
X950Y1611D01*
X970Y1611D02*
X998Y1611D01*
X130Y1610D02*
X135Y1610D01*
X174Y1610D02*
X179Y1610D01*
X199Y1610D02*
X204Y1610D01*
X264Y1610D02*
X292Y1610D01*
X307Y1610D02*
X312Y1610D01*
X331Y1610D02*
X336Y1610D01*
X374Y1610D02*
X380Y1610D01*
X451Y1610D02*
X456Y1610D01*
X484Y1610D02*
X504Y1610D01*
X533Y1610D02*
X554Y1610D01*
X572Y1610D02*
X594Y1610D01*
X596Y1610D02*
X601Y1610D01*
X617Y1610D02*
X643Y1610D01*
X660Y1610D02*
X665Y1610D01*
X684Y1610D02*
X689Y1610D01*
X749Y1610D02*
X776Y1610D01*
X806Y1610D02*
X812Y1610D01*
X841Y1610D02*
X850Y1610D01*
X860Y1610D02*
X866Y1610D01*
X883Y1610D02*
X906Y1610D01*
X936Y1610D02*
X948Y1610D01*
X971Y1610D02*
X998Y1610D01*
X130Y1609D02*
X135Y1609D01*
X174Y1609D02*
X179Y1609D01*
X199Y1609D02*
X204Y1609D01*
X264Y1609D02*
X269Y1609D01*
X278Y1609D02*
X292Y1609D01*
X307Y1609D02*
X312Y1609D01*
X331Y1609D02*
X336Y1609D01*
X375Y1609D02*
X380Y1609D01*
X451Y1609D02*
X456Y1609D01*
X484Y1609D02*
X490Y1609D01*
X545Y1609D02*
X551Y1609D01*
X572Y1609D02*
X577Y1609D01*
X587Y1609D02*
X601Y1609D01*
X616Y1609D02*
X624Y1609D01*
X637Y1609D02*
X644Y1609D01*
X660Y1609D02*
X665Y1609D01*
X684Y1609D02*
X689Y1609D01*
X749Y1609D02*
X754Y1609D01*
X771Y1609D02*
X776Y1609D01*
X806Y1609D02*
X812Y1609D01*
X842Y1609D02*
X851Y1609D01*
X860Y1609D02*
X866Y1609D01*
X898Y1609D02*
X907Y1609D01*
X936Y1609D02*
X942Y1609D01*
X973Y1609D02*
X998Y1609D01*
X130Y1608D02*
X155Y1608D01*
X174Y1608D02*
X180Y1608D01*
X198Y1608D02*
X204Y1608D01*
X263Y1608D02*
X269Y1608D01*
X280Y1608D02*
X292Y1608D01*
X307Y1608D02*
X312Y1608D01*
X331Y1608D02*
X336Y1608D01*
X375Y1608D02*
X380Y1608D01*
X451Y1608D02*
X456Y1608D01*
X484Y1608D02*
X489Y1608D01*
X545Y1608D02*
X551Y1608D01*
X571Y1608D02*
X577Y1608D01*
X588Y1608D02*
X601Y1608D01*
X616Y1608D02*
X622Y1608D01*
X638Y1608D02*
X644Y1608D01*
X660Y1608D02*
X665Y1608D01*
X684Y1608D02*
X689Y1608D01*
X750Y1608D02*
X752Y1608D01*
X771Y1608D02*
X776Y1608D01*
X806Y1608D02*
X812Y1608D01*
X843Y1608D02*
X852Y1608D01*
X860Y1608D02*
X866Y1608D01*
X900Y1608D02*
X908Y1608D01*
X936Y1608D02*
X942Y1608D01*
X974Y1608D02*
X998Y1608D01*
X130Y1607D02*
X157Y1607D01*
X174Y1607D02*
X180Y1607D01*
X198Y1607D02*
X204Y1607D01*
X263Y1607D02*
X269Y1607D01*
X281Y1607D02*
X292Y1607D01*
X307Y1607D02*
X312Y1607D01*
X331Y1607D02*
X336Y1607D01*
X375Y1607D02*
X380Y1607D01*
X451Y1607D02*
X456Y1607D01*
X484Y1607D02*
X489Y1607D01*
X545Y1607D02*
X551Y1607D01*
X571Y1607D02*
X577Y1607D01*
X589Y1607D02*
X601Y1607D01*
X616Y1607D02*
X621Y1607D01*
X639Y1607D02*
X645Y1607D01*
X660Y1607D02*
X665Y1607D01*
X684Y1607D02*
X689Y1607D01*
X771Y1607D02*
X776Y1607D01*
X807Y1607D02*
X812Y1607D01*
X845Y1607D02*
X853Y1607D01*
X860Y1607D02*
X866Y1607D01*
X901Y1607D02*
X908Y1607D01*
X936Y1607D02*
X942Y1607D01*
X981Y1607D02*
X987Y1607D01*
X993Y1607D02*
X998Y1607D01*
X131Y1606D02*
X158Y1606D01*
X175Y1606D02*
X181Y1606D01*
X197Y1606D02*
X203Y1606D01*
X263Y1606D02*
X268Y1606D01*
X283Y1606D02*
X292Y1606D01*
X307Y1606D02*
X312Y1606D01*
X331Y1606D02*
X336Y1606D01*
X375Y1606D02*
X380Y1606D01*
X451Y1606D02*
X456Y1606D01*
X484Y1606D02*
X489Y1606D01*
X545Y1606D02*
X551Y1606D01*
X571Y1606D02*
X577Y1606D01*
X590Y1606D02*
X601Y1606D01*
X616Y1606D02*
X621Y1606D01*
X640Y1606D02*
X645Y1606D01*
X660Y1606D02*
X667Y1606D01*
X684Y1606D02*
X689Y1606D01*
X769Y1606D02*
X776Y1606D01*
X807Y1606D02*
X812Y1606D01*
X846Y1606D02*
X854Y1606D01*
X860Y1606D02*
X866Y1606D01*
X902Y1606D02*
X909Y1606D01*
X936Y1606D02*
X942Y1606D01*
X981Y1606D02*
X987Y1606D01*
X993Y1606D02*
X998Y1606D01*
X131Y1605D02*
X159Y1605D01*
X175Y1605D02*
X181Y1605D01*
X197Y1605D02*
X203Y1605D01*
X263Y1605D02*
X268Y1605D01*
X284Y1605D02*
X292Y1605D01*
X307Y1605D02*
X312Y1605D01*
X331Y1605D02*
X336Y1605D01*
X375Y1605D02*
X380Y1605D01*
X451Y1605D02*
X456Y1605D01*
X484Y1605D02*
X489Y1605D01*
X545Y1605D02*
X551Y1605D01*
X571Y1605D02*
X576Y1605D01*
X591Y1605D02*
X601Y1605D01*
X616Y1605D02*
X621Y1605D01*
X640Y1605D02*
X645Y1605D01*
X660Y1605D02*
X689Y1605D01*
X767Y1605D02*
X776Y1605D01*
X807Y1605D02*
X812Y1605D01*
X847Y1605D02*
X855Y1605D01*
X860Y1605D02*
X866Y1605D01*
X903Y1605D02*
X909Y1605D01*
X936Y1605D02*
X942Y1605D01*
X980Y1605D02*
X986Y1605D01*
X993Y1605D02*
X998Y1605D01*
X132Y1604D02*
X159Y1604D01*
X176Y1604D02*
X181Y1604D01*
X197Y1604D02*
X202Y1604D01*
X263Y1604D02*
X268Y1604D01*
X286Y1604D02*
X292Y1604D01*
X307Y1604D02*
X312Y1604D01*
X331Y1604D02*
X336Y1604D01*
X375Y1604D02*
X380Y1604D01*
X451Y1604D02*
X456Y1604D01*
X484Y1604D02*
X489Y1604D01*
X545Y1604D02*
X551Y1604D01*
X572Y1604D02*
X576Y1604D01*
X592Y1604D02*
X601Y1604D01*
X615Y1604D02*
X621Y1604D01*
X640Y1604D02*
X645Y1604D01*
X661Y1604D02*
X689Y1604D01*
X764Y1604D02*
X775Y1604D01*
X807Y1604D02*
X812Y1604D01*
X848Y1604D02*
X857Y1604D01*
X860Y1604D02*
X866Y1604D01*
X904Y1604D02*
X909Y1604D01*
X936Y1604D02*
X942Y1604D01*
X979Y1604D02*
X986Y1604D01*
X993Y1604D02*
X998Y1604D01*
X133Y1603D02*
X159Y1603D01*
X176Y1603D02*
X182Y1603D01*
X196Y1603D02*
X202Y1603D01*
X263Y1603D02*
X268Y1603D01*
X287Y1603D02*
X292Y1603D01*
X307Y1603D02*
X312Y1603D01*
X331Y1603D02*
X336Y1603D01*
X351Y1603D02*
X363Y1603D01*
X375Y1603D02*
X380Y1603D01*
X451Y1603D02*
X456Y1603D01*
X484Y1603D02*
X489Y1603D01*
X491Y1603D02*
X505Y1603D01*
X545Y1603D02*
X551Y1603D01*
X572Y1603D02*
X576Y1603D01*
X594Y1603D02*
X601Y1603D01*
X615Y1603D02*
X621Y1603D01*
X640Y1603D02*
X645Y1603D01*
X662Y1603D02*
X689Y1603D01*
X762Y1603D02*
X774Y1603D01*
X808Y1603D02*
X811Y1603D01*
X849Y1603D02*
X858Y1603D01*
X860Y1603D02*
X866Y1603D01*
X904Y1603D02*
X910Y1603D01*
X936Y1603D02*
X942Y1603D01*
X979Y1603D02*
X985Y1603D01*
X993Y1603D02*
X998Y1603D01*
X154Y1602D02*
X160Y1602D01*
X177Y1602D02*
X182Y1602D01*
X196Y1602D02*
X201Y1602D01*
X263Y1602D02*
X268Y1602D01*
X287Y1602D02*
X292Y1602D01*
X307Y1602D02*
X312Y1602D01*
X331Y1602D02*
X336Y1602D01*
X351Y1602D02*
X364Y1602D01*
X375Y1602D02*
X380Y1602D01*
X451Y1602D02*
X456Y1602D01*
X484Y1602D02*
X508Y1602D01*
X545Y1602D02*
X551Y1602D01*
X595Y1602D02*
X601Y1602D01*
X615Y1602D02*
X621Y1602D01*
X640Y1602D02*
X645Y1602D01*
X663Y1602D02*
X689Y1602D01*
X760Y1602D02*
X773Y1602D01*
X850Y1602D02*
X866Y1602D01*
X904Y1602D02*
X910Y1602D01*
X936Y1602D02*
X942Y1602D01*
X978Y1602D02*
X984Y1602D01*
X993Y1602D02*
X998Y1602D01*
X154Y1601D02*
X160Y1601D01*
X177Y1601D02*
X183Y1601D01*
X195Y1601D02*
X201Y1601D01*
X263Y1601D02*
X268Y1601D01*
X287Y1601D02*
X292Y1601D01*
X307Y1601D02*
X312Y1601D01*
X331Y1601D02*
X336Y1601D01*
X351Y1601D02*
X365Y1601D01*
X375Y1601D02*
X380Y1601D01*
X451Y1601D02*
X456Y1601D01*
X484Y1601D02*
X509Y1601D01*
X545Y1601D02*
X551Y1601D01*
X596Y1601D02*
X601Y1601D01*
X615Y1601D02*
X621Y1601D01*
X640Y1601D02*
X645Y1601D01*
X664Y1601D02*
X689Y1601D01*
X757Y1601D02*
X772Y1601D01*
X852Y1601D02*
X866Y1601D01*
X904Y1601D02*
X910Y1601D01*
X936Y1601D02*
X942Y1601D01*
X978Y1601D02*
X984Y1601D01*
X993Y1601D02*
X998Y1601D01*
X154Y1600D02*
X160Y1600D01*
X177Y1600D02*
X183Y1600D01*
X195Y1600D02*
X201Y1600D01*
X263Y1600D02*
X268Y1600D01*
X287Y1600D02*
X292Y1600D01*
X307Y1600D02*
X312Y1600D01*
X330Y1600D02*
X336Y1600D01*
X351Y1600D02*
X365Y1600D01*
X375Y1600D02*
X380Y1600D01*
X451Y1600D02*
X456Y1600D01*
X484Y1600D02*
X510Y1600D01*
X545Y1600D02*
X551Y1600D01*
X596Y1600D02*
X601Y1600D01*
X615Y1600D02*
X621Y1600D01*
X640Y1600D02*
X645Y1600D01*
X666Y1600D02*
X689Y1600D01*
X755Y1600D02*
X769Y1600D01*
X852Y1600D02*
X866Y1600D01*
X904Y1600D02*
X910Y1600D01*
X936Y1600D02*
X942Y1600D01*
X977Y1600D02*
X983Y1600D01*
X993Y1600D02*
X998Y1600D01*
X154Y1599D02*
X160Y1599D01*
X178Y1599D02*
X184Y1599D01*
X194Y1599D02*
X200Y1599D01*
X263Y1599D02*
X268Y1599D01*
X287Y1599D02*
X292Y1599D01*
X307Y1599D02*
X312Y1599D01*
X330Y1599D02*
X336Y1599D01*
X351Y1599D02*
X365Y1599D01*
X375Y1599D02*
X380Y1599D01*
X451Y1599D02*
X456Y1599D01*
X484Y1599D02*
X511Y1599D01*
X545Y1599D02*
X551Y1599D01*
X596Y1599D02*
X601Y1599D01*
X615Y1599D02*
X621Y1599D01*
X640Y1599D02*
X645Y1599D01*
X684Y1599D02*
X689Y1599D01*
X753Y1599D02*
X767Y1599D01*
X851Y1599D02*
X866Y1599D01*
X904Y1599D02*
X910Y1599D01*
X936Y1599D02*
X942Y1599D01*
X976Y1599D02*
X983Y1599D01*
X993Y1599D02*
X998Y1599D01*
X154Y1598D02*
X160Y1598D01*
X178Y1598D02*
X184Y1598D01*
X194Y1598D02*
X200Y1598D01*
X263Y1598D02*
X268Y1598D01*
X287Y1598D02*
X292Y1598D01*
X307Y1598D02*
X312Y1598D01*
X330Y1598D02*
X336Y1598D01*
X351Y1598D02*
X364Y1598D01*
X375Y1598D02*
X380Y1598D01*
X451Y1598D02*
X456Y1598D01*
X484Y1598D02*
X512Y1598D01*
X545Y1598D02*
X551Y1598D01*
X596Y1598D02*
X601Y1598D01*
X615Y1598D02*
X621Y1598D01*
X640Y1598D02*
X645Y1598D01*
X684Y1598D02*
X689Y1598D01*
X751Y1598D02*
X765Y1598D01*
X850Y1598D02*
X866Y1598D01*
X904Y1598D02*
X910Y1598D01*
X936Y1598D02*
X942Y1598D01*
X976Y1598D02*
X982Y1598D01*
X993Y1598D02*
X998Y1598D01*
X154Y1597D02*
X160Y1597D01*
X179Y1597D02*
X184Y1597D01*
X194Y1597D02*
X199Y1597D01*
X263Y1597D02*
X268Y1597D01*
X287Y1597D02*
X292Y1597D01*
X307Y1597D02*
X312Y1597D01*
X330Y1597D02*
X336Y1597D01*
X351Y1597D02*
X362Y1597D01*
X375Y1597D02*
X380Y1597D01*
X451Y1597D02*
X456Y1597D01*
X484Y1597D02*
X512Y1597D01*
X545Y1597D02*
X551Y1597D01*
X596Y1597D02*
X601Y1597D01*
X615Y1597D02*
X621Y1597D01*
X640Y1597D02*
X645Y1597D01*
X684Y1597D02*
X689Y1597D01*
X750Y1597D02*
X763Y1597D01*
X849Y1597D02*
X866Y1597D01*
X904Y1597D02*
X910Y1597D01*
X936Y1597D02*
X942Y1597D01*
X975Y1597D02*
X981Y1597D01*
X993Y1597D02*
X998Y1597D01*
X154Y1596D02*
X160Y1596D01*
X179Y1596D02*
X185Y1596D01*
X193Y1596D02*
X199Y1596D01*
X263Y1596D02*
X268Y1596D01*
X287Y1596D02*
X292Y1596D01*
X307Y1596D02*
X312Y1596D01*
X330Y1596D02*
X335Y1596D01*
X351Y1596D02*
X356Y1596D01*
X375Y1596D02*
X380Y1596D01*
X451Y1596D02*
X456Y1596D01*
X484Y1596D02*
X490Y1596D01*
X506Y1596D02*
X512Y1596D01*
X545Y1596D02*
X551Y1596D01*
X596Y1596D02*
X601Y1596D01*
X615Y1596D02*
X621Y1596D01*
X640Y1596D02*
X645Y1596D01*
X684Y1596D02*
X689Y1596D01*
X750Y1596D02*
X760Y1596D01*
X848Y1596D02*
X866Y1596D01*
X904Y1596D02*
X910Y1596D01*
X936Y1596D02*
X942Y1596D01*
X975Y1596D02*
X981Y1596D01*
X993Y1596D02*
X998Y1596D01*
X154Y1595D02*
X160Y1595D01*
X180Y1595D02*
X185Y1595D01*
X193Y1595D02*
X198Y1595D01*
X263Y1595D02*
X268Y1595D01*
X287Y1595D02*
X292Y1595D01*
X307Y1595D02*
X312Y1595D01*
X330Y1595D02*
X335Y1595D01*
X351Y1595D02*
X356Y1595D01*
X375Y1595D02*
X380Y1595D01*
X451Y1595D02*
X456Y1595D01*
X484Y1595D02*
X489Y1595D01*
X507Y1595D02*
X512Y1595D01*
X545Y1595D02*
X551Y1595D01*
X596Y1595D02*
X601Y1595D01*
X615Y1595D02*
X621Y1595D01*
X640Y1595D02*
X645Y1595D01*
X684Y1595D02*
X689Y1595D01*
X749Y1595D02*
X758Y1595D01*
X847Y1595D02*
X855Y1595D01*
X859Y1595D02*
X866Y1595D01*
X904Y1595D02*
X910Y1595D01*
X936Y1595D02*
X942Y1595D01*
X974Y1595D02*
X980Y1595D01*
X993Y1595D02*
X998Y1595D01*
X154Y1594D02*
X160Y1594D01*
X180Y1594D02*
X186Y1594D01*
X192Y1594D02*
X198Y1594D01*
X263Y1594D02*
X268Y1594D01*
X287Y1594D02*
X292Y1594D01*
X307Y1594D02*
X312Y1594D01*
X330Y1594D02*
X335Y1594D01*
X351Y1594D02*
X356Y1594D01*
X375Y1594D02*
X380Y1594D01*
X451Y1594D02*
X456Y1594D01*
X483Y1594D02*
X489Y1594D01*
X507Y1594D02*
X513Y1594D01*
X545Y1594D02*
X551Y1594D01*
X596Y1594D02*
X601Y1594D01*
X615Y1594D02*
X621Y1594D01*
X640Y1594D02*
X645Y1594D01*
X684Y1594D02*
X689Y1594D01*
X749Y1594D02*
X756Y1594D01*
X846Y1594D02*
X854Y1594D01*
X860Y1594D02*
X866Y1594D01*
X904Y1594D02*
X910Y1594D01*
X936Y1594D02*
X942Y1594D01*
X974Y1594D02*
X980Y1594D01*
X993Y1594D02*
X998Y1594D01*
X154Y1593D02*
X160Y1593D01*
X181Y1593D02*
X186Y1593D01*
X192Y1593D02*
X198Y1593D01*
X263Y1593D02*
X268Y1593D01*
X287Y1593D02*
X292Y1593D01*
X307Y1593D02*
X313Y1593D01*
X330Y1593D02*
X335Y1593D01*
X351Y1593D02*
X356Y1593D01*
X375Y1593D02*
X380Y1593D01*
X451Y1593D02*
X456Y1593D01*
X483Y1593D02*
X489Y1593D01*
X507Y1593D02*
X513Y1593D01*
X545Y1593D02*
X551Y1593D01*
X596Y1593D02*
X601Y1593D01*
X615Y1593D02*
X621Y1593D01*
X640Y1593D02*
X645Y1593D01*
X684Y1593D02*
X689Y1593D01*
X748Y1593D02*
X754Y1593D01*
X844Y1593D02*
X853Y1593D01*
X860Y1593D02*
X866Y1593D01*
X904Y1593D02*
X909Y1593D01*
X936Y1593D02*
X942Y1593D01*
X973Y1593D02*
X979Y1593D01*
X993Y1593D02*
X998Y1593D01*
X154Y1592D02*
X160Y1592D01*
X181Y1592D02*
X187Y1592D01*
X191Y1592D02*
X197Y1592D01*
X263Y1592D02*
X268Y1592D01*
X287Y1592D02*
X292Y1592D01*
X307Y1592D02*
X315Y1592D01*
X330Y1592D02*
X335Y1592D01*
X351Y1592D02*
X356Y1592D01*
X375Y1592D02*
X380Y1592D01*
X451Y1592D02*
X456Y1592D01*
X483Y1592D02*
X489Y1592D01*
X507Y1592D02*
X513Y1592D01*
X528Y1592D02*
X531Y1592D01*
X545Y1592D02*
X551Y1592D01*
X596Y1592D02*
X601Y1592D01*
X616Y1592D02*
X621Y1592D01*
X640Y1592D02*
X645Y1592D01*
X684Y1592D02*
X689Y1592D01*
X748Y1592D02*
X753Y1592D01*
X843Y1592D02*
X852Y1592D01*
X860Y1592D02*
X866Y1592D01*
X903Y1592D02*
X909Y1592D01*
X936Y1592D02*
X942Y1592D01*
X972Y1592D02*
X979Y1592D01*
X993Y1592D02*
X998Y1592D01*
X154Y1591D02*
X160Y1591D01*
X181Y1591D02*
X187Y1591D01*
X191Y1591D02*
X197Y1591D01*
X263Y1591D02*
X268Y1591D01*
X287Y1591D02*
X292Y1591D01*
X307Y1591D02*
X316Y1591D01*
X330Y1591D02*
X335Y1591D01*
X351Y1591D02*
X356Y1591D01*
X375Y1591D02*
X380Y1591D01*
X451Y1591D02*
X456Y1591D01*
X483Y1591D02*
X489Y1591D01*
X507Y1591D02*
X513Y1591D01*
X528Y1591D02*
X532Y1591D01*
X545Y1591D02*
X551Y1591D01*
X596Y1591D02*
X601Y1591D01*
X616Y1591D02*
X621Y1591D01*
X639Y1591D02*
X645Y1591D01*
X684Y1591D02*
X689Y1591D01*
X748Y1591D02*
X753Y1591D01*
X842Y1591D02*
X851Y1591D01*
X860Y1591D02*
X866Y1591D01*
X901Y1591D02*
X909Y1591D01*
X936Y1591D02*
X942Y1591D01*
X972Y1591D02*
X978Y1591D01*
X993Y1591D02*
X998Y1591D01*
X154Y1590D02*
X160Y1590D01*
X182Y1590D02*
X188Y1590D01*
X191Y1590D02*
X196Y1590D01*
X263Y1590D02*
X268Y1590D01*
X287Y1590D02*
X292Y1590D01*
X307Y1590D02*
X318Y1590D01*
X330Y1590D02*
X335Y1590D01*
X351Y1590D02*
X356Y1590D01*
X375Y1590D02*
X380Y1590D01*
X451Y1590D02*
X456Y1590D01*
X483Y1590D02*
X491Y1590D01*
X507Y1590D02*
X512Y1590D01*
X527Y1590D02*
X532Y1590D01*
X545Y1590D02*
X551Y1590D01*
X596Y1590D02*
X601Y1590D01*
X616Y1590D02*
X622Y1590D01*
X639Y1590D02*
X645Y1590D01*
X684Y1590D02*
X689Y1590D01*
X748Y1590D02*
X753Y1590D01*
X775Y1590D02*
X775Y1590D01*
X841Y1590D02*
X849Y1590D01*
X860Y1590D02*
X866Y1590D01*
X900Y1590D02*
X908Y1590D01*
X936Y1590D02*
X942Y1590D01*
X971Y1590D02*
X977Y1590D01*
X993Y1590D02*
X998Y1590D01*
X154Y1589D02*
X160Y1589D01*
X182Y1589D02*
X188Y1589D01*
X190Y1589D02*
X196Y1589D01*
X263Y1589D02*
X268Y1589D01*
X287Y1589D02*
X292Y1589D01*
X307Y1589D02*
X320Y1589D01*
X330Y1589D02*
X335Y1589D01*
X351Y1589D02*
X357Y1589D01*
X374Y1589D02*
X380Y1589D01*
X451Y1589D02*
X456Y1589D01*
X483Y1589D02*
X493Y1589D01*
X507Y1589D02*
X512Y1589D01*
X527Y1589D02*
X533Y1589D01*
X545Y1589D02*
X550Y1589D01*
X596Y1589D02*
X601Y1589D01*
X616Y1589D02*
X623Y1589D01*
X637Y1589D02*
X644Y1589D01*
X684Y1589D02*
X689Y1589D01*
X748Y1589D02*
X754Y1589D01*
X773Y1589D02*
X777Y1589D01*
X840Y1589D02*
X848Y1589D01*
X860Y1589D02*
X866Y1589D01*
X899Y1589D02*
X907Y1589D01*
X936Y1589D02*
X942Y1589D01*
X971Y1589D02*
X977Y1589D01*
X993Y1589D02*
X998Y1589D01*
X154Y1588D02*
X160Y1588D01*
X183Y1588D02*
X195Y1588D01*
X263Y1588D02*
X268Y1588D01*
X287Y1588D02*
X292Y1588D01*
X307Y1588D02*
X321Y1588D01*
X329Y1588D02*
X335Y1588D01*
X351Y1588D02*
X358Y1588D01*
X373Y1588D02*
X380Y1588D01*
X451Y1588D02*
X456Y1588D01*
X483Y1588D02*
X494Y1588D01*
X506Y1588D02*
X512Y1588D01*
X528Y1588D02*
X534Y1588D01*
X544Y1588D02*
X550Y1588D01*
X596Y1588D02*
X601Y1588D01*
X617Y1588D02*
X624Y1588D01*
X636Y1588D02*
X644Y1588D01*
X684Y1588D02*
X689Y1588D01*
X748Y1588D02*
X755Y1588D01*
X771Y1588D02*
X777Y1588D01*
X839Y1588D02*
X847Y1588D01*
X860Y1588D02*
X866Y1588D01*
X898Y1588D02*
X906Y1588D01*
X936Y1588D02*
X942Y1588D01*
X970Y1588D02*
X976Y1588D01*
X993Y1588D02*
X998Y1588D01*
X132Y1587D02*
X160Y1587D01*
X183Y1587D02*
X195Y1587D01*
X263Y1587D02*
X268Y1587D01*
X287Y1587D02*
X292Y1587D01*
X307Y1587D02*
X335Y1587D01*
X352Y1587D02*
X379Y1587D01*
X443Y1587D02*
X464Y1587D01*
X483Y1587D02*
X512Y1587D01*
X528Y1587D02*
X550Y1587D01*
X596Y1587D02*
X601Y1587D01*
X617Y1587D02*
X643Y1587D01*
X684Y1587D02*
X689Y1587D01*
X749Y1587D02*
X777Y1587D01*
X837Y1587D02*
X846Y1587D01*
X860Y1587D02*
X866Y1587D01*
X882Y1587D02*
X905Y1587D01*
X929Y1587D02*
X949Y1587D01*
X969Y1587D02*
X976Y1587D01*
X993Y1587D02*
X998Y1587D01*
X131Y1586D02*
X160Y1586D01*
X184Y1586D02*
X194Y1586D01*
X263Y1586D02*
X268Y1586D01*
X287Y1586D02*
X292Y1586D01*
X307Y1586D02*
X312Y1586D01*
X314Y1586D02*
X334Y1586D01*
X352Y1586D02*
X379Y1586D01*
X443Y1586D02*
X465Y1586D01*
X483Y1586D02*
X511Y1586D01*
X529Y1586D02*
X549Y1586D01*
X596Y1586D02*
X601Y1586D01*
X618Y1586D02*
X642Y1586D01*
X684Y1586D02*
X689Y1586D01*
X749Y1586D02*
X777Y1586D01*
X837Y1586D02*
X845Y1586D01*
X860Y1586D02*
X866Y1586D01*
X881Y1586D02*
X904Y1586D01*
X928Y1586D02*
X950Y1586D01*
X969Y1586D02*
X975Y1586D01*
X993Y1586D02*
X998Y1586D01*
X130Y1585D02*
X160Y1585D01*
X184Y1585D02*
X194Y1585D01*
X263Y1585D02*
X268Y1585D01*
X287Y1585D02*
X292Y1585D01*
X307Y1585D02*
X312Y1585D01*
X315Y1585D02*
X333Y1585D01*
X353Y1585D02*
X378Y1585D01*
X442Y1585D02*
X465Y1585D01*
X483Y1585D02*
X511Y1585D01*
X529Y1585D02*
X549Y1585D01*
X596Y1585D02*
X601Y1585D01*
X619Y1585D02*
X641Y1585D01*
X684Y1585D02*
X689Y1585D01*
X750Y1585D02*
X776Y1585D01*
X836Y1585D02*
X844Y1585D01*
X860Y1585D02*
X866Y1585D01*
X880Y1585D02*
X903Y1585D01*
X928Y1585D02*
X951Y1585D01*
X969Y1585D02*
X974Y1585D01*
X993Y1585D02*
X998Y1585D01*
X130Y1584D02*
X160Y1584D01*
X184Y1584D02*
X194Y1584D01*
X263Y1584D02*
X268Y1584D01*
X287Y1584D02*
X292Y1584D01*
X307Y1584D02*
X312Y1584D01*
X317Y1584D02*
X332Y1584D01*
X354Y1584D02*
X377Y1584D01*
X442Y1584D02*
X465Y1584D01*
X483Y1584D02*
X488Y1584D01*
X490Y1584D02*
X510Y1584D01*
X530Y1584D02*
X548Y1584D01*
X596Y1584D02*
X601Y1584D01*
X621Y1584D02*
X640Y1584D01*
X684Y1584D02*
X689Y1584D01*
X751Y1584D02*
X775Y1584D01*
X836Y1584D02*
X842Y1584D01*
X860Y1584D02*
X865Y1584D01*
X880Y1584D02*
X902Y1584D01*
X928Y1584D02*
X951Y1584D01*
X969Y1584D02*
X974Y1584D01*
X993Y1584D02*
X998Y1584D01*
X131Y1583D02*
X160Y1583D01*
X185Y1583D02*
X193Y1583D01*
X263Y1583D02*
X267Y1583D01*
X287Y1583D02*
X291Y1583D01*
X307Y1583D02*
X311Y1583D01*
X319Y1583D02*
X331Y1583D01*
X355Y1583D02*
X376Y1583D01*
X443Y1583D02*
X465Y1583D01*
X484Y1583D02*
X488Y1583D01*
X492Y1583D02*
X508Y1583D01*
X531Y1583D02*
X547Y1583D01*
X596Y1583D02*
X600Y1583D01*
X622Y1583D02*
X639Y1583D01*
X684Y1583D02*
X689Y1583D01*
X752Y1583D02*
X774Y1583D01*
X837Y1583D02*
X841Y1583D01*
X861Y1583D02*
X865Y1583D01*
X881Y1583D02*
X900Y1583D01*
X928Y1583D02*
X950Y1583D01*
X969Y1583D02*
X973Y1583D01*
X993Y1583D02*
X997Y1583D01*
X132Y1582D02*
X160Y1582D01*
X186Y1582D02*
X192Y1582D01*
X264Y1582D02*
X266Y1582D01*
X288Y1582D02*
X291Y1582D01*
X308Y1582D02*
X310Y1582D01*
X321Y1582D02*
X329Y1582D01*
X357Y1582D02*
X374Y1582D01*
X443Y1582D02*
X464Y1582D01*
X485Y1582D02*
X487Y1582D01*
X494Y1582D02*
X507Y1582D01*
X533Y1582D02*
X545Y1582D01*
X597Y1582D02*
X599Y1582D01*
X624Y1582D02*
X637Y1582D01*
X685Y1582D02*
X688Y1582D01*
X754Y1582D02*
X771Y1582D01*
X837Y1582D02*
X840Y1582D01*
X862Y1582D02*
X864Y1582D01*
X882Y1582D02*
X899Y1582D01*
X929Y1582D02*
X949Y1582D01*
X970Y1582D02*
X972Y1582D01*
X994Y1582D02*
X997Y1582D01*
X419Y270D02*
X459Y270D01*
X656Y270D02*
X671Y270D01*
X748Y270D02*
X748Y270D01*
X820Y270D02*
X820Y270D01*
X925Y270D02*
X941Y270D01*
X417Y269D02*
X461Y269D01*
X653Y269D02*
X673Y269D01*
X745Y269D02*
X750Y269D01*
X818Y269D02*
X823Y269D01*
X922Y269D02*
X945Y269D01*
X416Y268D02*
X462Y268D01*
X652Y268D02*
X674Y268D01*
X744Y268D02*
X751Y268D01*
X817Y268D02*
X824Y268D01*
X921Y268D02*
X947Y268D01*
X415Y267D02*
X463Y267D01*
X652Y267D02*
X675Y267D01*
X744Y267D02*
X752Y267D01*
X816Y267D02*
X824Y267D01*
X921Y267D02*
X949Y267D01*
X415Y266D02*
X463Y266D01*
X651Y266D02*
X675Y266D01*
X743Y266D02*
X752Y266D01*
X816Y266D02*
X824Y266D01*
X921Y266D02*
X950Y266D01*
X415Y265D02*
X463Y265D01*
X651Y265D02*
X675Y265D01*
X743Y265D02*
X752Y265D01*
X816Y265D02*
X825Y265D01*
X920Y265D02*
X951Y265D01*
X415Y264D02*
X463Y264D01*
X651Y264D02*
X675Y264D01*
X743Y264D02*
X752Y264D01*
X816Y264D02*
X825Y264D01*
X921Y264D02*
X952Y264D01*
X415Y263D02*
X463Y263D01*
X651Y263D02*
X675Y263D01*
X743Y263D02*
X752Y263D01*
X816Y263D02*
X825Y263D01*
X921Y263D02*
X952Y263D01*
X416Y262D02*
X462Y262D01*
X651Y262D02*
X674Y262D01*
X743Y262D02*
X752Y262D01*
X816Y262D02*
X825Y262D01*
X922Y262D02*
X953Y262D01*
X417Y261D02*
X461Y261D01*
X651Y261D02*
X673Y261D01*
X743Y261D02*
X752Y261D01*
X816Y261D02*
X825Y261D01*
X923Y261D02*
X954Y261D01*
X434Y260D02*
X444Y260D01*
X651Y260D02*
X661Y260D01*
X743Y260D02*
X752Y260D01*
X816Y260D02*
X825Y260D01*
X941Y260D02*
X955Y260D01*
X434Y259D02*
X444Y259D01*
X651Y259D02*
X660Y259D01*
X743Y259D02*
X752Y259D01*
X816Y259D02*
X825Y259D01*
X943Y259D02*
X955Y259D01*
X434Y258D02*
X444Y258D01*
X651Y258D02*
X660Y258D01*
X743Y258D02*
X752Y258D01*
X816Y258D02*
X825Y258D01*
X944Y258D02*
X956Y258D01*
X434Y257D02*
X444Y257D01*
X651Y257D02*
X660Y257D01*
X743Y257D02*
X752Y257D01*
X816Y257D02*
X825Y257D01*
X945Y257D02*
X957Y257D01*
X434Y256D02*
X444Y256D01*
X651Y256D02*
X660Y256D01*
X743Y256D02*
X752Y256D01*
X816Y256D02*
X825Y256D01*
X946Y256D02*
X958Y256D01*
X434Y255D02*
X444Y255D01*
X651Y255D02*
X660Y255D01*
X743Y255D02*
X752Y255D01*
X816Y255D02*
X825Y255D01*
X947Y255D02*
X959Y255D01*
X434Y254D02*
X444Y254D01*
X651Y254D02*
X660Y254D01*
X743Y254D02*
X752Y254D01*
X816Y254D02*
X825Y254D01*
X947Y254D02*
X959Y254D01*
X434Y253D02*
X444Y253D01*
X651Y253D02*
X660Y253D01*
X743Y253D02*
X752Y253D01*
X816Y253D02*
X825Y253D01*
X948Y253D02*
X960Y253D01*
X434Y252D02*
X444Y252D01*
X651Y252D02*
X660Y252D01*
X743Y252D02*
X752Y252D01*
X816Y252D02*
X825Y252D01*
X949Y252D02*
X961Y252D01*
X434Y251D02*
X444Y251D01*
X651Y251D02*
X660Y251D01*
X743Y251D02*
X752Y251D01*
X816Y251D02*
X825Y251D01*
X950Y251D02*
X962Y251D01*
X434Y250D02*
X444Y250D01*
X651Y250D02*
X660Y250D01*
X743Y250D02*
X752Y250D01*
X816Y250D02*
X825Y250D01*
X951Y250D02*
X962Y250D01*
X434Y249D02*
X444Y249D01*
X651Y249D02*
X660Y249D01*
X743Y249D02*
X752Y249D01*
X816Y249D02*
X825Y249D01*
X951Y249D02*
X963Y249D01*
X272Y248D02*
X300Y248D01*
X353Y248D02*
X368Y248D01*
X384Y248D02*
X389Y248D01*
X434Y248D02*
X444Y248D01*
X572Y248D02*
X595Y248D01*
X651Y248D02*
X660Y248D01*
X711Y248D02*
X715Y248D01*
X743Y248D02*
X752Y248D01*
X783Y248D02*
X788Y248D01*
X816Y248D02*
X825Y248D01*
X859Y248D02*
X885Y248D01*
X952Y248D02*
X964Y248D01*
X271Y247D02*
X303Y247D01*
X351Y247D02*
X371Y247D01*
X383Y247D02*
X390Y247D01*
X434Y247D02*
X444Y247D01*
X570Y247D02*
X597Y247D01*
X651Y247D02*
X660Y247D01*
X710Y247D02*
X717Y247D01*
X743Y247D02*
X752Y247D01*
X782Y247D02*
X789Y247D01*
X816Y247D02*
X825Y247D01*
X857Y247D02*
X886Y247D01*
X953Y247D02*
X965Y247D01*
X271Y246D02*
X304Y246D01*
X350Y246D02*
X372Y246D01*
X383Y246D02*
X391Y246D01*
X434Y246D02*
X444Y246D01*
X569Y246D02*
X598Y246D01*
X651Y246D02*
X660Y246D01*
X709Y246D02*
X718Y246D01*
X743Y246D02*
X752Y246D01*
X781Y246D02*
X790Y246D01*
X816Y246D02*
X825Y246D01*
X856Y246D02*
X886Y246D01*
X954Y246D02*
X965Y246D01*
X270Y245D02*
X306Y245D01*
X349Y245D02*
X374Y245D01*
X382Y245D02*
X391Y245D01*
X434Y245D02*
X444Y245D01*
X568Y245D02*
X599Y245D01*
X651Y245D02*
X660Y245D01*
X709Y245D02*
X719Y245D01*
X743Y245D02*
X752Y245D01*
X781Y245D02*
X791Y245D01*
X816Y245D02*
X825Y245D01*
X854Y245D02*
X887Y245D01*
X955Y245D02*
X966Y245D01*
X270Y244D02*
X307Y244D01*
X348Y244D02*
X375Y244D01*
X382Y244D02*
X391Y244D01*
X434Y244D02*
X444Y244D01*
X566Y244D02*
X601Y244D01*
X651Y244D02*
X660Y244D01*
X709Y244D02*
X720Y244D01*
X743Y244D02*
X752Y244D01*
X781Y244D02*
X793Y244D01*
X816Y244D02*
X825Y244D01*
X853Y244D02*
X887Y244D01*
X955Y244D02*
X967Y244D01*
X270Y243D02*
X308Y243D01*
X347Y243D02*
X377Y243D01*
X382Y243D02*
X391Y243D01*
X434Y243D02*
X444Y243D01*
X565Y243D02*
X602Y243D01*
X651Y243D02*
X660Y243D01*
X709Y243D02*
X721Y243D01*
X743Y243D02*
X752Y243D01*
X781Y243D02*
X794Y243D01*
X816Y243D02*
X825Y243D01*
X852Y243D02*
X887Y243D01*
X956Y243D02*
X967Y243D01*
X270Y242D02*
X309Y242D01*
X346Y242D02*
X379Y242D01*
X382Y242D02*
X391Y242D01*
X434Y242D02*
X444Y242D01*
X564Y242D02*
X603Y242D01*
X651Y242D02*
X660Y242D01*
X709Y242D02*
X723Y242D01*
X743Y242D02*
X752Y242D01*
X781Y242D02*
X795Y242D01*
X816Y242D02*
X825Y242D01*
X852Y242D02*
X887Y242D01*
X957Y242D02*
X968Y242D01*
X271Y241D02*
X310Y241D01*
X345Y241D02*
X380Y241D01*
X382Y241D02*
X391Y241D01*
X434Y241D02*
X444Y241D01*
X563Y241D02*
X604Y241D01*
X651Y241D02*
X660Y241D01*
X710Y241D02*
X724Y241D01*
X743Y241D02*
X752Y241D01*
X782Y241D02*
X796Y241D01*
X816Y241D02*
X825Y241D01*
X851Y241D02*
X886Y241D01*
X958Y241D02*
X968Y241D01*
X272Y240D02*
X311Y240D01*
X345Y240D02*
X391Y240D01*
X434Y240D02*
X444Y240D01*
X562Y240D02*
X605Y240D01*
X651Y240D02*
X660Y240D01*
X710Y240D02*
X725Y240D01*
X743Y240D02*
X752Y240D01*
X783Y240D02*
X797Y240D01*
X816Y240D02*
X825Y240D01*
X851Y240D02*
X885Y240D01*
X958Y240D02*
X968Y240D01*
X274Y239D02*
X312Y239D01*
X345Y239D02*
X391Y239D01*
X434Y239D02*
X444Y239D01*
X562Y239D02*
X605Y239D01*
X651Y239D02*
X660Y239D01*
X712Y239D02*
X726Y239D01*
X743Y239D02*
X752Y239D01*
X784Y239D02*
X798Y239D01*
X816Y239D02*
X825Y239D01*
X850Y239D02*
X883Y239D01*
X959Y239D02*
X969Y239D01*
X299Y238D02*
X314Y238D01*
X344Y238D02*
X355Y238D01*
X367Y238D02*
X391Y238D01*
X434Y238D02*
X444Y238D01*
X561Y238D02*
X574Y238D01*
X593Y238D02*
X606Y238D01*
X651Y238D02*
X660Y238D01*
X713Y238D02*
X727Y238D01*
X743Y238D02*
X752Y238D01*
X785Y238D02*
X800Y238D01*
X816Y238D02*
X825Y238D01*
X850Y238D02*
X860Y238D01*
X959Y238D02*
X969Y238D01*
X300Y237D02*
X315Y237D01*
X344Y237D02*
X354Y237D01*
X369Y237D02*
X391Y237D01*
X434Y237D02*
X444Y237D01*
X560Y237D02*
X572Y237D01*
X594Y237D02*
X606Y237D01*
X651Y237D02*
X660Y237D01*
X714Y237D02*
X728Y237D01*
X743Y237D02*
X752Y237D01*
X786Y237D02*
X801Y237D01*
X816Y237D02*
X825Y237D01*
X850Y237D02*
X860Y237D01*
X960Y237D02*
X969Y237D01*
X301Y236D02*
X315Y236D01*
X344Y236D02*
X353Y236D01*
X370Y236D02*
X391Y236D01*
X434Y236D02*
X444Y236D01*
X560Y236D02*
X571Y236D01*
X596Y236D02*
X607Y236D01*
X651Y236D02*
X660Y236D01*
X715Y236D02*
X730Y236D01*
X743Y236D02*
X752Y236D01*
X787Y236D02*
X802Y236D01*
X816Y236D02*
X825Y236D01*
X850Y236D02*
X859Y236D01*
X960Y236D02*
X969Y236D01*
X303Y235D02*
X316Y235D01*
X344Y235D02*
X353Y235D01*
X372Y235D02*
X391Y235D01*
X434Y235D02*
X444Y235D01*
X560Y235D02*
X570Y235D01*
X597Y235D02*
X607Y235D01*
X651Y235D02*
X660Y235D01*
X716Y235D02*
X731Y235D01*
X743Y235D02*
X752Y235D01*
X789Y235D02*
X803Y235D01*
X816Y235D02*
X825Y235D01*
X849Y235D02*
X859Y235D01*
X960Y235D02*
X969Y235D01*
X304Y234D02*
X317Y234D01*
X344Y234D02*
X353Y234D01*
X373Y234D02*
X391Y234D01*
X434Y234D02*
X444Y234D01*
X559Y234D02*
X569Y234D01*
X597Y234D02*
X607Y234D01*
X651Y234D02*
X660Y234D01*
X717Y234D02*
X732Y234D01*
X743Y234D02*
X752Y234D01*
X790Y234D02*
X804Y234D01*
X816Y234D02*
X825Y234D01*
X849Y234D02*
X859Y234D01*
X960Y234D02*
X969Y234D01*
X305Y233D02*
X317Y233D01*
X344Y233D02*
X353Y233D01*
X375Y233D02*
X391Y233D01*
X434Y233D02*
X444Y233D01*
X559Y233D02*
X569Y233D01*
X598Y233D02*
X608Y233D01*
X651Y233D02*
X660Y233D01*
X719Y233D02*
X733Y233D01*
X743Y233D02*
X752Y233D01*
X791Y233D02*
X805Y233D01*
X816Y233D02*
X825Y233D01*
X849Y233D02*
X859Y233D01*
X960Y233D02*
X969Y233D01*
X306Y232D02*
X318Y232D01*
X344Y232D02*
X353Y232D01*
X376Y232D02*
X391Y232D01*
X434Y232D02*
X444Y232D01*
X559Y232D02*
X568Y232D01*
X599Y232D02*
X608Y232D01*
X651Y232D02*
X660Y232D01*
X720Y232D02*
X734Y232D01*
X743Y232D02*
X752Y232D01*
X792Y232D02*
X807Y232D01*
X816Y232D02*
X825Y232D01*
X849Y232D02*
X858Y232D01*
X960Y232D02*
X969Y232D01*
X307Y231D02*
X318Y231D01*
X343Y231D02*
X353Y231D01*
X378Y231D02*
X391Y231D01*
X434Y231D02*
X444Y231D01*
X559Y231D02*
X568Y231D01*
X599Y231D02*
X608Y231D01*
X651Y231D02*
X660Y231D01*
X721Y231D02*
X736Y231D01*
X743Y231D02*
X752Y231D01*
X793Y231D02*
X808Y231D01*
X816Y231D02*
X825Y231D01*
X849Y231D02*
X858Y231D01*
X960Y231D02*
X969Y231D01*
X308Y230D02*
X318Y230D01*
X343Y230D02*
X353Y230D01*
X379Y230D02*
X391Y230D01*
X434Y230D02*
X444Y230D01*
X559Y230D02*
X568Y230D01*
X599Y230D02*
X608Y230D01*
X651Y230D02*
X660Y230D01*
X722Y230D02*
X737Y230D01*
X743Y230D02*
X752Y230D01*
X794Y230D02*
X809Y230D01*
X816Y230D02*
X825Y230D01*
X849Y230D02*
X858Y230D01*
X960Y230D02*
X969Y230D01*
X309Y229D02*
X319Y229D01*
X343Y229D02*
X353Y229D01*
X381Y229D02*
X391Y229D01*
X434Y229D02*
X444Y229D01*
X559Y229D02*
X568Y229D01*
X599Y229D02*
X608Y229D01*
X651Y229D02*
X660Y229D01*
X723Y229D02*
X738Y229D01*
X743Y229D02*
X752Y229D01*
X796Y229D02*
X810Y229D01*
X816Y229D02*
X825Y229D01*
X849Y229D02*
X858Y229D01*
X960Y229D02*
X969Y229D01*
X310Y228D02*
X319Y228D01*
X343Y228D02*
X352Y228D01*
X382Y228D02*
X391Y228D01*
X434Y228D02*
X444Y228D01*
X559Y228D02*
X568Y228D01*
X599Y228D02*
X608Y228D01*
X651Y228D02*
X660Y228D01*
X724Y228D02*
X739Y228D01*
X743Y228D02*
X752Y228D01*
X797Y228D02*
X811Y228D01*
X816Y228D02*
X825Y228D01*
X849Y228D02*
X858Y228D01*
X960Y228D02*
X969Y228D01*
X310Y227D02*
X319Y227D01*
X343Y227D02*
X352Y227D01*
X382Y227D02*
X391Y227D01*
X434Y227D02*
X444Y227D01*
X559Y227D02*
X568Y227D01*
X599Y227D02*
X608Y227D01*
X651Y227D02*
X660Y227D01*
X726Y227D02*
X740Y227D01*
X743Y227D02*
X752Y227D01*
X798Y227D02*
X812Y227D01*
X816Y227D02*
X825Y227D01*
X849Y227D02*
X887Y227D01*
X920Y227D02*
X942Y227D01*
X960Y227D02*
X969Y227D01*
X310Y226D02*
X319Y226D01*
X343Y226D02*
X352Y226D01*
X382Y226D02*
X391Y226D01*
X434Y226D02*
X444Y226D01*
X559Y226D02*
X568Y226D01*
X599Y226D02*
X608Y226D01*
X651Y226D02*
X660Y226D01*
X727Y226D02*
X741Y226D01*
X743Y226D02*
X752Y226D01*
X799Y226D02*
X825Y226D01*
X849Y226D02*
X889Y226D01*
X920Y226D02*
X943Y226D01*
X960Y226D02*
X969Y226D01*
X310Y225D02*
X319Y225D01*
X343Y225D02*
X352Y225D01*
X382Y225D02*
X391Y225D01*
X434Y225D02*
X444Y225D01*
X559Y225D02*
X568Y225D01*
X599Y225D02*
X608Y225D01*
X651Y225D02*
X660Y225D01*
X728Y225D02*
X752Y225D01*
X800Y225D02*
X825Y225D01*
X849Y225D02*
X890Y225D01*
X920Y225D02*
X944Y225D01*
X960Y225D02*
X969Y225D01*
X310Y224D02*
X319Y224D01*
X343Y224D02*
X352Y224D01*
X382Y224D02*
X391Y224D01*
X434Y224D02*
X444Y224D01*
X559Y224D02*
X568Y224D01*
X599Y224D02*
X608Y224D01*
X651Y224D02*
X660Y224D01*
X729Y224D02*
X752Y224D01*
X801Y224D02*
X825Y224D01*
X849Y224D02*
X892Y224D01*
X920Y224D02*
X944Y224D01*
X960Y224D02*
X969Y224D01*
X310Y223D02*
X319Y223D01*
X343Y223D02*
X352Y223D01*
X382Y223D02*
X391Y223D01*
X434Y223D02*
X444Y223D01*
X559Y223D02*
X608Y223D01*
X651Y223D02*
X660Y223D01*
X730Y223D02*
X752Y223D01*
X802Y223D02*
X825Y223D01*
X849Y223D02*
X893Y223D01*
X920Y223D02*
X944Y223D01*
X960Y223D02*
X969Y223D01*
X310Y222D02*
X319Y222D01*
X343Y222D02*
X352Y222D01*
X382Y222D02*
X391Y222D01*
X434Y222D02*
X444Y222D01*
X559Y222D02*
X608Y222D01*
X651Y222D02*
X660Y222D01*
X730Y222D02*
X752Y222D01*
X802Y222D02*
X825Y222D01*
X849Y222D02*
X894Y222D01*
X920Y222D02*
X944Y222D01*
X960Y222D02*
X969Y222D01*
X310Y221D02*
X319Y221D01*
X343Y221D02*
X352Y221D01*
X382Y221D02*
X391Y221D01*
X434Y221D02*
X444Y221D01*
X559Y221D02*
X608Y221D01*
X651Y221D02*
X660Y221D01*
X729Y221D02*
X752Y221D01*
X801Y221D02*
X825Y221D01*
X849Y221D02*
X894Y221D01*
X920Y221D02*
X944Y221D01*
X960Y221D02*
X969Y221D01*
X310Y220D02*
X319Y220D01*
X343Y220D02*
X352Y220D01*
X382Y220D02*
X391Y220D01*
X434Y220D02*
X444Y220D01*
X559Y220D02*
X608Y220D01*
X651Y220D02*
X660Y220D01*
X728Y220D02*
X752Y220D01*
X800Y220D02*
X825Y220D01*
X849Y220D02*
X895Y220D01*
X920Y220D02*
X943Y220D01*
X960Y220D02*
X969Y220D01*
X310Y219D02*
X319Y219D01*
X343Y219D02*
X352Y219D01*
X382Y219D02*
X391Y219D01*
X434Y219D02*
X444Y219D01*
X559Y219D02*
X608Y219D01*
X651Y219D02*
X660Y219D01*
X726Y219D02*
X752Y219D01*
X799Y219D02*
X825Y219D01*
X849Y219D02*
X895Y219D01*
X920Y219D02*
X943Y219D01*
X960Y219D02*
X969Y219D01*
X310Y218D02*
X319Y218D01*
X343Y218D02*
X352Y218D01*
X382Y218D02*
X391Y218D01*
X434Y218D02*
X444Y218D01*
X559Y218D02*
X608Y218D01*
X651Y218D02*
X660Y218D01*
X725Y218D02*
X752Y218D01*
X797Y218D02*
X825Y218D01*
X849Y218D02*
X896Y218D01*
X920Y218D02*
X941Y218D01*
X960Y218D02*
X969Y218D01*
X310Y217D02*
X319Y217D01*
X343Y217D02*
X352Y217D01*
X382Y217D02*
X391Y217D01*
X434Y217D02*
X444Y217D01*
X559Y217D02*
X608Y217D01*
X651Y217D02*
X660Y217D01*
X724Y217D02*
X752Y217D01*
X796Y217D02*
X825Y217D01*
X849Y217D02*
X861Y217D01*
X885Y217D02*
X896Y217D01*
X920Y217D02*
X929Y217D01*
X960Y217D02*
X969Y217D01*
X310Y216D02*
X319Y216D01*
X343Y216D02*
X352Y216D01*
X382Y216D02*
X391Y216D01*
X434Y216D02*
X444Y216D01*
X560Y216D02*
X608Y216D01*
X651Y216D02*
X660Y216D01*
X723Y216D02*
X752Y216D01*
X795Y216D02*
X825Y216D01*
X849Y216D02*
X859Y216D01*
X886Y216D02*
X897Y216D01*
X920Y216D02*
X929Y216D01*
X960Y216D02*
X969Y216D01*
X310Y215D02*
X319Y215D01*
X343Y215D02*
X352Y215D01*
X382Y215D02*
X391Y215D01*
X434Y215D02*
X444Y215D01*
X561Y215D02*
X608Y215D01*
X651Y215D02*
X660Y215D01*
X722Y215D02*
X736Y215D01*
X740Y215D02*
X752Y215D01*
X794Y215D02*
X808Y215D01*
X812Y215D02*
X825Y215D01*
X849Y215D02*
X858Y215D01*
X887Y215D02*
X897Y215D01*
X920Y215D02*
X929Y215D01*
X960Y215D02*
X969Y215D01*
X310Y214D02*
X319Y214D01*
X343Y214D02*
X352Y214D01*
X382Y214D02*
X391Y214D01*
X434Y214D02*
X444Y214D01*
X562Y214D02*
X608Y214D01*
X651Y214D02*
X660Y214D01*
X721Y214D02*
X735Y214D01*
X741Y214D02*
X752Y214D01*
X793Y214D02*
X807Y214D01*
X813Y214D02*
X825Y214D01*
X849Y214D02*
X858Y214D01*
X888Y214D02*
X897Y214D01*
X920Y214D02*
X929Y214D01*
X960Y214D02*
X969Y214D01*
X309Y213D02*
X319Y213D01*
X343Y213D02*
X352Y213D01*
X382Y213D02*
X391Y213D01*
X434Y213D02*
X444Y213D01*
X599Y213D02*
X608Y213D01*
X651Y213D02*
X660Y213D01*
X719Y213D02*
X734Y213D01*
X742Y213D02*
X752Y213D01*
X792Y213D02*
X806Y213D01*
X814Y213D02*
X825Y213D01*
X849Y213D02*
X858Y213D01*
X888Y213D02*
X897Y213D01*
X920Y213D02*
X929Y213D01*
X960Y213D02*
X969Y213D01*
X309Y212D02*
X319Y212D01*
X343Y212D02*
X352Y212D01*
X382Y212D02*
X391Y212D01*
X434Y212D02*
X444Y212D01*
X599Y212D02*
X608Y212D01*
X651Y212D02*
X660Y212D01*
X718Y212D02*
X733Y212D01*
X743Y212D02*
X752Y212D01*
X790Y212D02*
X805Y212D01*
X815Y212D02*
X825Y212D01*
X849Y212D02*
X858Y212D01*
X888Y212D02*
X897Y212D01*
X920Y212D02*
X929Y212D01*
X960Y212D02*
X969Y212D01*
X308Y211D02*
X318Y211D01*
X343Y211D02*
X352Y211D01*
X382Y211D02*
X391Y211D01*
X434Y211D02*
X444Y211D01*
X599Y211D02*
X608Y211D01*
X651Y211D02*
X660Y211D01*
X717Y211D02*
X732Y211D01*
X743Y211D02*
X752Y211D01*
X789Y211D02*
X804Y211D01*
X816Y211D02*
X825Y211D01*
X849Y211D02*
X858Y211D01*
X888Y211D02*
X897Y211D01*
X920Y211D02*
X929Y211D01*
X960Y211D02*
X969Y211D01*
X307Y210D02*
X318Y210D01*
X343Y210D02*
X352Y210D01*
X382Y210D02*
X391Y210D01*
X434Y210D02*
X444Y210D01*
X599Y210D02*
X608Y210D01*
X651Y210D02*
X660Y210D01*
X716Y210D02*
X730Y210D01*
X743Y210D02*
X752Y210D01*
X788Y210D02*
X803Y210D01*
X816Y210D02*
X825Y210D01*
X849Y210D02*
X858Y210D01*
X888Y210D02*
X897Y210D01*
X920Y210D02*
X929Y210D01*
X960Y210D02*
X969Y210D01*
X306Y209D02*
X318Y209D01*
X343Y209D02*
X352Y209D01*
X382Y209D02*
X391Y209D01*
X434Y209D02*
X444Y209D01*
X599Y209D02*
X608Y209D01*
X651Y209D02*
X660Y209D01*
X715Y209D02*
X729Y209D01*
X743Y209D02*
X752Y209D01*
X787Y209D02*
X801Y209D01*
X816Y209D02*
X825Y209D01*
X849Y209D02*
X858Y209D01*
X888Y209D02*
X897Y209D01*
X920Y209D02*
X929Y209D01*
X960Y209D02*
X969Y209D01*
X305Y208D02*
X317Y208D01*
X343Y208D02*
X352Y208D01*
X382Y208D02*
X391Y208D01*
X434Y208D02*
X444Y208D01*
X598Y208D02*
X608Y208D01*
X651Y208D02*
X660Y208D01*
X713Y208D02*
X728Y208D01*
X743Y208D02*
X752Y208D01*
X786Y208D02*
X800Y208D01*
X816Y208D02*
X825Y208D01*
X848Y208D02*
X859Y208D01*
X888Y208D02*
X897Y208D01*
X920Y208D02*
X929Y208D01*
X960Y208D02*
X969Y208D01*
X304Y207D02*
X317Y207D01*
X343Y207D02*
X352Y207D01*
X382Y207D02*
X391Y207D01*
X434Y207D02*
X444Y207D01*
X597Y207D02*
X608Y207D01*
X651Y207D02*
X660Y207D01*
X712Y207D02*
X727Y207D01*
X743Y207D02*
X752Y207D01*
X785Y207D02*
X799Y207D01*
X816Y207D02*
X825Y207D01*
X848Y207D02*
X860Y207D01*
X888Y207D02*
X897Y207D01*
X920Y207D02*
X930Y207D01*
X960Y207D02*
X969Y207D01*
X302Y206D02*
X316Y206D01*
X343Y206D02*
X352Y206D01*
X382Y206D02*
X391Y206D01*
X434Y206D02*
X444Y206D01*
X597Y206D02*
X607Y206D01*
X651Y206D02*
X660Y206D01*
X711Y206D02*
X726Y206D01*
X743Y206D02*
X752Y206D01*
X783Y206D02*
X798Y206D01*
X816Y206D02*
X825Y206D01*
X848Y206D02*
X862Y206D01*
X888Y206D02*
X897Y206D01*
X920Y206D02*
X930Y206D01*
X960Y206D02*
X969Y206D01*
X301Y205D02*
X315Y205D01*
X343Y205D02*
X352Y205D01*
X382Y205D02*
X391Y205D01*
X434Y205D02*
X444Y205D01*
X595Y205D02*
X607Y205D01*
X651Y205D02*
X660Y205D01*
X710Y205D02*
X725Y205D01*
X743Y205D02*
X752Y205D01*
X782Y205D02*
X797Y205D01*
X816Y205D02*
X825Y205D01*
X848Y205D02*
X864Y205D01*
X887Y205D02*
X897Y205D01*
X921Y205D02*
X930Y205D01*
X959Y205D02*
X969Y205D01*
X300Y204D02*
X314Y204D01*
X343Y204D02*
X352Y204D01*
X382Y204D02*
X391Y204D01*
X434Y204D02*
X444Y204D01*
X594Y204D02*
X607Y204D01*
X651Y204D02*
X660Y204D01*
X709Y204D02*
X723Y204D01*
X743Y204D02*
X752Y204D01*
X781Y204D02*
X796Y204D01*
X816Y204D02*
X825Y204D01*
X848Y204D02*
X866Y204D01*
X887Y204D02*
X897Y204D01*
X921Y204D02*
X931Y204D01*
X959Y204D02*
X969Y204D01*
X299Y203D02*
X313Y203D01*
X343Y203D02*
X352Y203D01*
X382Y203D02*
X391Y203D01*
X434Y203D02*
X444Y203D01*
X593Y203D02*
X606Y203D01*
X651Y203D02*
X660Y203D01*
X708Y203D02*
X722Y203D01*
X743Y203D02*
X752Y203D01*
X780Y203D02*
X794Y203D01*
X816Y203D02*
X825Y203D01*
X848Y203D02*
X867Y203D01*
X885Y203D02*
X896Y203D01*
X921Y203D02*
X932Y203D01*
X957Y203D02*
X968Y203D01*
X274Y202D02*
X312Y202D01*
X343Y202D02*
X352Y202D01*
X382Y202D02*
X391Y202D01*
X418Y202D02*
X460Y202D01*
X563Y202D02*
X605Y202D01*
X640Y202D02*
X671Y202D01*
X706Y202D02*
X721Y202D01*
X743Y202D02*
X752Y202D01*
X779Y202D02*
X793Y202D01*
X816Y202D02*
X825Y202D01*
X848Y202D02*
X896Y202D01*
X921Y202D02*
X968Y202D01*
X272Y201D02*
X311Y201D01*
X343Y201D02*
X352Y201D01*
X382Y201D02*
X391Y201D01*
X416Y201D02*
X462Y201D01*
X561Y201D02*
X605Y201D01*
X638Y201D02*
X673Y201D01*
X705Y201D02*
X720Y201D01*
X743Y201D02*
X752Y201D01*
X778Y201D02*
X792Y201D01*
X816Y201D02*
X825Y201D01*
X848Y201D02*
X896Y201D01*
X922Y201D02*
X968Y201D01*
X271Y200D02*
X310Y200D01*
X342Y200D02*
X352Y200D01*
X382Y200D02*
X391Y200D01*
X416Y200D02*
X462Y200D01*
X560Y200D02*
X604Y200D01*
X637Y200D02*
X674Y200D01*
X705Y200D02*
X719Y200D01*
X743Y200D02*
X752Y200D01*
X777Y200D02*
X791Y200D01*
X816Y200D02*
X825Y200D01*
X848Y200D02*
X895Y200D01*
X922Y200D02*
X967Y200D01*
X270Y199D02*
X309Y199D01*
X342Y199D02*
X351Y199D01*
X382Y199D02*
X391Y199D01*
X415Y199D02*
X463Y199D01*
X559Y199D02*
X603Y199D01*
X637Y199D02*
X675Y199D01*
X704Y199D02*
X718Y199D01*
X743Y199D02*
X752Y199D01*
X776Y199D02*
X790Y199D01*
X816Y199D02*
X825Y199D01*
X848Y199D02*
X894Y199D01*
X923Y199D02*
X967Y199D01*
X270Y198D02*
X308Y198D01*
X342Y198D02*
X351Y198D01*
X382Y198D02*
X391Y198D01*
X415Y198D02*
X463Y198D01*
X559Y198D02*
X602Y198D01*
X636Y198D02*
X675Y198D01*
X704Y198D02*
X716Y198D01*
X743Y198D02*
X752Y198D01*
X776Y198D02*
X789Y198D01*
X816Y198D02*
X825Y198D01*
X848Y198D02*
X894Y198D01*
X924Y198D02*
X966Y198D01*
X270Y197D02*
X306Y197D01*
X342Y197D02*
X351Y197D01*
X382Y197D02*
X391Y197D01*
X415Y197D02*
X463Y197D01*
X559Y197D02*
X601Y197D01*
X636Y197D02*
X675Y197D01*
X704Y197D02*
X715Y197D01*
X743Y197D02*
X752Y197D01*
X776Y197D02*
X787Y197D01*
X816Y197D02*
X825Y197D01*
X848Y197D02*
X893Y197D01*
X925Y197D02*
X965Y197D01*
X270Y196D02*
X305Y196D01*
X343Y196D02*
X351Y196D01*
X382Y196D02*
X391Y196D01*
X415Y196D02*
X463Y196D01*
X559Y196D02*
X599Y196D01*
X637Y196D02*
X675Y196D01*
X704Y196D02*
X714Y196D01*
X744Y196D02*
X752Y196D01*
X776Y196D02*
X786Y196D01*
X816Y196D02*
X824Y196D01*
X848Y196D02*
X857Y196D01*
X860Y196D02*
X892Y196D01*
X926Y196D02*
X964Y196D01*
X271Y195D02*
X304Y195D01*
X343Y195D02*
X351Y195D01*
X383Y195D02*
X391Y195D01*
X415Y195D02*
X463Y195D01*
X560Y195D02*
X598Y195D01*
X637Y195D02*
X675Y195D01*
X704Y195D02*
X713Y195D01*
X744Y195D02*
X752Y195D01*
X776Y195D02*
X785Y195D01*
X816Y195D02*
X824Y195D01*
X849Y195D02*
X857Y195D01*
X862Y195D02*
X891Y195D01*
X927Y195D02*
X963Y195D01*
X271Y194D02*
X302Y194D01*
X344Y194D02*
X350Y194D01*
X383Y194D02*
X390Y194D01*
X416Y194D02*
X462Y194D01*
X560Y194D02*
X596Y194D01*
X638Y194D02*
X674Y194D01*
X705Y194D02*
X712Y194D01*
X745Y194D02*
X751Y194D01*
X777Y194D02*
X784Y194D01*
X817Y194D02*
X823Y194D01*
X849Y194D02*
X856Y194D01*
X864Y194D02*
X889Y194D01*
X928Y194D02*
X961Y194D01*
X273Y193D02*
X300Y193D01*
X345Y193D02*
X349Y193D01*
X384Y193D02*
X389Y193D01*
X417Y193D02*
X461Y193D01*
X562Y193D02*
X594Y193D01*
X639Y193D02*
X673Y193D01*
X706Y193D02*
X710Y193D01*
X746Y193D02*
X750Y193D01*
X778Y193D02*
X783Y193D01*
X818Y193D02*
X822Y193D01*
X851Y193D02*
X855Y193D01*
X865Y193D02*
X887Y193D01*
X931Y193D02*
X959Y193D01*
X348Y70D02*
X371Y70D01*
X535Y70D02*
X544Y70D01*
X595Y70D02*
X598Y70D01*
X665Y70D02*
X671Y70D01*
X683Y70D02*
X688Y70D01*
X951Y70D02*
X970Y70D01*
X348Y69D02*
X371Y69D01*
X534Y69D02*
X545Y69D01*
X595Y69D02*
X598Y69D01*
X665Y69D02*
X671Y69D01*
X682Y69D02*
X688Y69D01*
X950Y69D02*
X970Y69D01*
X348Y68D02*
X371Y68D01*
X534Y68D02*
X545Y68D01*
X595Y68D02*
X598Y68D01*
X665Y68D02*
X672Y68D01*
X681Y68D02*
X688Y68D01*
X949Y68D02*
X970Y68D01*
X348Y67D02*
X371Y67D01*
X534Y67D02*
X545Y67D01*
X595Y67D02*
X599Y67D01*
X665Y67D02*
X673Y67D01*
X681Y67D02*
X688Y67D01*
X948Y67D02*
X970Y67D01*
X348Y66D02*
X371Y66D01*
X534Y66D02*
X543Y66D01*
X595Y66D02*
X599Y66D01*
X665Y66D02*
X674Y66D01*
X680Y66D02*
X688Y66D01*
X948Y66D02*
X970Y66D01*
X348Y65D02*
X352Y65D01*
X358Y65D02*
X361Y65D01*
X367Y65D02*
X371Y65D01*
X534Y65D02*
X538Y65D01*
X595Y65D02*
X599Y65D01*
X665Y65D02*
X674Y65D01*
X679Y65D02*
X688Y65D01*
X947Y65D02*
X952Y65D01*
X966Y65D02*
X970Y65D01*
X348Y64D02*
X352Y64D01*
X358Y64D02*
X361Y64D01*
X367Y64D02*
X371Y64D01*
X534Y64D02*
X538Y64D01*
X595Y64D02*
X599Y64D01*
X665Y64D02*
X675Y64D01*
X679Y64D02*
X688Y64D01*
X947Y64D02*
X951Y64D01*
X966Y64D02*
X970Y64D01*
X348Y63D02*
X351Y63D01*
X358Y63D02*
X361Y63D01*
X367Y63D02*
X371Y63D01*
X534Y63D02*
X538Y63D01*
X595Y63D02*
X599Y63D01*
X665Y63D02*
X669Y63D01*
X671Y63D02*
X676Y63D01*
X678Y63D02*
X688Y63D01*
X947Y63D02*
X951Y63D01*
X966Y63D02*
X970Y63D01*
X349Y62D02*
X351Y62D01*
X358Y62D02*
X361Y62D01*
X368Y62D02*
X370Y62D01*
X534Y62D02*
X538Y62D01*
X595Y62D02*
X599Y62D01*
X665Y62D02*
X669Y62D01*
X671Y62D02*
X682Y62D01*
X684Y62D02*
X688Y62D01*
X947Y62D02*
X951Y62D01*
X966Y62D02*
X970Y62D01*
X358Y61D02*
X361Y61D01*
X534Y61D02*
X538Y61D01*
X595Y61D02*
X599Y61D01*
X665Y61D02*
X669Y61D01*
X672Y61D02*
X681Y61D01*
X684Y61D02*
X688Y61D01*
X851Y61D02*
X855Y61D01*
X862Y61D02*
X863Y61D01*
X947Y61D02*
X951Y61D01*
X966Y61D02*
X970Y61D01*
X247Y60D02*
X260Y60D01*
X279Y60D02*
X280Y60D01*
X298Y60D02*
X299Y60D01*
X320Y60D02*
X329Y60D01*
X358Y60D02*
X361Y60D01*
X494Y60D02*
X507Y60D01*
X534Y60D02*
X538Y60D01*
X566Y60D02*
X576Y60D01*
X595Y60D02*
X599Y60D01*
X604Y60D02*
X611Y60D01*
X637Y60D02*
X646Y60D01*
X665Y60D02*
X669Y60D01*
X673Y60D02*
X681Y60D01*
X684Y60D02*
X688Y60D01*
X811Y60D02*
X825Y60D01*
X849Y60D02*
X857Y60D01*
X861Y60D02*
X864Y60D01*
X884Y60D02*
X893Y60D01*
X917Y60D02*
X924Y60D01*
X933Y60D02*
X934Y60D01*
X947Y60D02*
X951Y60D01*
X966Y60D02*
X970Y60D01*
X245Y59D02*
X262Y59D01*
X278Y59D02*
X281Y59D01*
X297Y59D02*
X300Y59D01*
X318Y59D02*
X331Y59D01*
X358Y59D02*
X361Y59D01*
X492Y59D02*
X509Y59D01*
X534Y59D02*
X538Y59D01*
X564Y59D02*
X578Y59D01*
X595Y59D02*
X599Y59D01*
X602Y59D02*
X613Y59D01*
X635Y59D02*
X648Y59D01*
X665Y59D02*
X669Y59D01*
X673Y59D02*
X680Y59D01*
X684Y59D02*
X688Y59D01*
X809Y59D02*
X826Y59D01*
X847Y59D02*
X858Y59D01*
X861Y59D02*
X865Y59D01*
X882Y59D02*
X895Y59D01*
X915Y59D02*
X926Y59D01*
X932Y59D02*
X935Y59D01*
X947Y59D02*
X951Y59D01*
X966Y59D02*
X970Y59D01*
X244Y58D02*
X263Y58D01*
X277Y58D02*
X281Y58D01*
X297Y58D02*
X301Y58D01*
X316Y58D02*
X332Y58D01*
X358Y58D02*
X361Y58D01*
X491Y58D02*
X510Y58D01*
X534Y58D02*
X538Y58D01*
X563Y58D02*
X579Y58D01*
X595Y58D02*
X599Y58D01*
X601Y58D02*
X614Y58D01*
X634Y58D02*
X649Y58D01*
X665Y58D02*
X669Y58D01*
X674Y58D02*
X679Y58D01*
X684Y58D02*
X688Y58D01*
X808Y58D02*
X827Y58D01*
X846Y58D02*
X865Y58D01*
X880Y58D02*
X896Y58D01*
X914Y58D02*
X927Y58D01*
X931Y58D02*
X935Y58D01*
X947Y58D02*
X951Y58D01*
X966Y58D02*
X970Y58D01*
X243Y57D02*
X264Y57D01*
X277Y57D02*
X281Y57D01*
X297Y57D02*
X301Y57D01*
X315Y57D02*
X333Y57D01*
X358Y57D02*
X361Y57D01*
X490Y57D02*
X511Y57D01*
X534Y57D02*
X538Y57D01*
X562Y57D02*
X580Y57D01*
X595Y57D02*
X615Y57D01*
X632Y57D02*
X651Y57D01*
X665Y57D02*
X669Y57D01*
X675Y57D02*
X679Y57D01*
X684Y57D02*
X688Y57D01*
X807Y57D02*
X828Y57D01*
X845Y57D02*
X865Y57D01*
X879Y57D02*
X897Y57D01*
X913Y57D02*
X928Y57D01*
X931Y57D02*
X935Y57D01*
X947Y57D02*
X951Y57D01*
X966Y57D02*
X970Y57D01*
X243Y56D02*
X264Y56D01*
X277Y56D02*
X281Y56D01*
X297Y56D02*
X301Y56D01*
X314Y56D02*
X334Y56D01*
X358Y56D02*
X361Y56D01*
X489Y56D02*
X511Y56D01*
X534Y56D02*
X538Y56D01*
X561Y56D02*
X581Y56D01*
X595Y56D02*
X616Y56D01*
X631Y56D02*
X651Y56D01*
X665Y56D02*
X669Y56D01*
X675Y56D02*
X679Y56D01*
X684Y56D02*
X688Y56D01*
X807Y56D02*
X829Y56D01*
X844Y56D02*
X851Y56D01*
X855Y56D02*
X865Y56D01*
X878Y56D02*
X898Y56D01*
X913Y56D02*
X929Y56D01*
X931Y56D02*
X935Y56D01*
X947Y56D02*
X951Y56D01*
X966Y56D02*
X970Y56D01*
X243Y55D02*
X247Y55D01*
X260Y55D02*
X265Y55D01*
X277Y55D02*
X281Y55D01*
X297Y55D02*
X301Y55D01*
X313Y55D02*
X319Y55D01*
X329Y55D02*
X335Y55D01*
X358Y55D02*
X361Y55D01*
X490Y55D02*
X494Y55D01*
X507Y55D02*
X511Y55D01*
X534Y55D02*
X538Y55D01*
X560Y55D02*
X566Y55D01*
X576Y55D02*
X582Y55D01*
X595Y55D02*
X604Y55D01*
X611Y55D02*
X617Y55D01*
X631Y55D02*
X637Y55D01*
X646Y55D02*
X652Y55D01*
X665Y55D02*
X669Y55D01*
X675Y55D02*
X679Y55D01*
X684Y55D02*
X688Y55D01*
X807Y55D02*
X811Y55D01*
X824Y55D02*
X829Y55D01*
X843Y55D02*
X849Y55D01*
X856Y55D02*
X865Y55D01*
X878Y55D02*
X883Y55D01*
X893Y55D02*
X899Y55D01*
X912Y55D02*
X917Y55D01*
X924Y55D02*
X935Y55D01*
X947Y55D02*
X951Y55D01*
X966Y55D02*
X970Y55D01*
X243Y54D02*
X246Y54D01*
X261Y54D02*
X265Y54D01*
X277Y54D02*
X281Y54D01*
X297Y54D02*
X301Y54D01*
X313Y54D02*
X318Y54D01*
X330Y54D02*
X335Y54D01*
X358Y54D02*
X361Y54D01*
X420Y54D02*
X440Y54D01*
X490Y54D02*
X492Y54D01*
X508Y54D02*
X511Y54D01*
X534Y54D02*
X538Y54D01*
X560Y54D02*
X565Y54D01*
X577Y54D02*
X582Y54D01*
X595Y54D02*
X603Y54D01*
X612Y54D02*
X617Y54D01*
X630Y54D02*
X635Y54D01*
X648Y54D02*
X653Y54D01*
X665Y54D02*
X669Y54D01*
X676Y54D02*
X678Y54D01*
X684Y54D02*
X688Y54D01*
X737Y54D02*
X757Y54D01*
X807Y54D02*
X810Y54D01*
X825Y54D02*
X829Y54D01*
X842Y54D02*
X848Y54D01*
X857Y54D02*
X865Y54D01*
X877Y54D02*
X882Y54D01*
X894Y54D02*
X899Y54D01*
X912Y54D02*
X916Y54D01*
X925Y54D02*
X935Y54D01*
X947Y54D02*
X951Y54D01*
X966Y54D02*
X970Y54D01*
X260Y53D02*
X265Y53D01*
X277Y53D02*
X282Y53D01*
X296Y53D02*
X300Y53D01*
X313Y53D02*
X317Y53D01*
X331Y53D02*
X336Y53D01*
X358Y53D02*
X361Y53D01*
X419Y53D02*
X441Y53D01*
X507Y53D02*
X511Y53D01*
X534Y53D02*
X538Y53D01*
X559Y53D02*
X564Y53D01*
X578Y53D02*
X582Y53D01*
X595Y53D02*
X601Y53D01*
X613Y53D02*
X618Y53D01*
X630Y53D02*
X634Y53D01*
X649Y53D02*
X653Y53D01*
X665Y53D02*
X669Y53D01*
X684Y53D02*
X688Y53D01*
X736Y53D02*
X758Y53D01*
X824Y53D02*
X829Y53D01*
X842Y53D02*
X847Y53D01*
X858Y53D02*
X865Y53D01*
X877Y53D02*
X881Y53D01*
X895Y53D02*
X900Y53D01*
X912Y53D02*
X916Y53D01*
X926Y53D02*
X935Y53D01*
X947Y53D02*
X952Y53D01*
X966Y53D02*
X970Y53D01*
X258Y52D02*
X264Y52D01*
X278Y52D02*
X282Y52D01*
X296Y52D02*
X300Y52D01*
X313Y52D02*
X317Y52D01*
X332Y52D02*
X336Y52D01*
X358Y52D02*
X361Y52D01*
X418Y52D02*
X442Y52D01*
X505Y52D02*
X511Y52D01*
X534Y52D02*
X538Y52D01*
X559Y52D02*
X563Y52D01*
X579Y52D02*
X583Y52D01*
X595Y52D02*
X600Y52D01*
X614Y52D02*
X618Y52D01*
X630Y52D02*
X634Y52D01*
X649Y52D02*
X653Y52D01*
X665Y52D02*
X669Y52D01*
X684Y52D02*
X688Y52D01*
X736Y52D02*
X759Y52D01*
X822Y52D02*
X828Y52D01*
X842Y52D02*
X846Y52D01*
X859Y52D02*
X865Y52D01*
X877Y52D02*
X881Y52D01*
X896Y52D02*
X900Y52D01*
X912Y52D02*
X916Y52D01*
X927Y52D02*
X935Y52D01*
X948Y52D02*
X970Y52D01*
X256Y51D02*
X264Y51D01*
X278Y51D02*
X283Y51D01*
X295Y51D02*
X300Y51D01*
X313Y51D02*
X316Y51D01*
X332Y51D02*
X336Y51D01*
X358Y51D02*
X361Y51D01*
X418Y51D02*
X442Y51D01*
X503Y51D02*
X511Y51D01*
X534Y51D02*
X538Y51D01*
X559Y51D02*
X563Y51D01*
X579Y51D02*
X583Y51D01*
X595Y51D02*
X599Y51D01*
X614Y51D02*
X618Y51D01*
X630Y51D02*
X634Y51D01*
X649Y51D02*
X653Y51D01*
X665Y51D02*
X669Y51D01*
X684Y51D02*
X688Y51D01*
X736Y51D02*
X759Y51D01*
X820Y51D02*
X828Y51D01*
X841Y51D02*
X845Y51D01*
X860Y51D02*
X865Y51D01*
X877Y51D02*
X881Y51D01*
X896Y51D02*
X900Y51D01*
X912Y51D02*
X916Y51D01*
X928Y51D02*
X935Y51D01*
X948Y51D02*
X970Y51D01*
X254Y50D02*
X263Y50D01*
X279Y50D02*
X283Y50D01*
X295Y50D02*
X299Y50D01*
X313Y50D02*
X316Y50D01*
X332Y50D02*
X336Y50D01*
X358Y50D02*
X361Y50D01*
X418Y50D02*
X442Y50D01*
X500Y50D02*
X510Y50D01*
X534Y50D02*
X538Y50D01*
X559Y50D02*
X563Y50D01*
X579Y50D02*
X583Y50D01*
X595Y50D02*
X599Y50D01*
X614Y50D02*
X618Y50D01*
X630Y50D02*
X634Y50D01*
X649Y50D02*
X653Y50D01*
X665Y50D02*
X669Y50D01*
X684Y50D02*
X688Y50D01*
X736Y50D02*
X759Y50D01*
X818Y50D02*
X827Y50D01*
X841Y50D02*
X845Y50D01*
X861Y50D02*
X865Y50D01*
X877Y50D02*
X881Y50D01*
X896Y50D02*
X900Y50D01*
X913Y50D02*
X915Y50D01*
X929Y50D02*
X935Y50D01*
X949Y50D02*
X970Y50D01*
X251Y49D02*
X262Y49D01*
X279Y49D02*
X284Y49D01*
X294Y49D02*
X299Y49D01*
X313Y49D02*
X316Y49D01*
X332Y49D02*
X336Y49D01*
X358Y49D02*
X361Y49D01*
X418Y49D02*
X441Y49D01*
X498Y49D02*
X509Y49D01*
X534Y49D02*
X538Y49D01*
X559Y49D02*
X563Y49D01*
X579Y49D02*
X583Y49D01*
X595Y49D02*
X599Y49D01*
X614Y49D02*
X618Y49D01*
X630Y49D02*
X634Y49D01*
X649Y49D02*
X653Y49D01*
X665Y49D02*
X669Y49D01*
X684Y49D02*
X688Y49D01*
X736Y49D02*
X759Y49D01*
X815Y49D02*
X826Y49D01*
X841Y49D02*
X845Y49D01*
X861Y49D02*
X865Y49D01*
X877Y49D02*
X881Y49D01*
X896Y49D02*
X900Y49D01*
X931Y49D02*
X935Y49D01*
X950Y49D02*
X970Y49D01*
X249Y48D02*
X260Y48D01*
X280Y48D02*
X284Y48D01*
X294Y48D02*
X298Y48D01*
X313Y48D02*
X316Y48D01*
X332Y48D02*
X336Y48D01*
X358Y48D02*
X361Y48D01*
X419Y48D02*
X441Y48D01*
X496Y48D02*
X507Y48D01*
X534Y48D02*
X538Y48D01*
X559Y48D02*
X564Y48D01*
X578Y48D02*
X583Y48D01*
X595Y48D02*
X599Y48D01*
X614Y48D02*
X618Y48D01*
X630Y48D02*
X634Y48D01*
X649Y48D02*
X653Y48D01*
X665Y48D02*
X669Y48D01*
X684Y48D02*
X688Y48D01*
X736Y48D02*
X758Y48D01*
X813Y48D02*
X824Y48D01*
X841Y48D02*
X845Y48D01*
X861Y48D02*
X865Y48D01*
X877Y48D02*
X881Y48D01*
X896Y48D02*
X900Y48D01*
X931Y48D02*
X935Y48D01*
X951Y48D02*
X970Y48D01*
X247Y47D02*
X258Y47D01*
X280Y47D02*
X284Y47D01*
X294Y47D02*
X298Y47D01*
X313Y47D02*
X316Y47D01*
X332Y47D02*
X336Y47D01*
X358Y47D02*
X361Y47D01*
X493Y47D02*
X505Y47D01*
X534Y47D02*
X538Y47D01*
X559Y47D02*
X583Y47D01*
X595Y47D02*
X599Y47D01*
X614Y47D02*
X618Y47D01*
X630Y47D02*
X634Y47D01*
X649Y47D02*
X653Y47D01*
X665Y47D02*
X669Y47D01*
X684Y47D02*
X688Y47D01*
X811Y47D02*
X822Y47D01*
X841Y47D02*
X845Y47D01*
X861Y47D02*
X865Y47D01*
X877Y47D02*
X881Y47D01*
X896Y47D02*
X900Y47D01*
X931Y47D02*
X935Y47D01*
X966Y47D02*
X970Y47D01*
X245Y46D02*
X256Y46D01*
X280Y46D02*
X285Y46D01*
X293Y46D02*
X297Y46D01*
X313Y46D02*
X316Y46D01*
X332Y46D02*
X336Y46D01*
X358Y46D02*
X361Y46D01*
X492Y46D02*
X502Y46D01*
X534Y46D02*
X538Y46D01*
X559Y46D02*
X583Y46D01*
X595Y46D02*
X599Y46D01*
X614Y46D02*
X618Y46D01*
X630Y46D02*
X634Y46D01*
X649Y46D02*
X653Y46D01*
X665Y46D02*
X669Y46D01*
X684Y46D02*
X688Y46D01*
X809Y46D02*
X820Y46D01*
X841Y46D02*
X845Y46D01*
X861Y46D02*
X865Y46D01*
X877Y46D02*
X881Y46D01*
X896Y46D02*
X900Y46D01*
X931Y46D02*
X935Y46D01*
X966Y46D02*
X970Y46D01*
X244Y45D02*
X253Y45D01*
X281Y45D02*
X285Y45D01*
X293Y45D02*
X297Y45D01*
X313Y45D02*
X316Y45D01*
X332Y45D02*
X336Y45D01*
X358Y45D02*
X361Y45D01*
X491Y45D02*
X500Y45D01*
X534Y45D02*
X538Y45D01*
X559Y45D02*
X583Y45D01*
X595Y45D02*
X599Y45D01*
X614Y45D02*
X618Y45D01*
X630Y45D02*
X634Y45D01*
X649Y45D02*
X653Y45D01*
X665Y45D02*
X669Y45D01*
X684Y45D02*
X688Y45D01*
X808Y45D02*
X817Y45D01*
X841Y45D02*
X845Y45D01*
X861Y45D02*
X865Y45D01*
X877Y45D02*
X881Y45D01*
X896Y45D02*
X900Y45D01*
X931Y45D02*
X935Y45D01*
X966Y45D02*
X970Y45D01*
X243Y44D02*
X251Y44D01*
X281Y44D02*
X286Y44D01*
X292Y44D02*
X297Y44D01*
X313Y44D02*
X316Y44D01*
X332Y44D02*
X336Y44D01*
X358Y44D02*
X361Y44D01*
X490Y44D02*
X498Y44D01*
X534Y44D02*
X538Y44D01*
X560Y44D02*
X583Y44D01*
X595Y44D02*
X599Y44D01*
X614Y44D02*
X618Y44D01*
X630Y44D02*
X634Y44D01*
X649Y44D02*
X653Y44D01*
X665Y44D02*
X669Y44D01*
X684Y44D02*
X688Y44D01*
X807Y44D02*
X815Y44D01*
X841Y44D02*
X845Y44D01*
X861Y44D02*
X865Y44D01*
X877Y44D02*
X881Y44D01*
X896Y44D02*
X900Y44D01*
X931Y44D02*
X935Y44D01*
X966Y44D02*
X970Y44D01*
X243Y43D02*
X249Y43D01*
X282Y43D02*
X286Y43D01*
X292Y43D02*
X296Y43D01*
X313Y43D02*
X316Y43D01*
X332Y43D02*
X336Y43D01*
X358Y43D02*
X361Y43D01*
X490Y43D02*
X496Y43D01*
X534Y43D02*
X538Y43D01*
X562Y43D02*
X583Y43D01*
X595Y43D02*
X599Y43D01*
X614Y43D02*
X618Y43D01*
X630Y43D02*
X634Y43D01*
X649Y43D02*
X653Y43D01*
X665Y43D02*
X669Y43D01*
X684Y43D02*
X688Y43D01*
X807Y43D02*
X813Y43D01*
X841Y43D02*
X845Y43D01*
X861Y43D02*
X865Y43D01*
X877Y43D02*
X881Y43D01*
X896Y43D02*
X900Y43D01*
X931Y43D02*
X935Y43D01*
X966Y43D02*
X970Y43D01*
X242Y42D02*
X247Y42D01*
X282Y42D02*
X287Y42D01*
X291Y42D02*
X296Y42D01*
X313Y42D02*
X316Y42D01*
X332Y42D02*
X336Y42D01*
X358Y42D02*
X361Y42D01*
X489Y42D02*
X494Y42D01*
X534Y42D02*
X538Y42D01*
X579Y42D02*
X583Y42D01*
X595Y42D02*
X599Y42D01*
X614Y42D02*
X618Y42D01*
X630Y42D02*
X634Y42D01*
X649Y42D02*
X653Y42D01*
X665Y42D02*
X669Y42D01*
X684Y42D02*
X688Y42D01*
X806Y42D02*
X811Y42D01*
X841Y42D02*
X845Y42D01*
X860Y42D02*
X865Y42D01*
X877Y42D02*
X881Y42D01*
X896Y42D02*
X900Y42D01*
X931Y42D02*
X935Y42D01*
X966Y42D02*
X970Y42D01*
X242Y41D02*
X246Y41D01*
X283Y41D02*
X287Y41D01*
X291Y41D02*
X295Y41D01*
X313Y41D02*
X317Y41D01*
X332Y41D02*
X336Y41D01*
X358Y41D02*
X361Y41D01*
X489Y41D02*
X493Y41D01*
X534Y41D02*
X538Y41D01*
X579Y41D02*
X583Y41D01*
X595Y41D02*
X600Y41D01*
X614Y41D02*
X618Y41D01*
X630Y41D02*
X634Y41D01*
X649Y41D02*
X653Y41D01*
X665Y41D02*
X669Y41D01*
X684Y41D02*
X688Y41D01*
X806Y41D02*
X810Y41D01*
X842Y41D02*
X846Y41D01*
X860Y41D02*
X865Y41D01*
X877Y41D02*
X881Y41D01*
X896Y41D02*
X900Y41D01*
X931Y41D02*
X935Y41D01*
X966Y41D02*
X970Y41D01*
X242Y40D02*
X246Y40D01*
X283Y40D02*
X288Y40D01*
X290Y40D02*
X295Y40D01*
X313Y40D02*
X317Y40D01*
X331Y40D02*
X336Y40D01*
X358Y40D02*
X361Y40D01*
X489Y40D02*
X493Y40D01*
X534Y40D02*
X538Y40D01*
X578Y40D02*
X582Y40D01*
X595Y40D02*
X601Y40D01*
X613Y40D02*
X618Y40D01*
X630Y40D02*
X634Y40D01*
X649Y40D02*
X653Y40D01*
X665Y40D02*
X669Y40D01*
X684Y40D02*
X688Y40D01*
X806Y40D02*
X810Y40D01*
X842Y40D02*
X847Y40D01*
X858Y40D02*
X865Y40D01*
X877Y40D02*
X881Y40D01*
X895Y40D02*
X900Y40D01*
X931Y40D02*
X935Y40D01*
X966Y40D02*
X970Y40D01*
X242Y39D02*
X246Y39D01*
X262Y39D02*
X264Y39D01*
X284Y39D02*
X294Y39D01*
X313Y39D02*
X318Y39D01*
X330Y39D02*
X335Y39D01*
X358Y39D02*
X361Y39D01*
X489Y39D02*
X493Y39D01*
X509Y39D02*
X511Y39D01*
X534Y39D02*
X538Y39D01*
X577Y39D02*
X582Y39D01*
X595Y39D02*
X603Y39D01*
X612Y39D02*
X617Y39D01*
X630Y39D02*
X635Y39D01*
X648Y39D02*
X653Y39D01*
X665Y39D02*
X669Y39D01*
X684Y39D02*
X688Y39D01*
X806Y39D02*
X810Y39D01*
X826Y39D02*
X828Y39D01*
X842Y39D02*
X848Y39D01*
X857Y39D02*
X865Y39D01*
X877Y39D02*
X882Y39D01*
X894Y39D02*
X899Y39D01*
X931Y39D02*
X935Y39D01*
X966Y39D02*
X970Y39D01*
X242Y38D02*
X247Y38D01*
X261Y38D02*
X265Y38D01*
X284Y38D02*
X294Y38D01*
X313Y38D02*
X319Y38D01*
X329Y38D02*
X335Y38D01*
X358Y38D02*
X361Y38D01*
X489Y38D02*
X494Y38D01*
X507Y38D02*
X512Y38D01*
X534Y38D02*
X538Y38D01*
X576Y38D02*
X582Y38D01*
X595Y38D02*
X604Y38D01*
X611Y38D02*
X617Y38D01*
X631Y38D02*
X637Y38D01*
X646Y38D02*
X652Y38D01*
X665Y38D02*
X669Y38D01*
X684Y38D02*
X688Y38D01*
X806Y38D02*
X811Y38D01*
X825Y38D02*
X829Y38D01*
X843Y38D02*
X849Y38D01*
X856Y38D02*
X865Y38D01*
X878Y38D02*
X883Y38D01*
X893Y38D02*
X899Y38D01*
X931Y38D02*
X935Y38D01*
X966Y38D02*
X970Y38D01*
X243Y37D02*
X265Y37D01*
X284Y37D02*
X293Y37D01*
X314Y37D02*
X334Y37D01*
X358Y37D02*
X361Y37D01*
X490Y37D02*
X512Y37D01*
X528Y37D02*
X544Y37D01*
X560Y37D02*
X581Y37D01*
X595Y37D02*
X616Y37D01*
X631Y37D02*
X652Y37D01*
X665Y37D02*
X669Y37D01*
X684Y37D02*
X688Y37D01*
X807Y37D02*
X829Y37D01*
X844Y37D02*
X851Y37D01*
X855Y37D02*
X865Y37D01*
X878Y37D02*
X898Y37D01*
X931Y37D02*
X935Y37D01*
X966Y37D02*
X970Y37D01*
X243Y36D02*
X265Y36D01*
X285Y36D02*
X293Y36D01*
X315Y36D02*
X333Y36D01*
X358Y36D02*
X361Y36D01*
X490Y36D02*
X512Y36D01*
X527Y36D02*
X545Y36D01*
X560Y36D02*
X580Y36D01*
X595Y36D02*
X615Y36D01*
X632Y36D02*
X651Y36D01*
X665Y36D02*
X669Y36D01*
X684Y36D02*
X688Y36D01*
X807Y36D02*
X829Y36D01*
X845Y36D02*
X865Y36D01*
X879Y36D02*
X897Y36D01*
X931Y36D02*
X935Y36D01*
X966Y36D02*
X970Y36D01*
X244Y35D02*
X264Y35D01*
X285Y35D02*
X292Y35D01*
X316Y35D02*
X332Y35D01*
X358Y35D02*
X361Y35D01*
X491Y35D02*
X511Y35D01*
X527Y35D02*
X545Y35D01*
X559Y35D02*
X579Y35D01*
X595Y35D02*
X598Y35D01*
X600Y35D02*
X614Y35D01*
X633Y35D02*
X650Y35D01*
X665Y35D02*
X669Y35D01*
X684Y35D02*
X688Y35D01*
X808Y35D02*
X828Y35D01*
X846Y35D02*
X865Y35D01*
X880Y35D02*
X896Y35D01*
X931Y35D02*
X935Y35D01*
X967Y35D02*
X970Y35D01*
X245Y34D02*
X263Y34D01*
X286Y34D02*
X290Y34D01*
X318Y34D02*
X331Y34D01*
X358Y34D02*
X361Y34D01*
X492Y34D02*
X509Y34D01*
X527Y34D02*
X545Y34D01*
X560Y34D02*
X578Y34D01*
X595Y34D02*
X598Y34D01*
X602Y34D02*
X613Y34D01*
X635Y34D02*
X648Y34D01*
X665Y34D02*
X669Y34D01*
X685Y34D02*
X688Y34D01*
X809Y34D02*
X827Y34D01*
X847Y34D02*
X858Y34D01*
X861Y34D02*
X865Y34D01*
X882Y34D02*
X895Y34D01*
X932Y34D02*
X935Y34D01*
X967Y34D02*
X970Y34D01*
X247Y33D02*
X260Y33D01*
X286Y33D02*
X291Y33D01*
X319Y33D02*
X329Y33D01*
X359Y33D02*
X360Y33D01*
X494Y33D02*
X507Y33D01*
X528Y33D02*
X544Y33D01*
X561Y33D02*
X576Y33D01*
X596Y33D02*
X597Y33D01*
X604Y33D02*
X611Y33D01*
X637Y33D02*
X646Y33D01*
X666Y33D02*
X668Y33D01*
X686Y33D02*
X687Y33D01*
X811Y33D02*
X824Y33D01*
X849Y33D02*
X857Y33D01*
X861Y33D02*
X865Y33D01*
X883Y33D02*
X893Y33D01*
X932Y33D02*
X934Y33D01*
X968Y33D02*
X969Y33D01*
X287Y32D02*
X291Y32D01*
X851Y32D02*
X855Y32D01*
X861Y32D02*
X865Y32D01*
X287Y31D02*
X291Y31D01*
X861Y31D02*
X865Y31D01*
X287Y30D02*
X292Y30D01*
X861Y30D02*
X865Y30D01*
X288Y29D02*
X292Y29D01*
X861Y29D02*
X865Y29D01*
X288Y28D02*
X293Y28D01*
X861Y28D02*
X865Y28D01*
X289Y27D02*
X299Y27D01*
X861Y27D02*
X865Y27D01*
X289Y26D02*
X300Y26D01*
X861Y26D02*
X865Y26D01*
X290Y25D02*
X301Y25D01*
X861Y25D02*
X865Y25D01*
X290Y24D02*
X300Y24D01*
X861Y24D02*
X864Y24D01*
X291Y23D02*
X300Y23D01*
X862Y23D02*
X864Y23D01*
D02*
G04 End of Silk0*
M02*