G04 MADE WITH FRITZING*
G04 WWW.FRITZING.ORG*
G04 DOUBLE SIDED*
G04 HOLES PLATED*
G04 CONTOUR ON CENTER OF CONTOUR VECTOR*
%ASAXBY*%
%FSLAX23Y23*%
%MOIN*%
%OFA0B0*%
%SFA1.0B1.0*%
%ADD10C,0.049370*%
%ADD11C,0.084000*%
%ADD12R,0.001000X0.001000*%
%LNMASK0*%
G90*
G70*
G54D10*
X708Y469D03*
G54D11*
X941Y1527D03*
X841Y1527D03*
X741Y1527D03*
X641Y1527D03*
X541Y1527D03*
X441Y1527D03*
X876Y982D03*
X876Y1082D03*
X876Y572D03*
X876Y672D03*
X991Y1427D03*
X991Y1327D03*
X991Y1227D03*
X991Y1127D03*
X991Y1027D03*
X991Y927D03*
X991Y827D03*
X991Y727D03*
X991Y627D03*
X991Y527D03*
X991Y427D03*
X991Y327D03*
X391Y327D03*
X391Y427D03*
X391Y527D03*
X391Y627D03*
X391Y727D03*
X391Y827D03*
X391Y927D03*
X391Y1027D03*
X391Y1127D03*
X391Y1227D03*
X391Y1327D03*
X391Y1427D03*
X141Y1227D03*
X133Y1127D03*
X141Y1027D03*
X133Y927D03*
X141Y827D03*
X133Y727D03*
X141Y627D03*
X133Y527D03*
X141Y427D03*
X133Y327D03*
X141Y227D03*
X133Y127D03*
X495Y124D03*
X595Y114D03*
X695Y124D03*
X795Y114D03*
G54D12*
X453Y166D02*
X536Y166D01*
X453Y165D02*
X536Y165D01*
X453Y164D02*
X536Y164D01*
X453Y163D02*
X536Y163D01*
X453Y162D02*
X536Y162D01*
X453Y161D02*
X536Y161D01*
X453Y160D02*
X536Y160D01*
X453Y159D02*
X536Y159D01*
X453Y158D02*
X536Y158D01*
X453Y157D02*
X536Y157D01*
X453Y156D02*
X536Y156D01*
X453Y155D02*
X536Y155D01*
X453Y154D02*
X536Y154D01*
X453Y153D02*
X536Y153D01*
X453Y152D02*
X536Y152D01*
X453Y151D02*
X536Y151D01*
X453Y150D02*
X536Y150D01*
X453Y149D02*
X536Y149D01*
X453Y148D02*
X536Y148D01*
X453Y147D02*
X536Y147D01*
X453Y146D02*
X536Y146D01*
X453Y145D02*
X536Y145D01*
X453Y144D02*
X536Y144D01*
X453Y143D02*
X536Y143D01*
X453Y142D02*
X536Y142D01*
X453Y141D02*
X536Y141D01*
X453Y140D02*
X536Y140D01*
X453Y139D02*
X490Y139D01*
X499Y139D02*
X536Y139D01*
X453Y138D02*
X487Y138D01*
X502Y138D02*
X536Y138D01*
X453Y137D02*
X485Y137D01*
X503Y137D02*
X536Y137D01*
X453Y136D02*
X484Y136D01*
X504Y136D02*
X536Y136D01*
X453Y135D02*
X483Y135D01*
X506Y135D02*
X536Y135D01*
X453Y134D02*
X482Y134D01*
X506Y134D02*
X536Y134D01*
X453Y133D02*
X481Y133D01*
X507Y133D02*
X536Y133D01*
X453Y132D02*
X481Y132D01*
X508Y132D02*
X536Y132D01*
X453Y131D02*
X480Y131D01*
X508Y131D02*
X536Y131D01*
X453Y130D02*
X480Y130D01*
X509Y130D02*
X536Y130D01*
X453Y129D02*
X480Y129D01*
X509Y129D02*
X536Y129D01*
X453Y128D02*
X479Y128D01*
X509Y128D02*
X536Y128D01*
X453Y127D02*
X479Y127D01*
X510Y127D02*
X536Y127D01*
X453Y126D02*
X479Y126D01*
X510Y126D02*
X536Y126D01*
X453Y125D02*
X479Y125D01*
X510Y125D02*
X536Y125D01*
X453Y124D02*
X479Y124D01*
X510Y124D02*
X536Y124D01*
X453Y123D02*
X479Y123D01*
X510Y123D02*
X536Y123D01*
X453Y122D02*
X479Y122D01*
X510Y122D02*
X536Y122D01*
X453Y121D02*
X479Y121D01*
X509Y121D02*
X536Y121D01*
X453Y120D02*
X480Y120D01*
X509Y120D02*
X536Y120D01*
X453Y119D02*
X480Y119D01*
X509Y119D02*
X536Y119D01*
X453Y118D02*
X480Y118D01*
X508Y118D02*
X536Y118D01*
X453Y117D02*
X481Y117D01*
X508Y117D02*
X536Y117D01*
X453Y116D02*
X482Y116D01*
X507Y116D02*
X536Y116D01*
X453Y115D02*
X482Y115D01*
X506Y115D02*
X536Y115D01*
X453Y114D02*
X483Y114D01*
X505Y114D02*
X536Y114D01*
X453Y113D02*
X484Y113D01*
X504Y113D02*
X536Y113D01*
X453Y112D02*
X486Y112D01*
X503Y112D02*
X536Y112D01*
X453Y111D02*
X487Y111D01*
X501Y111D02*
X536Y111D01*
X453Y110D02*
X490Y110D01*
X498Y110D02*
X536Y110D01*
X453Y109D02*
X536Y109D01*
X453Y108D02*
X536Y108D01*
X453Y107D02*
X536Y107D01*
X453Y106D02*
X536Y106D01*
X453Y105D02*
X536Y105D01*
X453Y104D02*
X536Y104D01*
X453Y103D02*
X536Y103D01*
X453Y102D02*
X536Y102D01*
X453Y101D02*
X536Y101D01*
X453Y100D02*
X536Y100D01*
X453Y99D02*
X536Y99D01*
X453Y98D02*
X536Y98D01*
X453Y97D02*
X536Y97D01*
X453Y96D02*
X536Y96D01*
X453Y95D02*
X536Y95D01*
X453Y94D02*
X536Y94D01*
X453Y93D02*
X536Y93D01*
X453Y92D02*
X536Y92D01*
X453Y91D02*
X536Y91D01*
X453Y90D02*
X536Y90D01*
X453Y89D02*
X536Y89D01*
X453Y88D02*
X536Y88D01*
X453Y87D02*
X536Y87D01*
X453Y86D02*
X536Y86D01*
X453Y85D02*
X536Y85D01*
X453Y84D02*
X536Y84D01*
X453Y83D02*
X536Y83D01*
D02*
G04 End of Mask0*
M02*