G04 MADE WITH FRITZING*
G04 WWW.FRITZING.ORG*
G04 DOUBLE SIDED*
G04 HOLES PLATED*
G04 CONTOUR ON CENTER OF CONTOUR VECTOR*
%ASAXBY*%
%FSLAX23Y23*%
%MOIN*%
%OFA0B0*%
%SFA1.0B1.0*%
%ADD10R,1.574800X1.771650X1.558800X1.755650*%
%ADD11C,0.008000*%
%ADD12C,0.005000*%
%ADD13R,0.001000X0.001000*%
%LNSILK1*%
G90*
G70*
G54D11*
X4Y1768D02*
X1571Y1768D01*
X1571Y4D01*
X4Y4D01*
X4Y1768D01*
D02*
X142Y826D02*
X167Y801D01*
D02*
X167Y801D02*
X167Y751D01*
D02*
X167Y751D02*
X142Y726D01*
D02*
X92Y726D02*
X67Y751D01*
D02*
X67Y751D02*
X67Y801D01*
D02*
X67Y801D02*
X92Y826D01*
D02*
X167Y1001D02*
X167Y951D01*
D02*
X167Y951D02*
X142Y926D01*
D02*
X92Y926D02*
X67Y951D01*
D02*
X142Y926D02*
X167Y901D01*
D02*
X167Y901D02*
X167Y851D01*
D02*
X167Y851D02*
X142Y826D01*
D02*
X92Y826D02*
X67Y851D01*
D02*
X67Y851D02*
X67Y901D01*
D02*
X67Y901D02*
X92Y926D01*
D02*
X142Y1126D02*
X167Y1101D01*
D02*
X167Y1101D02*
X167Y1051D01*
D02*
X167Y1051D02*
X142Y1026D01*
D02*
X92Y1026D02*
X67Y1051D01*
D02*
X67Y1051D02*
X67Y1101D01*
D02*
X67Y1101D02*
X92Y1126D01*
D02*
X167Y1001D02*
X142Y1026D01*
D02*
X92Y1026D02*
X67Y1001D01*
D02*
X67Y951D02*
X67Y1001D01*
D02*
X167Y1301D02*
X167Y1251D01*
D02*
X167Y1251D02*
X142Y1226D01*
D02*
X92Y1226D02*
X67Y1251D01*
D02*
X142Y1226D02*
X167Y1201D01*
D02*
X167Y1201D02*
X167Y1151D01*
D02*
X167Y1151D02*
X142Y1126D01*
D02*
X92Y1126D02*
X67Y1151D01*
D02*
X67Y1151D02*
X67Y1201D01*
D02*
X67Y1201D02*
X92Y1226D01*
D02*
X142Y1326D02*
X92Y1326D01*
D02*
X167Y1301D02*
X142Y1326D01*
D02*
X92Y1326D02*
X67Y1301D01*
D02*
X67Y1251D02*
X67Y1301D01*
D02*
X142Y226D02*
X167Y201D01*
D02*
X167Y201D02*
X167Y151D01*
D02*
X167Y151D02*
X142Y126D01*
D02*
X92Y126D02*
X67Y151D01*
D02*
X67Y151D02*
X67Y201D01*
D02*
X67Y201D02*
X92Y226D01*
D02*
X167Y401D02*
X167Y351D01*
D02*
X167Y351D02*
X142Y326D01*
D02*
X92Y326D02*
X67Y351D01*
D02*
X142Y326D02*
X167Y301D01*
D02*
X167Y301D02*
X167Y251D01*
D02*
X167Y251D02*
X142Y226D01*
D02*
X92Y226D02*
X67Y251D01*
D02*
X67Y251D02*
X67Y301D01*
D02*
X67Y301D02*
X92Y326D01*
D02*
X142Y526D02*
X167Y501D01*
D02*
X167Y501D02*
X167Y451D01*
D02*
X167Y451D02*
X142Y426D01*
D02*
X92Y426D02*
X67Y451D01*
D02*
X67Y451D02*
X67Y501D01*
D02*
X67Y501D02*
X92Y526D01*
D02*
X167Y401D02*
X142Y426D01*
D02*
X92Y426D02*
X67Y401D01*
D02*
X67Y351D02*
X67Y401D01*
D02*
X167Y701D02*
X167Y651D01*
D02*
X167Y651D02*
X142Y626D01*
D02*
X92Y626D02*
X67Y651D01*
D02*
X142Y626D02*
X167Y601D01*
D02*
X167Y601D02*
X167Y551D01*
D02*
X167Y551D02*
X142Y526D01*
D02*
X92Y526D02*
X67Y551D01*
D02*
X67Y551D02*
X67Y601D01*
D02*
X67Y601D02*
X92Y626D01*
D02*
X167Y701D02*
X142Y726D01*
D02*
X92Y726D02*
X67Y701D01*
D02*
X67Y651D02*
X67Y701D01*
D02*
X142Y126D02*
X92Y126D01*
G54D12*
D02*
X642Y254D02*
X642Y34D01*
D02*
X1042Y254D02*
X1042Y34D01*
D02*
X1042Y254D02*
X642Y254D01*
D02*
X1042Y34D02*
X992Y34D01*
D02*
X992Y34D02*
X692Y34D01*
D02*
X692Y34D02*
X642Y34D01*
D02*
X692Y34D02*
X692Y84D01*
D02*
X692Y84D02*
X992Y84D01*
D02*
X992Y84D02*
X992Y34D01*
D02*
X1114Y253D02*
X1114Y33D01*
D02*
X1514Y253D02*
X1514Y33D01*
D02*
X1514Y253D02*
X1114Y253D01*
D02*
X1514Y33D02*
X1464Y33D01*
D02*
X1464Y33D02*
X1164Y33D01*
D02*
X1164Y33D02*
X1114Y33D01*
D02*
X1164Y33D02*
X1164Y83D01*
D02*
X1164Y83D02*
X1464Y83D01*
D02*
X1464Y83D02*
X1464Y33D01*
G54D13*
X215Y982D02*
X264Y982D01*
X215Y981D02*
X267Y981D01*
X215Y980D02*
X267Y980D01*
X215Y979D02*
X268Y979D01*
X215Y978D02*
X268Y978D01*
X215Y977D02*
X267Y977D01*
X215Y976D02*
X267Y976D01*
X215Y975D02*
X264Y975D01*
X215Y974D02*
X221Y974D01*
X215Y973D02*
X221Y973D01*
X215Y972D02*
X221Y972D01*
X215Y971D02*
X221Y971D01*
X215Y970D02*
X221Y970D01*
X215Y969D02*
X221Y969D01*
X215Y968D02*
X221Y968D01*
X215Y967D02*
X221Y967D01*
X215Y966D02*
X221Y966D01*
X215Y965D02*
X221Y965D01*
X215Y964D02*
X221Y964D01*
X215Y963D02*
X221Y963D01*
X215Y962D02*
X221Y962D01*
X215Y961D02*
X221Y961D01*
X215Y960D02*
X221Y960D01*
X215Y959D02*
X221Y959D01*
X215Y958D02*
X221Y958D01*
X215Y957D02*
X221Y957D01*
X215Y956D02*
X221Y956D01*
X215Y955D02*
X221Y955D01*
X215Y954D02*
X221Y954D01*
X215Y953D02*
X221Y953D01*
X215Y952D02*
X221Y952D01*
X215Y951D02*
X221Y951D01*
X215Y950D02*
X220Y950D01*
X215Y949D02*
X220Y949D01*
X216Y948D02*
X219Y948D01*
X215Y931D02*
X268Y931D01*
X215Y930D02*
X268Y930D01*
X215Y929D02*
X268Y929D01*
X215Y928D02*
X268Y928D01*
X215Y927D02*
X268Y927D01*
X215Y926D02*
X268Y926D01*
X215Y925D02*
X268Y925D01*
X215Y924D02*
X221Y924D01*
X238Y924D02*
X244Y924D01*
X262Y924D02*
X268Y924D01*
X215Y923D02*
X221Y923D01*
X238Y923D02*
X244Y923D01*
X262Y923D02*
X268Y923D01*
X215Y922D02*
X221Y922D01*
X238Y922D02*
X244Y922D01*
X262Y922D02*
X268Y922D01*
X215Y921D02*
X221Y921D01*
X238Y921D02*
X244Y921D01*
X262Y921D02*
X268Y921D01*
X215Y920D02*
X221Y920D01*
X238Y920D02*
X244Y920D01*
X262Y920D02*
X268Y920D01*
X215Y919D02*
X221Y919D01*
X238Y919D02*
X244Y919D01*
X262Y919D02*
X268Y919D01*
X215Y918D02*
X221Y918D01*
X238Y918D02*
X244Y918D01*
X262Y918D02*
X268Y918D01*
X215Y917D02*
X221Y917D01*
X238Y917D02*
X244Y917D01*
X262Y917D02*
X268Y917D01*
X215Y916D02*
X221Y916D01*
X238Y916D02*
X244Y916D01*
X262Y916D02*
X268Y916D01*
X215Y915D02*
X221Y915D01*
X238Y915D02*
X244Y915D01*
X262Y915D02*
X268Y915D01*
X215Y914D02*
X221Y914D01*
X238Y914D02*
X244Y914D01*
X262Y914D02*
X268Y914D01*
X215Y913D02*
X221Y913D01*
X239Y913D02*
X244Y913D01*
X262Y913D02*
X268Y913D01*
X215Y912D02*
X221Y912D01*
X239Y912D02*
X243Y912D01*
X262Y912D02*
X268Y912D01*
X215Y911D02*
X221Y911D01*
X262Y911D02*
X268Y911D01*
X215Y910D02*
X221Y910D01*
X262Y910D02*
X268Y910D01*
X215Y909D02*
X221Y909D01*
X262Y909D02*
X268Y909D01*
X215Y908D02*
X221Y908D01*
X262Y908D02*
X268Y908D01*
X215Y907D02*
X221Y907D01*
X262Y907D02*
X268Y907D01*
X215Y906D02*
X221Y906D01*
X262Y906D02*
X268Y906D01*
X215Y905D02*
X221Y905D01*
X262Y905D02*
X268Y905D01*
X215Y904D02*
X221Y904D01*
X262Y904D02*
X268Y904D01*
X215Y903D02*
X221Y903D01*
X262Y903D02*
X268Y903D01*
X215Y902D02*
X221Y902D01*
X262Y902D02*
X268Y902D01*
X215Y901D02*
X221Y901D01*
X262Y901D02*
X268Y901D01*
X215Y900D02*
X220Y900D01*
X262Y900D02*
X268Y900D01*
X215Y899D02*
X220Y899D01*
X262Y899D02*
X267Y899D01*
X216Y898D02*
X219Y898D01*
X263Y898D02*
X266Y898D01*
X216Y881D02*
X219Y881D01*
X263Y881D02*
X266Y881D01*
X215Y880D02*
X220Y880D01*
X262Y880D02*
X267Y880D01*
X215Y879D02*
X220Y879D01*
X262Y879D02*
X268Y879D01*
X215Y878D02*
X221Y878D01*
X262Y878D02*
X268Y878D01*
X215Y877D02*
X221Y877D01*
X262Y877D02*
X268Y877D01*
X215Y876D02*
X221Y876D01*
X262Y876D02*
X268Y876D01*
X215Y875D02*
X221Y875D01*
X261Y875D02*
X268Y875D01*
X215Y874D02*
X268Y874D01*
X215Y873D02*
X268Y873D01*
X215Y872D02*
X268Y872D01*
X215Y871D02*
X268Y871D01*
X215Y870D02*
X268Y870D01*
X215Y869D02*
X268Y869D01*
X215Y868D02*
X268Y868D01*
X215Y867D02*
X221Y867D01*
X262Y867D02*
X268Y867D01*
X215Y866D02*
X221Y866D01*
X262Y866D02*
X268Y866D01*
X215Y865D02*
X221Y865D01*
X262Y865D02*
X268Y865D01*
X215Y864D02*
X221Y864D01*
X261Y864D02*
X268Y864D01*
X215Y863D02*
X221Y863D01*
X261Y863D02*
X267Y863D01*
X215Y862D02*
X223Y862D01*
X259Y862D02*
X267Y862D01*
X216Y861D02*
X225Y861D01*
X257Y861D02*
X267Y861D01*
X216Y860D02*
X227Y860D01*
X255Y860D02*
X266Y860D01*
X217Y859D02*
X229Y859D01*
X253Y859D02*
X265Y859D01*
X217Y858D02*
X231Y858D01*
X251Y858D02*
X265Y858D01*
X218Y857D02*
X233Y857D01*
X249Y857D02*
X263Y857D01*
X220Y856D02*
X235Y856D01*
X248Y856D02*
X262Y856D01*
X222Y855D02*
X237Y855D01*
X245Y855D02*
X260Y855D01*
X224Y854D02*
X258Y854D01*
X226Y853D02*
X256Y853D01*
X228Y852D02*
X254Y852D01*
X230Y851D02*
X252Y851D01*
X232Y850D02*
X250Y850D01*
X234Y849D02*
X248Y849D01*
X237Y848D02*
X246Y848D01*
X217Y781D02*
X265Y781D01*
X215Y780D02*
X267Y780D01*
X215Y779D02*
X267Y779D01*
X215Y778D02*
X268Y778D01*
X215Y777D02*
X268Y777D01*
X215Y776D02*
X267Y776D01*
X216Y775D02*
X266Y775D01*
X240Y774D02*
X247Y774D01*
X240Y773D02*
X248Y773D01*
X241Y772D02*
X248Y772D01*
X242Y771D02*
X249Y771D01*
X242Y770D02*
X250Y770D01*
X243Y769D02*
X250Y769D01*
X244Y768D02*
X251Y768D01*
X244Y767D02*
X252Y767D01*
X245Y766D02*
X252Y766D01*
X246Y765D02*
X252Y765D01*
X246Y764D02*
X253Y764D01*
X247Y763D02*
X253Y763D01*
X247Y762D02*
X253Y762D01*
X247Y761D02*
X253Y761D01*
X247Y760D02*
X253Y760D01*
X247Y759D02*
X253Y759D01*
X247Y758D02*
X253Y758D01*
X247Y757D02*
X253Y757D01*
X246Y756D02*
X253Y756D01*
X245Y755D02*
X253Y755D01*
X226Y754D02*
X252Y754D01*
X216Y753D02*
X252Y753D01*
X215Y752D02*
X251Y752D01*
X215Y751D02*
X250Y751D01*
X215Y750D02*
X249Y750D01*
X215Y749D02*
X248Y749D01*
X215Y748D02*
X245Y748D01*
X217Y747D02*
X224Y747D01*
X226Y731D02*
X241Y731D01*
X222Y730D02*
X245Y730D01*
X221Y729D02*
X247Y729D01*
X220Y728D02*
X248Y728D01*
X219Y727D02*
X249Y727D01*
X218Y726D02*
X250Y726D01*
X217Y725D02*
X250Y725D01*
X216Y724D02*
X226Y724D01*
X229Y724D02*
X236Y724D01*
X242Y724D02*
X251Y724D01*
X216Y723D02*
X224Y723D01*
X229Y723D02*
X235Y723D01*
X244Y723D02*
X252Y723D01*
X215Y722D02*
X223Y722D01*
X229Y722D02*
X235Y722D01*
X245Y722D02*
X252Y722D01*
X215Y721D02*
X222Y721D01*
X229Y721D02*
X235Y721D01*
X246Y721D02*
X253Y721D01*
X215Y720D02*
X221Y720D01*
X229Y720D02*
X235Y720D01*
X246Y720D02*
X253Y720D01*
X215Y719D02*
X221Y719D01*
X229Y719D02*
X235Y719D01*
X247Y719D02*
X253Y719D01*
X215Y718D02*
X221Y718D01*
X229Y718D02*
X235Y718D01*
X247Y718D02*
X253Y718D01*
X215Y717D02*
X221Y717D01*
X229Y717D02*
X235Y717D01*
X247Y717D02*
X253Y717D01*
X215Y716D02*
X221Y716D01*
X229Y716D02*
X235Y716D01*
X247Y716D02*
X253Y716D01*
X215Y715D02*
X221Y715D01*
X229Y715D02*
X235Y715D01*
X247Y715D02*
X253Y715D01*
X215Y714D02*
X221Y714D01*
X229Y714D02*
X235Y714D01*
X247Y714D02*
X253Y714D01*
X215Y713D02*
X221Y713D01*
X229Y713D02*
X235Y713D01*
X247Y713D02*
X253Y713D01*
X215Y712D02*
X221Y712D01*
X229Y712D02*
X235Y712D01*
X247Y712D02*
X253Y712D01*
X215Y711D02*
X221Y711D01*
X229Y711D02*
X235Y711D01*
X247Y711D02*
X253Y711D01*
X215Y710D02*
X221Y710D01*
X229Y710D02*
X235Y710D01*
X247Y710D02*
X253Y710D01*
X215Y709D02*
X221Y709D01*
X229Y709D02*
X235Y709D01*
X247Y709D02*
X253Y709D01*
X215Y708D02*
X221Y708D01*
X229Y708D02*
X235Y708D01*
X247Y708D02*
X253Y708D01*
X215Y707D02*
X221Y707D01*
X229Y707D02*
X235Y707D01*
X246Y707D02*
X253Y707D01*
X215Y706D02*
X221Y706D01*
X229Y706D02*
X235Y706D01*
X245Y706D02*
X252Y706D01*
X215Y705D02*
X221Y705D01*
X229Y705D02*
X235Y705D01*
X244Y705D02*
X252Y705D01*
X215Y704D02*
X221Y704D01*
X229Y704D02*
X235Y704D01*
X243Y704D02*
X251Y704D01*
X215Y703D02*
X221Y703D01*
X229Y703D02*
X251Y703D01*
X215Y702D02*
X221Y702D01*
X229Y702D02*
X250Y702D01*
X215Y701D02*
X221Y701D01*
X229Y701D02*
X249Y701D01*
X215Y700D02*
X221Y700D01*
X229Y700D02*
X248Y700D01*
X215Y699D02*
X220Y699D01*
X229Y699D02*
X247Y699D01*
X215Y698D02*
X220Y698D01*
X230Y698D02*
X246Y698D01*
X216Y697D02*
X219Y697D01*
X231Y697D02*
X243Y697D01*
X221Y680D02*
X232Y680D01*
X219Y679D02*
X234Y679D01*
X218Y678D02*
X235Y678D01*
X217Y677D02*
X236Y677D01*
X216Y676D02*
X237Y676D01*
X216Y675D02*
X237Y675D01*
X215Y674D02*
X238Y674D01*
X215Y673D02*
X222Y673D01*
X231Y673D02*
X238Y673D01*
X248Y673D02*
X252Y673D01*
X215Y672D02*
X221Y672D01*
X232Y672D02*
X238Y672D01*
X247Y672D02*
X253Y672D01*
X215Y671D02*
X221Y671D01*
X232Y671D02*
X238Y671D01*
X247Y671D02*
X253Y671D01*
X215Y670D02*
X221Y670D01*
X232Y670D02*
X238Y670D01*
X247Y670D02*
X253Y670D01*
X215Y669D02*
X221Y669D01*
X232Y669D02*
X238Y669D01*
X247Y669D02*
X253Y669D01*
X215Y668D02*
X221Y668D01*
X232Y668D02*
X238Y668D01*
X247Y668D02*
X253Y668D01*
X215Y667D02*
X221Y667D01*
X232Y667D02*
X238Y667D01*
X247Y667D02*
X253Y667D01*
X215Y666D02*
X221Y666D01*
X232Y666D02*
X238Y666D01*
X247Y666D02*
X253Y666D01*
X215Y665D02*
X221Y665D01*
X232Y665D02*
X238Y665D01*
X247Y665D02*
X253Y665D01*
X215Y664D02*
X221Y664D01*
X232Y664D02*
X238Y664D01*
X247Y664D02*
X253Y664D01*
X215Y663D02*
X221Y663D01*
X232Y663D02*
X238Y663D01*
X247Y663D02*
X253Y663D01*
X215Y662D02*
X221Y662D01*
X232Y662D02*
X238Y662D01*
X247Y662D02*
X253Y662D01*
X215Y661D02*
X221Y661D01*
X232Y661D02*
X238Y661D01*
X247Y661D02*
X253Y661D01*
X215Y660D02*
X221Y660D01*
X232Y660D02*
X238Y660D01*
X247Y660D02*
X253Y660D01*
X215Y659D02*
X222Y659D01*
X232Y659D02*
X238Y659D01*
X247Y659D02*
X253Y659D01*
X215Y658D02*
X222Y658D01*
X232Y658D02*
X238Y658D01*
X247Y658D02*
X253Y658D01*
X216Y657D02*
X223Y657D01*
X232Y657D02*
X238Y657D01*
X247Y657D02*
X253Y657D01*
X216Y656D02*
X224Y656D01*
X232Y656D02*
X238Y656D01*
X247Y656D02*
X253Y656D01*
X217Y655D02*
X224Y655D01*
X231Y655D02*
X238Y655D01*
X246Y655D02*
X253Y655D01*
X218Y654D02*
X225Y654D01*
X230Y654D02*
X252Y654D01*
X217Y653D02*
X252Y653D01*
X215Y652D02*
X251Y652D01*
X215Y651D02*
X251Y651D01*
X215Y650D02*
X250Y650D01*
X215Y649D02*
X248Y649D01*
X215Y648D02*
X247Y648D01*
X216Y647D02*
X237Y647D01*
X223Y630D02*
X244Y630D01*
X221Y629D02*
X246Y629D01*
X220Y628D02*
X247Y628D01*
X219Y627D02*
X248Y627D01*
X218Y626D02*
X249Y626D01*
X217Y625D02*
X250Y625D01*
X217Y624D02*
X251Y624D01*
X216Y623D02*
X224Y623D01*
X243Y623D02*
X252Y623D01*
X215Y622D02*
X223Y622D01*
X244Y622D02*
X252Y622D01*
X215Y621D02*
X222Y621D01*
X245Y621D02*
X252Y621D01*
X215Y620D02*
X221Y620D01*
X246Y620D02*
X253Y620D01*
X215Y619D02*
X221Y619D01*
X247Y619D02*
X253Y619D01*
X215Y618D02*
X221Y618D01*
X247Y618D02*
X253Y618D01*
X215Y617D02*
X221Y617D01*
X247Y617D02*
X253Y617D01*
X215Y616D02*
X221Y616D01*
X247Y616D02*
X253Y616D01*
X215Y615D02*
X221Y615D01*
X247Y615D02*
X253Y615D01*
X215Y614D02*
X221Y614D01*
X247Y614D02*
X253Y614D01*
X215Y613D02*
X221Y613D01*
X247Y613D02*
X253Y613D01*
X215Y612D02*
X221Y612D01*
X247Y612D02*
X253Y612D01*
X215Y611D02*
X221Y611D01*
X247Y611D02*
X253Y611D01*
X215Y610D02*
X222Y610D01*
X246Y610D02*
X253Y610D01*
X215Y609D02*
X223Y609D01*
X245Y609D02*
X252Y609D01*
X216Y608D02*
X223Y608D01*
X244Y608D02*
X252Y608D01*
X216Y607D02*
X224Y607D01*
X243Y607D02*
X251Y607D01*
X217Y606D02*
X225Y606D01*
X242Y606D02*
X251Y606D01*
X218Y605D02*
X226Y605D01*
X242Y605D02*
X250Y605D01*
X218Y604D02*
X227Y604D01*
X240Y604D02*
X249Y604D01*
X217Y603D02*
X265Y603D01*
X216Y602D02*
X267Y602D01*
X215Y601D02*
X267Y601D01*
X215Y600D02*
X268Y600D01*
X215Y599D02*
X268Y599D01*
X215Y598D02*
X267Y598D01*
X216Y597D02*
X266Y597D01*
X224Y580D02*
X243Y580D01*
X222Y579D02*
X246Y579D01*
X220Y578D02*
X247Y578D01*
X219Y577D02*
X248Y577D01*
X218Y576D02*
X249Y576D01*
X218Y575D02*
X250Y575D01*
X217Y574D02*
X251Y574D01*
X216Y573D02*
X224Y573D01*
X229Y573D02*
X235Y573D01*
X243Y573D02*
X251Y573D01*
X216Y572D02*
X223Y572D01*
X229Y572D02*
X235Y572D01*
X244Y572D02*
X252Y572D01*
X215Y571D02*
X222Y571D01*
X229Y571D02*
X235Y571D01*
X245Y571D02*
X252Y571D01*
X215Y570D02*
X222Y570D01*
X229Y570D02*
X235Y570D01*
X246Y570D02*
X253Y570D01*
X215Y569D02*
X221Y569D01*
X229Y569D02*
X235Y569D01*
X247Y569D02*
X253Y569D01*
X215Y568D02*
X221Y568D01*
X229Y568D02*
X235Y568D01*
X247Y568D02*
X253Y568D01*
X215Y567D02*
X221Y567D01*
X229Y567D02*
X235Y567D01*
X247Y567D02*
X253Y567D01*
X215Y566D02*
X221Y566D01*
X229Y566D02*
X235Y566D01*
X247Y566D02*
X253Y566D01*
X215Y565D02*
X221Y565D01*
X229Y565D02*
X235Y565D01*
X247Y565D02*
X253Y565D01*
X215Y564D02*
X221Y564D01*
X229Y564D02*
X235Y564D01*
X247Y564D02*
X253Y564D01*
X215Y563D02*
X221Y563D01*
X229Y563D02*
X235Y563D01*
X247Y563D02*
X253Y563D01*
X215Y562D02*
X221Y562D01*
X229Y562D02*
X235Y562D01*
X247Y562D02*
X253Y562D01*
X215Y561D02*
X221Y561D01*
X229Y561D02*
X235Y561D01*
X247Y561D02*
X253Y561D01*
X215Y560D02*
X221Y560D01*
X229Y560D02*
X235Y560D01*
X247Y560D02*
X253Y560D01*
X215Y559D02*
X221Y559D01*
X229Y559D02*
X235Y559D01*
X247Y559D02*
X253Y559D01*
X215Y558D02*
X221Y558D01*
X229Y558D02*
X235Y558D01*
X247Y558D02*
X253Y558D01*
X215Y557D02*
X221Y557D01*
X229Y557D02*
X235Y557D01*
X246Y557D02*
X253Y557D01*
X215Y556D02*
X221Y556D01*
X229Y556D02*
X235Y556D01*
X246Y556D02*
X253Y556D01*
X215Y555D02*
X221Y555D01*
X229Y555D02*
X235Y555D01*
X245Y555D02*
X252Y555D01*
X215Y554D02*
X221Y554D01*
X229Y554D02*
X235Y554D01*
X244Y554D02*
X252Y554D01*
X215Y553D02*
X221Y553D01*
X229Y553D02*
X236Y553D01*
X242Y553D02*
X251Y553D01*
X215Y552D02*
X221Y552D01*
X229Y552D02*
X250Y552D01*
X215Y551D02*
X221Y551D01*
X229Y551D02*
X250Y551D01*
X215Y550D02*
X221Y550D01*
X229Y550D02*
X249Y550D01*
X215Y549D02*
X220Y549D01*
X229Y549D02*
X248Y549D01*
X215Y548D02*
X220Y548D01*
X230Y548D02*
X247Y548D01*
X216Y547D02*
X219Y547D01*
X230Y547D02*
X245Y547D01*
X232Y546D02*
X241Y546D01*
X217Y530D02*
X251Y530D01*
X215Y529D02*
X252Y529D01*
X215Y528D02*
X253Y528D01*
X215Y527D02*
X253Y527D01*
X215Y526D02*
X253Y526D01*
X215Y525D02*
X252Y525D01*
X216Y524D02*
X251Y524D01*
X237Y523D02*
X246Y523D01*
X238Y522D02*
X246Y522D01*
X239Y521D02*
X247Y521D01*
X240Y520D02*
X248Y520D01*
X241Y519D02*
X249Y519D01*
X242Y518D02*
X250Y518D01*
X242Y517D02*
X251Y517D01*
X243Y516D02*
X252Y516D01*
X244Y515D02*
X252Y515D01*
X245Y514D02*
X253Y514D01*
X246Y513D02*
X253Y513D01*
X247Y512D02*
X253Y512D01*
X247Y511D02*
X253Y511D01*
X247Y510D02*
X253Y510D01*
X247Y509D02*
X253Y509D01*
X247Y508D02*
X253Y508D01*
X247Y507D02*
X253Y507D01*
X247Y506D02*
X253Y506D01*
X247Y505D02*
X253Y505D01*
X246Y504D02*
X253Y504D01*
X245Y503D02*
X252Y503D01*
X239Y502D02*
X252Y502D01*
X239Y501D02*
X252Y501D01*
X238Y500D02*
X251Y500D01*
X238Y499D02*
X250Y499D01*
X238Y498D02*
X249Y498D01*
X239Y497D02*
X247Y497D01*
X240Y496D02*
X245Y496D01*
X587Y245D02*
X589Y245D01*
X636Y245D02*
X667Y245D01*
X688Y245D02*
X704Y245D01*
X886Y245D02*
X912Y245D01*
X586Y244D02*
X590Y244D01*
X635Y244D02*
X668Y244D01*
X686Y244D02*
X706Y244D01*
X886Y244D02*
X914Y244D01*
X585Y243D02*
X591Y243D01*
X635Y243D02*
X669Y243D01*
X686Y243D02*
X707Y243D01*
X886Y243D02*
X916Y243D01*
X585Y242D02*
X591Y242D01*
X635Y242D02*
X669Y242D01*
X686Y242D02*
X709Y242D01*
X886Y242D02*
X917Y242D01*
X585Y241D02*
X591Y241D01*
X635Y241D02*
X669Y241D01*
X686Y241D02*
X709Y241D01*
X886Y241D02*
X918Y241D01*
X585Y240D02*
X591Y240D01*
X635Y240D02*
X668Y240D01*
X686Y240D02*
X710Y240D01*
X886Y240D02*
X918Y240D01*
X1168Y240D02*
X1198Y240D01*
X1399Y240D02*
X1399Y240D01*
X585Y239D02*
X591Y239D01*
X635Y239D02*
X667Y239D01*
X687Y239D02*
X711Y239D01*
X886Y239D02*
X919Y239D01*
X1168Y239D02*
X1200Y239D01*
X1397Y239D02*
X1401Y239D01*
X585Y238D02*
X591Y238D01*
X635Y238D02*
X642Y238D01*
X692Y238D02*
X699Y238D01*
X703Y238D02*
X711Y238D01*
X886Y238D02*
X892Y238D01*
X912Y238D02*
X919Y238D01*
X1168Y238D02*
X1201Y238D01*
X1396Y238D02*
X1402Y238D01*
X585Y237D02*
X591Y237D01*
X635Y237D02*
X641Y237D01*
X692Y237D02*
X699Y237D01*
X705Y237D02*
X712Y237D01*
X886Y237D02*
X892Y237D01*
X913Y237D02*
X920Y237D01*
X1168Y237D02*
X1201Y237D01*
X1396Y237D02*
X1402Y237D01*
X585Y236D02*
X591Y236D01*
X635Y236D02*
X641Y236D01*
X692Y236D02*
X699Y236D01*
X705Y236D02*
X712Y236D01*
X886Y236D02*
X892Y236D01*
X914Y236D02*
X920Y236D01*
X1168Y236D02*
X1201Y236D01*
X1396Y236D02*
X1402Y236D01*
X585Y235D02*
X591Y235D01*
X635Y235D02*
X641Y235D01*
X692Y235D02*
X699Y235D01*
X706Y235D02*
X713Y235D01*
X886Y235D02*
X892Y235D01*
X914Y235D02*
X920Y235D01*
X1168Y235D02*
X1201Y235D01*
X1396Y235D02*
X1402Y235D01*
X585Y234D02*
X591Y234D01*
X635Y234D02*
X641Y234D01*
X692Y234D02*
X699Y234D01*
X706Y234D02*
X713Y234D01*
X886Y234D02*
X892Y234D01*
X914Y234D02*
X920Y234D01*
X1168Y234D02*
X1200Y234D01*
X1396Y234D02*
X1402Y234D01*
X585Y233D02*
X591Y233D01*
X635Y233D02*
X641Y233D01*
X692Y233D02*
X699Y233D01*
X707Y233D02*
X714Y233D01*
X886Y233D02*
X892Y233D01*
X914Y233D02*
X920Y233D01*
X1168Y233D02*
X1174Y233D01*
X1396Y233D02*
X1402Y233D01*
X585Y232D02*
X591Y232D01*
X635Y232D02*
X641Y232D01*
X692Y232D02*
X699Y232D01*
X707Y232D02*
X714Y232D01*
X886Y232D02*
X892Y232D01*
X914Y232D02*
X920Y232D01*
X1168Y232D02*
X1174Y232D01*
X1396Y232D02*
X1402Y232D01*
X585Y231D02*
X591Y231D01*
X635Y231D02*
X641Y231D01*
X692Y231D02*
X699Y231D01*
X708Y231D02*
X715Y231D01*
X886Y231D02*
X892Y231D01*
X914Y231D02*
X920Y231D01*
X1168Y231D02*
X1174Y231D01*
X1396Y231D02*
X1402Y231D01*
X585Y230D02*
X591Y230D01*
X635Y230D02*
X641Y230D01*
X692Y230D02*
X699Y230D01*
X708Y230D02*
X715Y230D01*
X886Y230D02*
X892Y230D01*
X914Y230D02*
X920Y230D01*
X946Y230D02*
X961Y230D01*
X988Y230D02*
X990Y230D01*
X1017Y230D02*
X1019Y230D01*
X1046Y230D02*
X1061Y230D01*
X1089Y230D02*
X1091Y230D01*
X1102Y230D02*
X1114Y230D01*
X1168Y230D02*
X1174Y230D01*
X1396Y230D02*
X1402Y230D01*
X585Y229D02*
X591Y229D01*
X635Y229D02*
X641Y229D01*
X692Y229D02*
X699Y229D01*
X709Y229D02*
X716Y229D01*
X886Y229D02*
X892Y229D01*
X914Y229D02*
X920Y229D01*
X944Y229D02*
X963Y229D01*
X987Y229D02*
X991Y229D01*
X1016Y229D02*
X1020Y229D01*
X1044Y229D02*
X1063Y229D01*
X1088Y229D02*
X1092Y229D01*
X1101Y229D02*
X1116Y229D01*
X1168Y229D02*
X1174Y229D01*
X1396Y229D02*
X1402Y229D01*
X585Y228D02*
X591Y228D01*
X635Y228D02*
X641Y228D01*
X692Y228D02*
X699Y228D01*
X709Y228D02*
X716Y228D01*
X886Y228D02*
X892Y228D01*
X914Y228D02*
X920Y228D01*
X943Y228D02*
X964Y228D01*
X986Y228D02*
X992Y228D01*
X1015Y228D02*
X1021Y228D01*
X1043Y228D02*
X1064Y228D01*
X1087Y228D02*
X1093Y228D01*
X1100Y228D02*
X1117Y228D01*
X1168Y228D02*
X1174Y228D01*
X1396Y228D02*
X1402Y228D01*
X585Y227D02*
X591Y227D01*
X635Y227D02*
X641Y227D01*
X692Y227D02*
X699Y227D01*
X710Y227D02*
X717Y227D01*
X886Y227D02*
X892Y227D01*
X914Y227D02*
X920Y227D01*
X941Y227D02*
X965Y227D01*
X986Y227D02*
X992Y227D01*
X1015Y227D02*
X1021Y227D01*
X1042Y227D02*
X1066Y227D01*
X1087Y227D02*
X1093Y227D01*
X1099Y227D02*
X1118Y227D01*
X1168Y227D02*
X1174Y227D01*
X1396Y227D02*
X1402Y227D01*
X585Y226D02*
X591Y226D01*
X635Y226D02*
X641Y226D01*
X692Y226D02*
X699Y226D01*
X710Y226D02*
X717Y226D01*
X886Y226D02*
X892Y226D01*
X914Y226D02*
X920Y226D01*
X940Y226D02*
X966Y226D01*
X986Y226D02*
X992Y226D01*
X1015Y226D02*
X1021Y226D01*
X1041Y226D02*
X1067Y226D01*
X1087Y226D02*
X1093Y226D01*
X1098Y226D02*
X1119Y226D01*
X1168Y226D02*
X1174Y226D01*
X1396Y226D02*
X1402Y226D01*
X585Y225D02*
X591Y225D01*
X635Y225D02*
X641Y225D01*
X692Y225D02*
X699Y225D01*
X711Y225D02*
X718Y225D01*
X886Y225D02*
X892Y225D01*
X914Y225D02*
X920Y225D01*
X939Y225D02*
X967Y225D01*
X986Y225D02*
X992Y225D01*
X1015Y225D02*
X1021Y225D01*
X1040Y225D02*
X1068Y225D01*
X1087Y225D02*
X1093Y225D01*
X1096Y225D02*
X1119Y225D01*
X1168Y225D02*
X1174Y225D01*
X1220Y225D02*
X1222Y225D01*
X1235Y225D02*
X1243Y225D01*
X1282Y225D02*
X1300Y225D01*
X1329Y225D02*
X1342Y225D01*
X1379Y225D02*
X1388Y225D01*
X1396Y225D02*
X1402Y225D01*
X1429Y225D02*
X1442Y225D01*
X1471Y225D02*
X1473Y225D01*
X1485Y225D02*
X1495Y225D01*
X585Y224D02*
X591Y224D01*
X635Y224D02*
X641Y224D01*
X692Y224D02*
X699Y224D01*
X711Y224D02*
X718Y224D01*
X886Y224D02*
X892Y224D01*
X914Y224D02*
X920Y224D01*
X938Y224D02*
X968Y224D01*
X986Y224D02*
X992Y224D01*
X1015Y224D02*
X1021Y224D01*
X1039Y224D02*
X1069Y224D01*
X1087Y224D02*
X1093Y224D01*
X1095Y224D02*
X1120Y224D01*
X1168Y224D02*
X1174Y224D01*
X1219Y224D02*
X1223Y224D01*
X1232Y224D02*
X1245Y224D01*
X1280Y224D02*
X1301Y224D01*
X1326Y224D02*
X1344Y224D01*
X1376Y224D02*
X1391Y224D01*
X1396Y224D02*
X1402Y224D01*
X1427Y224D02*
X1445Y224D01*
X1470Y224D02*
X1474Y224D01*
X1483Y224D02*
X1497Y224D01*
X585Y223D02*
X591Y223D01*
X635Y223D02*
X641Y223D01*
X692Y223D02*
X699Y223D01*
X712Y223D02*
X718Y223D01*
X886Y223D02*
X892Y223D01*
X914Y223D02*
X920Y223D01*
X938Y223D02*
X946Y223D01*
X960Y223D02*
X969Y223D01*
X986Y223D02*
X992Y223D01*
X1015Y223D02*
X1021Y223D01*
X1038Y223D02*
X1047Y223D01*
X1060Y223D02*
X1069Y223D01*
X1087Y223D02*
X1104Y223D01*
X1113Y223D02*
X1120Y223D01*
X1168Y223D02*
X1174Y223D01*
X1218Y223D02*
X1224Y223D01*
X1231Y223D02*
X1247Y223D01*
X1278Y223D02*
X1302Y223D01*
X1325Y223D02*
X1346Y223D01*
X1375Y223D02*
X1392Y223D01*
X1396Y223D02*
X1402Y223D01*
X1425Y223D02*
X1446Y223D01*
X1469Y223D02*
X1475Y223D01*
X1482Y223D02*
X1499Y223D01*
X585Y222D02*
X591Y222D01*
X635Y222D02*
X642Y222D01*
X692Y222D02*
X699Y222D01*
X712Y222D02*
X719Y222D01*
X886Y222D02*
X892Y222D01*
X914Y222D02*
X920Y222D01*
X937Y222D02*
X945Y222D01*
X962Y222D02*
X969Y222D01*
X986Y222D02*
X992Y222D01*
X1015Y222D02*
X1021Y222D01*
X1038Y222D02*
X1046Y222D01*
X1062Y222D02*
X1070Y222D01*
X1087Y222D02*
X1103Y222D01*
X1114Y222D02*
X1120Y222D01*
X1168Y222D02*
X1174Y222D01*
X1218Y222D02*
X1224Y222D01*
X1229Y222D02*
X1248Y222D01*
X1276Y222D02*
X1302Y222D01*
X1324Y222D02*
X1347Y222D01*
X1374Y222D02*
X1394Y222D01*
X1396Y222D02*
X1402Y222D01*
X1424Y222D02*
X1447Y222D01*
X1469Y222D02*
X1475Y222D01*
X1481Y222D02*
X1500Y222D01*
X585Y221D02*
X591Y221D01*
X635Y221D02*
X654Y221D01*
X692Y221D02*
X699Y221D01*
X713Y221D02*
X719Y221D01*
X787Y221D02*
X818Y221D01*
X886Y221D02*
X892Y221D01*
X914Y221D02*
X920Y221D01*
X937Y221D02*
X944Y221D01*
X963Y221D02*
X970Y221D01*
X986Y221D02*
X992Y221D01*
X1015Y221D02*
X1021Y221D01*
X1037Y221D02*
X1044Y221D01*
X1063Y221D02*
X1070Y221D01*
X1087Y221D02*
X1102Y221D01*
X1114Y221D02*
X1121Y221D01*
X1168Y221D02*
X1174Y221D01*
X1218Y221D02*
X1224Y221D01*
X1227Y221D02*
X1249Y221D01*
X1275Y221D02*
X1302Y221D01*
X1322Y221D02*
X1348Y221D01*
X1373Y221D02*
X1402Y221D01*
X1423Y221D02*
X1448Y221D01*
X1469Y221D02*
X1475Y221D01*
X1480Y221D02*
X1501Y221D01*
X585Y220D02*
X591Y220D01*
X635Y220D02*
X655Y220D01*
X692Y220D02*
X699Y220D01*
X713Y220D02*
X719Y220D01*
X786Y220D02*
X819Y220D01*
X886Y220D02*
X892Y220D01*
X913Y220D02*
X920Y220D01*
X937Y220D02*
X943Y220D01*
X963Y220D02*
X970Y220D01*
X986Y220D02*
X992Y220D01*
X1015Y220D02*
X1021Y220D01*
X1037Y220D02*
X1044Y220D01*
X1064Y220D02*
X1070Y220D01*
X1087Y220D02*
X1100Y220D01*
X1115Y220D02*
X1121Y220D01*
X1168Y220D02*
X1174Y220D01*
X1218Y220D02*
X1224Y220D01*
X1226Y220D02*
X1249Y220D01*
X1274Y220D02*
X1301Y220D01*
X1321Y220D02*
X1349Y220D01*
X1372Y220D02*
X1402Y220D01*
X1422Y220D02*
X1449Y220D01*
X1469Y220D02*
X1475Y220D01*
X1479Y220D02*
X1501Y220D01*
X585Y219D02*
X591Y219D01*
X635Y219D02*
X655Y219D01*
X692Y219D02*
X699Y219D01*
X713Y219D02*
X719Y219D01*
X786Y219D02*
X819Y219D01*
X886Y219D02*
X893Y219D01*
X911Y219D02*
X919Y219D01*
X937Y219D02*
X943Y219D01*
X964Y219D02*
X970Y219D01*
X986Y219D02*
X992Y219D01*
X1015Y219D02*
X1021Y219D01*
X1037Y219D02*
X1043Y219D01*
X1064Y219D02*
X1070Y219D01*
X1087Y219D02*
X1099Y219D01*
X1115Y219D02*
X1121Y219D01*
X1168Y219D02*
X1174Y219D01*
X1218Y219D02*
X1250Y219D01*
X1273Y219D02*
X1300Y219D01*
X1321Y219D02*
X1350Y219D01*
X1371Y219D02*
X1402Y219D01*
X1421Y219D02*
X1450Y219D01*
X1469Y219D02*
X1475Y219D01*
X1477Y219D02*
X1502Y219D01*
X585Y218D02*
X591Y218D01*
X635Y218D02*
X655Y218D01*
X692Y218D02*
X699Y218D01*
X713Y218D02*
X719Y218D01*
X786Y218D02*
X820Y218D01*
X886Y218D02*
X919Y218D01*
X937Y218D02*
X943Y218D01*
X964Y218D02*
X970Y218D01*
X986Y218D02*
X992Y218D01*
X1002Y218D02*
X1005Y218D01*
X1015Y218D02*
X1021Y218D01*
X1037Y218D02*
X1043Y218D01*
X1064Y218D02*
X1070Y218D01*
X1087Y218D02*
X1098Y218D01*
X1115Y218D02*
X1121Y218D01*
X1168Y218D02*
X1174Y218D01*
X1218Y218D02*
X1235Y218D01*
X1243Y218D02*
X1250Y218D01*
X1272Y218D02*
X1282Y218D01*
X1320Y218D02*
X1329Y218D01*
X1341Y218D02*
X1351Y218D01*
X1370Y218D02*
X1379Y218D01*
X1388Y218D02*
X1402Y218D01*
X1420Y218D02*
X1429Y218D01*
X1442Y218D02*
X1451Y218D01*
X1469Y218D02*
X1486Y218D01*
X1495Y218D02*
X1502Y218D01*
X585Y217D02*
X591Y217D01*
X635Y217D02*
X655Y217D01*
X692Y217D02*
X699Y217D01*
X713Y217D02*
X719Y217D01*
X786Y217D02*
X820Y217D01*
X886Y217D02*
X918Y217D01*
X937Y217D02*
X943Y217D01*
X964Y217D02*
X970Y217D01*
X986Y217D02*
X992Y217D01*
X1001Y217D02*
X1006Y217D01*
X1015Y217D02*
X1021Y217D01*
X1037Y217D02*
X1043Y217D01*
X1064Y217D02*
X1070Y217D01*
X1087Y217D02*
X1097Y217D01*
X1115Y217D02*
X1120Y217D01*
X1168Y217D02*
X1174Y217D01*
X1218Y217D02*
X1233Y217D01*
X1244Y217D02*
X1250Y217D01*
X1271Y217D02*
X1281Y217D01*
X1319Y217D02*
X1327Y217D01*
X1343Y217D02*
X1351Y217D01*
X1369Y217D02*
X1378Y217D01*
X1390Y217D02*
X1402Y217D01*
X1420Y217D02*
X1428Y217D01*
X1444Y217D02*
X1451Y217D01*
X1469Y217D02*
X1485Y217D01*
X1496Y217D02*
X1502Y217D01*
X585Y216D02*
X591Y216D01*
X635Y216D02*
X654Y216D01*
X692Y216D02*
X699Y216D01*
X713Y216D02*
X719Y216D01*
X786Y216D02*
X820Y216D01*
X886Y216D02*
X918Y216D01*
X937Y216D02*
X943Y216D01*
X964Y216D02*
X970Y216D01*
X986Y216D02*
X992Y216D01*
X1001Y216D02*
X1006Y216D01*
X1015Y216D02*
X1021Y216D01*
X1037Y216D02*
X1043Y216D01*
X1064Y216D02*
X1070Y216D01*
X1087Y216D02*
X1096Y216D01*
X1116Y216D02*
X1120Y216D01*
X1168Y216D02*
X1186Y216D01*
X1218Y216D02*
X1232Y216D01*
X1244Y216D02*
X1251Y216D01*
X1270Y216D02*
X1280Y216D01*
X1319Y216D02*
X1326Y216D01*
X1344Y216D02*
X1351Y216D01*
X1369Y216D02*
X1376Y216D01*
X1391Y216D02*
X1402Y216D01*
X1419Y216D02*
X1427Y216D01*
X1445Y216D02*
X1452Y216D01*
X1469Y216D02*
X1484Y216D01*
X1496Y216D02*
X1502Y216D01*
X585Y215D02*
X591Y215D01*
X635Y215D02*
X653Y215D01*
X692Y215D02*
X699Y215D01*
X712Y215D02*
X719Y215D01*
X786Y215D02*
X819Y215D01*
X886Y215D02*
X917Y215D01*
X937Y215D02*
X943Y215D01*
X964Y215D02*
X970Y215D01*
X986Y215D02*
X992Y215D01*
X1000Y215D02*
X1006Y215D01*
X1015Y215D02*
X1021Y215D01*
X1037Y215D02*
X1043Y215D01*
X1064Y215D02*
X1070Y215D01*
X1087Y215D02*
X1095Y215D01*
X1117Y215D02*
X1118Y215D01*
X1168Y215D02*
X1187Y215D01*
X1218Y215D02*
X1230Y215D01*
X1245Y215D02*
X1251Y215D01*
X1270Y215D02*
X1278Y215D01*
X1319Y215D02*
X1325Y215D01*
X1345Y215D02*
X1352Y215D01*
X1369Y215D02*
X1375Y215D01*
X1392Y215D02*
X1402Y215D01*
X1419Y215D02*
X1426Y215D01*
X1445Y215D02*
X1452Y215D01*
X1469Y215D02*
X1483Y215D01*
X1496Y215D02*
X1503Y215D01*
X585Y214D02*
X591Y214D01*
X635Y214D02*
X641Y214D01*
X692Y214D02*
X699Y214D01*
X712Y214D02*
X718Y214D01*
X786Y214D02*
X819Y214D01*
X886Y214D02*
X916Y214D01*
X937Y214D02*
X943Y214D01*
X964Y214D02*
X970Y214D01*
X986Y214D02*
X992Y214D01*
X1000Y214D02*
X1006Y214D01*
X1014Y214D02*
X1020Y214D01*
X1037Y214D02*
X1043Y214D01*
X1064Y214D02*
X1070Y214D01*
X1087Y214D02*
X1093Y214D01*
X1168Y214D02*
X1187Y214D01*
X1218Y214D02*
X1229Y214D01*
X1245Y214D02*
X1251Y214D01*
X1269Y214D02*
X1277Y214D01*
X1319Y214D02*
X1325Y214D01*
X1346Y214D02*
X1352Y214D01*
X1369Y214D02*
X1375Y214D01*
X1393Y214D02*
X1402Y214D01*
X1419Y214D02*
X1425Y214D01*
X1446Y214D02*
X1452Y214D01*
X1469Y214D02*
X1481Y214D01*
X1496Y214D02*
X1503Y214D01*
X585Y213D02*
X591Y213D01*
X635Y213D02*
X641Y213D01*
X692Y213D02*
X699Y213D01*
X712Y213D02*
X718Y213D01*
X787Y213D02*
X819Y213D01*
X886Y213D02*
X914Y213D01*
X937Y213D02*
X943Y213D01*
X964Y213D02*
X970Y213D01*
X986Y213D02*
X992Y213D01*
X1000Y213D02*
X1006Y213D01*
X1014Y213D02*
X1020Y213D01*
X1037Y213D02*
X1043Y213D01*
X1064Y213D02*
X1070Y213D01*
X1087Y213D02*
X1093Y213D01*
X1168Y213D02*
X1188Y213D01*
X1218Y213D02*
X1227Y213D01*
X1245Y213D02*
X1251Y213D01*
X1269Y213D02*
X1276Y213D01*
X1318Y213D02*
X1324Y213D01*
X1346Y213D02*
X1352Y213D01*
X1369Y213D02*
X1375Y213D01*
X1394Y213D02*
X1402Y213D01*
X1419Y213D02*
X1425Y213D01*
X1446Y213D02*
X1452Y213D01*
X1469Y213D02*
X1480Y213D01*
X1497Y213D02*
X1502Y213D01*
X585Y212D02*
X591Y212D01*
X635Y212D02*
X641Y212D01*
X692Y212D02*
X699Y212D01*
X711Y212D02*
X718Y212D01*
X788Y212D02*
X817Y212D01*
X886Y212D02*
X911Y212D01*
X937Y212D02*
X943Y212D01*
X964Y212D02*
X970Y212D01*
X986Y212D02*
X992Y212D01*
X1000Y212D02*
X1006Y212D01*
X1014Y212D02*
X1020Y212D01*
X1037Y212D02*
X1070Y212D01*
X1087Y212D02*
X1093Y212D01*
X1168Y212D02*
X1187Y212D01*
X1218Y212D02*
X1225Y212D01*
X1245Y212D02*
X1251Y212D01*
X1268Y212D02*
X1275Y212D01*
X1318Y212D02*
X1324Y212D01*
X1346Y212D02*
X1352Y212D01*
X1369Y212D02*
X1375Y212D01*
X1395Y212D02*
X1402Y212D01*
X1419Y212D02*
X1425Y212D01*
X1446Y212D02*
X1452Y212D01*
X1469Y212D02*
X1479Y212D01*
X1497Y212D02*
X1502Y212D01*
X585Y211D02*
X591Y211D01*
X635Y211D02*
X641Y211D01*
X692Y211D02*
X699Y211D01*
X711Y211D02*
X717Y211D01*
X886Y211D02*
X892Y211D01*
X937Y211D02*
X943Y211D01*
X964Y211D02*
X970Y211D01*
X986Y211D02*
X993Y211D01*
X1000Y211D02*
X1006Y211D01*
X1014Y211D02*
X1020Y211D01*
X1037Y211D02*
X1070Y211D01*
X1087Y211D02*
X1093Y211D01*
X1168Y211D02*
X1187Y211D01*
X1218Y211D02*
X1224Y211D01*
X1245Y211D02*
X1251Y211D01*
X1268Y211D02*
X1274Y211D01*
X1318Y211D02*
X1324Y211D01*
X1346Y211D02*
X1352Y211D01*
X1369Y211D02*
X1375Y211D01*
X1396Y211D02*
X1402Y211D01*
X1419Y211D02*
X1425Y211D01*
X1446Y211D02*
X1452Y211D01*
X1469Y211D02*
X1478Y211D01*
X1497Y211D02*
X1502Y211D01*
X585Y210D02*
X591Y210D01*
X635Y210D02*
X641Y210D01*
X692Y210D02*
X699Y210D01*
X710Y210D02*
X717Y210D01*
X886Y210D02*
X892Y210D01*
X937Y210D02*
X943Y210D01*
X964Y210D02*
X970Y210D01*
X986Y210D02*
X993Y210D01*
X1000Y210D02*
X1006Y210D01*
X1014Y210D02*
X1020Y210D01*
X1037Y210D02*
X1070Y210D01*
X1087Y210D02*
X1093Y210D01*
X1168Y210D02*
X1186Y210D01*
X1218Y210D02*
X1224Y210D01*
X1245Y210D02*
X1251Y210D01*
X1268Y210D02*
X1274Y210D01*
X1318Y210D02*
X1324Y210D01*
X1346Y210D02*
X1352Y210D01*
X1369Y210D02*
X1375Y210D01*
X1396Y210D02*
X1402Y210D01*
X1419Y210D02*
X1425Y210D01*
X1446Y210D02*
X1452Y210D01*
X1469Y210D02*
X1477Y210D01*
X1498Y210D02*
X1501Y210D01*
X585Y209D02*
X591Y209D01*
X635Y209D02*
X641Y209D01*
X692Y209D02*
X699Y209D01*
X710Y209D02*
X716Y209D01*
X886Y209D02*
X892Y209D01*
X937Y209D02*
X943Y209D01*
X964Y209D02*
X970Y209D01*
X987Y209D02*
X993Y209D01*
X1000Y209D02*
X1006Y209D01*
X1014Y209D02*
X1020Y209D01*
X1037Y209D02*
X1070Y209D01*
X1087Y209D02*
X1093Y209D01*
X1168Y209D02*
X1174Y209D01*
X1218Y209D02*
X1224Y209D01*
X1245Y209D02*
X1251Y209D01*
X1268Y209D02*
X1274Y209D01*
X1318Y209D02*
X1324Y209D01*
X1346Y209D02*
X1352Y209D01*
X1369Y209D02*
X1375Y209D01*
X1396Y209D02*
X1402Y209D01*
X1419Y209D02*
X1425Y209D01*
X1446Y209D02*
X1452Y209D01*
X1469Y209D02*
X1476Y209D01*
X585Y208D02*
X591Y208D01*
X635Y208D02*
X641Y208D01*
X692Y208D02*
X699Y208D01*
X709Y208D02*
X716Y208D01*
X886Y208D02*
X892Y208D01*
X937Y208D02*
X943Y208D01*
X964Y208D02*
X970Y208D01*
X987Y208D02*
X993Y208D01*
X1000Y208D02*
X1006Y208D01*
X1014Y208D02*
X1020Y208D01*
X1037Y208D02*
X1070Y208D01*
X1087Y208D02*
X1093Y208D01*
X1168Y208D02*
X1174Y208D01*
X1218Y208D02*
X1224Y208D01*
X1245Y208D02*
X1251Y208D01*
X1268Y208D02*
X1274Y208D01*
X1318Y208D02*
X1324Y208D01*
X1346Y208D02*
X1352Y208D01*
X1369Y208D02*
X1375Y208D01*
X1396Y208D02*
X1402Y208D01*
X1419Y208D02*
X1425Y208D01*
X1446Y208D02*
X1452Y208D01*
X1469Y208D02*
X1475Y208D01*
X585Y207D02*
X591Y207D01*
X635Y207D02*
X641Y207D01*
X692Y207D02*
X699Y207D01*
X709Y207D02*
X715Y207D01*
X886Y207D02*
X892Y207D01*
X937Y207D02*
X943Y207D01*
X964Y207D02*
X970Y207D01*
X987Y207D02*
X993Y207D01*
X1000Y207D02*
X1007Y207D01*
X1014Y207D02*
X1020Y207D01*
X1037Y207D02*
X1069Y207D01*
X1087Y207D02*
X1093Y207D01*
X1168Y207D02*
X1174Y207D01*
X1218Y207D02*
X1224Y207D01*
X1245Y207D02*
X1251Y207D01*
X1268Y207D02*
X1274Y207D01*
X1318Y207D02*
X1324Y207D01*
X1346Y207D02*
X1352Y207D01*
X1369Y207D02*
X1375Y207D01*
X1396Y207D02*
X1402Y207D01*
X1419Y207D02*
X1452Y207D01*
X1469Y207D02*
X1475Y207D01*
X585Y206D02*
X591Y206D01*
X635Y206D02*
X641Y206D01*
X692Y206D02*
X699Y206D01*
X708Y206D02*
X715Y206D01*
X886Y206D02*
X892Y206D01*
X937Y206D02*
X943Y206D01*
X964Y206D02*
X970Y206D01*
X987Y206D02*
X993Y206D01*
X1000Y206D02*
X1007Y206D01*
X1014Y206D02*
X1020Y206D01*
X1037Y206D02*
X1067Y206D01*
X1087Y206D02*
X1093Y206D01*
X1168Y206D02*
X1174Y206D01*
X1218Y206D02*
X1224Y206D01*
X1245Y206D02*
X1251Y206D01*
X1268Y206D02*
X1274Y206D01*
X1318Y206D02*
X1324Y206D01*
X1346Y206D02*
X1352Y206D01*
X1369Y206D02*
X1375Y206D01*
X1396Y206D02*
X1402Y206D01*
X1419Y206D02*
X1452Y206D01*
X1469Y206D02*
X1475Y206D01*
X585Y205D02*
X591Y205D01*
X635Y205D02*
X641Y205D01*
X692Y205D02*
X699Y205D01*
X707Y205D02*
X714Y205D01*
X886Y205D02*
X892Y205D01*
X937Y205D02*
X943Y205D01*
X964Y205D02*
X970Y205D01*
X987Y205D02*
X993Y205D01*
X999Y205D02*
X1008Y205D01*
X1014Y205D02*
X1020Y205D01*
X1037Y205D02*
X1043Y205D01*
X1087Y205D02*
X1093Y205D01*
X1168Y205D02*
X1174Y205D01*
X1218Y205D02*
X1224Y205D01*
X1245Y205D02*
X1251Y205D01*
X1268Y205D02*
X1274Y205D01*
X1318Y205D02*
X1324Y205D01*
X1346Y205D02*
X1352Y205D01*
X1369Y205D02*
X1375Y205D01*
X1396Y205D02*
X1402Y205D01*
X1419Y205D02*
X1452Y205D01*
X1469Y205D02*
X1475Y205D01*
X585Y204D02*
X591Y204D01*
X635Y204D02*
X641Y204D01*
X692Y204D02*
X699Y204D01*
X707Y204D02*
X714Y204D01*
X886Y204D02*
X892Y204D01*
X937Y204D02*
X943Y204D01*
X964Y204D02*
X970Y204D01*
X987Y204D02*
X994Y204D01*
X998Y204D02*
X1008Y204D01*
X1013Y204D02*
X1020Y204D01*
X1037Y204D02*
X1043Y204D01*
X1087Y204D02*
X1093Y204D01*
X1168Y204D02*
X1174Y204D01*
X1218Y204D02*
X1224Y204D01*
X1245Y204D02*
X1251Y204D01*
X1268Y204D02*
X1274Y204D01*
X1318Y204D02*
X1324Y204D01*
X1346Y204D02*
X1352Y204D01*
X1369Y204D02*
X1375Y204D01*
X1396Y204D02*
X1402Y204D01*
X1419Y204D02*
X1452Y204D01*
X1469Y204D02*
X1475Y204D01*
X585Y203D02*
X591Y203D01*
X635Y203D02*
X641Y203D01*
X692Y203D02*
X699Y203D01*
X706Y203D02*
X713Y203D01*
X886Y203D02*
X892Y203D01*
X937Y203D02*
X943Y203D01*
X964Y203D02*
X970Y203D01*
X988Y203D02*
X994Y203D01*
X998Y203D02*
X1009Y203D01*
X1013Y203D02*
X1019Y203D01*
X1037Y203D02*
X1043Y203D01*
X1087Y203D02*
X1093Y203D01*
X1168Y203D02*
X1174Y203D01*
X1218Y203D02*
X1224Y203D01*
X1245Y203D02*
X1251Y203D01*
X1268Y203D02*
X1274Y203D01*
X1318Y203D02*
X1324Y203D01*
X1346Y203D02*
X1352Y203D01*
X1369Y203D02*
X1375Y203D01*
X1396Y203D02*
X1402Y203D01*
X1419Y203D02*
X1452Y203D01*
X1469Y203D02*
X1475Y203D01*
X585Y202D02*
X591Y202D01*
X635Y202D02*
X641Y202D01*
X692Y202D02*
X699Y202D01*
X706Y202D02*
X713Y202D01*
X886Y202D02*
X892Y202D01*
X937Y202D02*
X943Y202D01*
X963Y202D02*
X970Y202D01*
X988Y202D02*
X994Y202D01*
X997Y202D02*
X1010Y202D01*
X1013Y202D02*
X1019Y202D01*
X1037Y202D02*
X1043Y202D01*
X1087Y202D02*
X1093Y202D01*
X1168Y202D02*
X1174Y202D01*
X1218Y202D02*
X1224Y202D01*
X1245Y202D02*
X1251Y202D01*
X1268Y202D02*
X1274Y202D01*
X1318Y202D02*
X1324Y202D01*
X1346Y202D02*
X1352Y202D01*
X1369Y202D02*
X1375Y202D01*
X1396Y202D02*
X1402Y202D01*
X1419Y202D02*
X1451Y202D01*
X1469Y202D02*
X1475Y202D01*
X585Y201D02*
X591Y201D01*
X635Y201D02*
X641Y201D01*
X692Y201D02*
X699Y201D01*
X705Y201D02*
X712Y201D01*
X886Y201D02*
X892Y201D01*
X937Y201D02*
X944Y201D01*
X963Y201D02*
X970Y201D01*
X988Y201D02*
X994Y201D01*
X997Y201D02*
X1010Y201D01*
X1012Y201D02*
X1019Y201D01*
X1037Y201D02*
X1044Y201D01*
X1087Y201D02*
X1093Y201D01*
X1168Y201D02*
X1174Y201D01*
X1218Y201D02*
X1224Y201D01*
X1245Y201D02*
X1251Y201D01*
X1268Y201D02*
X1274Y201D01*
X1318Y201D02*
X1324Y201D01*
X1346Y201D02*
X1352Y201D01*
X1369Y201D02*
X1375Y201D01*
X1396Y201D02*
X1402Y201D01*
X1419Y201D02*
X1450Y201D01*
X1469Y201D02*
X1475Y201D01*
X585Y200D02*
X591Y200D01*
X635Y200D02*
X641Y200D01*
X692Y200D02*
X699Y200D01*
X705Y200D02*
X712Y200D01*
X886Y200D02*
X892Y200D01*
X937Y200D02*
X945Y200D01*
X962Y200D02*
X969Y200D01*
X988Y200D02*
X1019Y200D01*
X1038Y200D02*
X1045Y200D01*
X1087Y200D02*
X1093Y200D01*
X1168Y200D02*
X1174Y200D01*
X1218Y200D02*
X1224Y200D01*
X1245Y200D02*
X1251Y200D01*
X1268Y200D02*
X1275Y200D01*
X1318Y200D02*
X1324Y200D01*
X1346Y200D02*
X1352Y200D01*
X1369Y200D02*
X1375Y200D01*
X1396Y200D02*
X1402Y200D01*
X1419Y200D02*
X1425Y200D01*
X1469Y200D02*
X1475Y200D01*
X585Y199D02*
X591Y199D01*
X635Y199D02*
X641Y199D01*
X692Y199D02*
X699Y199D01*
X704Y199D02*
X711Y199D01*
X886Y199D02*
X892Y199D01*
X938Y199D02*
X946Y199D01*
X960Y199D02*
X969Y199D01*
X989Y199D02*
X1018Y199D01*
X1038Y199D02*
X1047Y199D01*
X1087Y199D02*
X1093Y199D01*
X1168Y199D02*
X1174Y199D01*
X1218Y199D02*
X1224Y199D01*
X1245Y199D02*
X1251Y199D01*
X1269Y199D02*
X1275Y199D01*
X1318Y199D02*
X1324Y199D01*
X1346Y199D02*
X1352Y199D01*
X1369Y199D02*
X1375Y199D01*
X1395Y199D02*
X1402Y199D01*
X1419Y199D02*
X1425Y199D01*
X1469Y199D02*
X1475Y199D01*
X585Y198D02*
X616Y198D01*
X635Y198D02*
X667Y198D01*
X688Y198D02*
X711Y198D01*
X886Y198D02*
X892Y198D01*
X938Y198D02*
X968Y198D01*
X989Y198D02*
X1002Y198D01*
X1005Y198D02*
X1018Y198D01*
X1039Y198D02*
X1068Y198D01*
X1087Y198D02*
X1093Y198D01*
X1168Y198D02*
X1174Y198D01*
X1218Y198D02*
X1224Y198D01*
X1245Y198D02*
X1251Y198D01*
X1269Y198D02*
X1276Y198D01*
X1318Y198D02*
X1325Y198D01*
X1346Y198D02*
X1352Y198D01*
X1369Y198D02*
X1375Y198D01*
X1394Y198D02*
X1402Y198D01*
X1419Y198D02*
X1425Y198D01*
X1469Y198D02*
X1475Y198D01*
X585Y197D02*
X618Y197D01*
X635Y197D02*
X668Y197D01*
X687Y197D02*
X710Y197D01*
X886Y197D02*
X892Y197D01*
X939Y197D02*
X967Y197D01*
X989Y197D02*
X1001Y197D01*
X1005Y197D02*
X1018Y197D01*
X1039Y197D02*
X1069Y197D01*
X1087Y197D02*
X1093Y197D01*
X1168Y197D02*
X1174Y197D01*
X1218Y197D02*
X1224Y197D01*
X1245Y197D02*
X1251Y197D01*
X1269Y197D02*
X1278Y197D01*
X1319Y197D02*
X1325Y197D01*
X1346Y197D02*
X1352Y197D01*
X1369Y197D02*
X1375Y197D01*
X1393Y197D02*
X1402Y197D01*
X1419Y197D02*
X1425Y197D01*
X1469Y197D02*
X1475Y197D01*
X585Y196D02*
X619Y196D01*
X635Y196D02*
X669Y196D01*
X686Y196D02*
X710Y196D01*
X886Y196D02*
X892Y196D01*
X940Y196D02*
X966Y196D01*
X990Y196D02*
X1001Y196D01*
X1006Y196D02*
X1017Y196D01*
X1040Y196D02*
X1070Y196D01*
X1087Y196D02*
X1093Y196D01*
X1168Y196D02*
X1174Y196D01*
X1218Y196D02*
X1224Y196D01*
X1245Y196D02*
X1251Y196D01*
X1270Y196D02*
X1279Y196D01*
X1319Y196D02*
X1326Y196D01*
X1345Y196D02*
X1352Y196D01*
X1369Y196D02*
X1376Y196D01*
X1391Y196D02*
X1402Y196D01*
X1419Y196D02*
X1426Y196D01*
X1469Y196D02*
X1475Y196D01*
X585Y195D02*
X619Y195D01*
X635Y195D02*
X669Y195D01*
X686Y195D02*
X709Y195D01*
X886Y195D02*
X892Y195D01*
X941Y195D02*
X965Y195D01*
X990Y195D02*
X1000Y195D01*
X1007Y195D02*
X1017Y195D01*
X1041Y195D02*
X1070Y195D01*
X1087Y195D02*
X1093Y195D01*
X1168Y195D02*
X1174Y195D01*
X1218Y195D02*
X1224Y195D01*
X1245Y195D02*
X1251Y195D01*
X1271Y195D02*
X1280Y195D01*
X1319Y195D02*
X1327Y195D01*
X1344Y195D02*
X1351Y195D01*
X1369Y195D02*
X1377Y195D01*
X1390Y195D02*
X1402Y195D01*
X1419Y195D02*
X1427Y195D01*
X1469Y195D02*
X1475Y195D01*
X585Y194D02*
X619Y194D01*
X635Y194D02*
X669Y194D01*
X686Y194D02*
X708Y194D01*
X886Y194D02*
X892Y194D01*
X942Y194D02*
X964Y194D01*
X990Y194D02*
X1000Y194D01*
X1007Y194D02*
X1017Y194D01*
X1043Y194D02*
X1070Y194D01*
X1087Y194D02*
X1093Y194D01*
X1168Y194D02*
X1174Y194D01*
X1218Y194D02*
X1224Y194D01*
X1245Y194D02*
X1251Y194D01*
X1271Y194D02*
X1281Y194D01*
X1319Y194D02*
X1328Y194D01*
X1342Y194D02*
X1351Y194D01*
X1370Y194D02*
X1378Y194D01*
X1389Y194D02*
X1402Y194D01*
X1420Y194D02*
X1428Y194D01*
X1469Y194D02*
X1475Y194D01*
X585Y193D02*
X618Y193D01*
X635Y193D02*
X668Y193D01*
X686Y193D02*
X707Y193D01*
X887Y193D02*
X892Y193D01*
X944Y193D02*
X963Y193D01*
X991Y193D02*
X999Y193D01*
X1008Y193D02*
X1016Y193D01*
X1044Y193D02*
X1070Y193D01*
X1088Y193D02*
X1093Y193D01*
X1168Y193D02*
X1174Y193D01*
X1218Y193D02*
X1224Y193D01*
X1245Y193D02*
X1251Y193D01*
X1273Y193D02*
X1284Y193D01*
X1320Y193D02*
X1330Y193D01*
X1340Y193D02*
X1350Y193D01*
X1370Y193D02*
X1380Y193D01*
X1387Y193D02*
X1402Y193D01*
X1420Y193D02*
X1431Y193D01*
X1469Y193D02*
X1475Y193D01*
X585Y192D02*
X617Y192D01*
X635Y192D02*
X668Y192D01*
X687Y192D02*
X705Y192D01*
X888Y192D02*
X891Y192D01*
X945Y192D02*
X961Y192D01*
X991Y192D02*
X998Y192D01*
X1009Y192D02*
X1015Y192D01*
X1046Y192D02*
X1069Y192D01*
X1088Y192D02*
X1092Y192D01*
X1168Y192D02*
X1200Y192D01*
X1218Y192D02*
X1224Y192D01*
X1245Y192D02*
X1251Y192D01*
X1274Y192D02*
X1301Y192D01*
X1321Y192D02*
X1349Y192D01*
X1371Y192D02*
X1402Y192D01*
X1421Y192D02*
X1451Y192D01*
X1469Y192D02*
X1475Y192D01*
X1168Y191D02*
X1201Y191D01*
X1218Y191D02*
X1224Y191D01*
X1246Y191D02*
X1251Y191D01*
X1275Y191D02*
X1301Y191D01*
X1322Y191D02*
X1349Y191D01*
X1372Y191D02*
X1402Y191D01*
X1422Y191D02*
X1452Y191D01*
X1469Y191D02*
X1475Y191D01*
X1168Y190D02*
X1201Y190D01*
X1218Y190D02*
X1224Y190D01*
X1246Y190D02*
X1252Y190D01*
X1276Y190D02*
X1302Y190D01*
X1323Y190D02*
X1348Y190D01*
X1373Y190D02*
X1394Y190D01*
X1396Y190D02*
X1402Y190D01*
X1423Y190D02*
X1452Y190D01*
X1469Y190D02*
X1475Y190D01*
X1168Y189D02*
X1201Y189D01*
X1218Y189D02*
X1224Y189D01*
X1246Y189D02*
X1251Y189D01*
X1277Y189D02*
X1302Y189D01*
X1324Y189D02*
X1346Y189D01*
X1374Y189D02*
X1393Y189D01*
X1396Y189D02*
X1402Y189D01*
X1424Y189D02*
X1452Y189D01*
X1469Y189D02*
X1475Y189D01*
X1168Y188D02*
X1201Y188D01*
X1218Y188D02*
X1224Y188D01*
X1246Y188D02*
X1251Y188D01*
X1278Y188D02*
X1301Y188D01*
X1325Y188D02*
X1345Y188D01*
X1375Y188D02*
X1392Y188D01*
X1397Y188D02*
X1402Y188D01*
X1425Y188D02*
X1452Y188D01*
X1469Y188D02*
X1475Y188D01*
X1168Y187D02*
X1200Y187D01*
X1219Y187D02*
X1223Y187D01*
X1247Y187D02*
X1250Y187D01*
X1280Y187D02*
X1301Y187D01*
X1327Y187D02*
X1343Y187D01*
X1377Y187D02*
X1390Y187D01*
X1397Y187D02*
X1401Y187D01*
X1427Y187D02*
X1451Y187D01*
X1470Y187D02*
X1474Y187D01*
X1168Y186D02*
X1198Y186D01*
X1284Y186D02*
X1298Y186D01*
X1331Y186D02*
X1340Y186D01*
X1381Y186D02*
X1386Y186D01*
X1431Y186D02*
X1449Y186D01*
D02*
G04 End of Silk1*
M02*