G04 MADE WITH FRITZING*
G04 WWW.FRITZING.ORG*
G04 DOUBLE SIDED*
G04 HOLES PLATED*
G04 CONTOUR ON CENTER OF CONTOUR VECTOR*
%ASAXBY*%
%FSLAX23Y23*%
%MOIN*%
%OFA0B0*%
%SFA1.0B1.0*%
%ADD10R,0.120998X0.156479*%
%ADD11R,0.047244X0.019685*%
%ADD12R,0.022835X0.047244*%
%ADD13R,0.078740X0.078740*%
%ADD14R,0.062992X0.074803*%
%LNPASTEMASK0*%
G90*
G70*
G54D10*
X1282Y1631D03*
X1462Y1628D03*
G54D11*
X1493Y1127D03*
X1493Y1077D03*
X1493Y1027D03*
X1493Y977D03*
X1493Y927D03*
X1493Y877D03*
X1493Y827D03*
X1276Y827D03*
X1276Y877D03*
X1276Y927D03*
X1276Y977D03*
X1276Y1027D03*
X1276Y1077D03*
X1276Y1127D03*
G54D12*
X386Y1461D03*
X326Y1461D03*
X267Y1461D03*
G54D13*
X326Y1583D03*
G54D12*
X381Y1201D03*
X322Y1201D03*
X263Y1201D03*
G54D13*
X322Y1323D03*
G54D12*
X645Y1199D03*
X586Y1199D03*
X527Y1199D03*
G54D13*
X586Y1322D03*
G54D12*
X637Y1460D03*
X578Y1460D03*
X519Y1460D03*
G54D13*
X578Y1582D03*
G54D14*
X329Y908D03*
X451Y908D03*
X329Y796D03*
X451Y796D03*
X330Y132D03*
X452Y132D03*
X330Y243D03*
X452Y243D03*
X331Y354D03*
X453Y354D03*
X331Y466D03*
X453Y466D03*
X330Y576D03*
X452Y576D03*
X330Y687D03*
X452Y687D03*
G04 End of PasteMask0*
M02*