; NON-PLATED HOLES START AT T1
; THROUGH (PLATED) HOLES START AT T100
M48
INCH
T100C0.015748
T101C0.040000
T102C0.035000
%
T100
X005939Y011056
X012300Y003016
X004019Y013216
X002699Y014056
T101
X008919Y001389
X014639Y001277
X009919Y001289
X011639Y001377
X006919Y001389
X012639Y001277
X013639Y001377
X007919Y001289
T102
X001134Y007762
X008036Y010188
X001214Y008762
X011036Y012188
X008036Y007188
X011036Y009188
X001134Y005762
X001214Y006762
X011036Y010188
X001134Y011762
X008036Y005188
X011036Y007188
X001134Y003762
X001214Y012762
X001214Y004762
X008036Y011188
X011036Y005188
X001134Y001762
X001214Y010762
X008036Y008188
X001214Y002762
X011036Y011188
X008036Y006188
X011036Y008188
X001134Y009762
X008036Y012188
X011036Y006188
X008036Y009188
T00
M30
